Pretendard-gov.glyphspackage
{
glyphname = exclam;
layers = (
{
guides = (
{
pos = (-76,1240);
},
{
pos = (-76,764);
},
{
angle = 90;
pos = (80,0);
},
{
orientation = center;
angle = 90;
pos = (364,516);
}
);
layerId = "5C20EF92-B63D-42A8-8878-93C2863E0093";
shapes = (
{
closed = 1;
nodes = (
(220,2048,l),
(272,640,l),
(728,640,l),
(780,2048,l)
);
},
{
pos = (60,0);
ref = period;
}
);
width = 1000;
},
{
guides = (
{
pos = (340,1192);
}
);
layerId = "B1F27B51-9973-4381-9301-4FE46FE1CA59";
shapes = (
{
closed = 1;
nodes = (
(304,2048,l),
(304,608,l),
(368,608,l),
(368,2048,l)
);
},
{
pos = (12,0);
ref = period;
}
);
width = 672;
},
{
associatedMasterId = "CD0E3B44-F66A-4791-B84C-A1128DC61275";
layerId = "4B6F7A80-B623-4505-AD95-2E7D12890DD0";
shapes = (
{
closed = 1;
nodes = (
(224,2048,l),
(244,578,l),
(482,578,l),
(502,2048,l)
);
},
{
alignment = -1;
pos = (6,0);
ref = period;
}
);
width = 725.69057;
},
{
layerId = "CD0E3B44-F66A-4791-B84C-A1128DC61275";
shapes = (
{
closed = 1;
nodes = (
(232,2048,l),
(252,578,l),
(490,578,l),
(510,2048,l)
);
},
{
alignment = -1;
pos = (4,0);
ref = period;
}
);
width = 744;
}
);
unicode = 33;
userData = {
"interface.width-adjustments" = (
-16
);
};
}
{
glyphname = numbersign;
layers = (
{
layerId = "5C20EF92-B63D-42A8-8878-93C2863E0093";
shapes = (
{
closed = 1;
nodes = (
(1324,0,l),
(1660,2048,l),
(1260,2048,l),
(924,0,l)
);
},
{
closed = 1;
nodes = (
(1664,468,l),
(1732,868,l),
(84,868,l),
(16,468,l)
);
},
{
closed = 1;
nodes = (
(604,0,l),
(940,2048,l),
(540,2048,l),
(204,0,l)
);
},
{
closed = 1;
nodes = (
(1780,1180,l),
(1848,1580,l),
(200,1580,l),
(132,1180,l)
);
}
);
width = 1864;
},
{
layerId = "B1F27B51-9973-4381-9301-4FE46FE1CA59";
shapes = (
{
closed = 1;
nodes = (
(1084,0,l),
(1420,2048,l),
(1356,2048,l),
(1020,0,l)
);
},
{
closed = 1;
nodes = (
(1560,636,l),
(1572,700,l),
(44,700,l),
(32,636,l)
);
},
{
closed = 1;
nodes = (
(364,0,l),
(700,2048,l),
(636,2048,l),
(300,0,l)
);
},
{
closed = 1;
nodes = (
(1676,1348,l),
(1688,1412,l),
(160,1412,l),
(148,1348,l)
);
}
);
width = 1720;
},
{
associatedMasterId = "5C20EF92-B63D-42A8-8878-93C2863E0093";
layerId = "8150BABC-50DE-457F-AD29-9E6DAA541700";
name = "Dec 27 18, 16:50";
shapes = (
{
closed = 1;
nodes = (
(692,0,l),
(1064,1988,l),
(768,1988,l),
(396,0,l)
);
},
{
closed = 1;
nodes = (
(1184,0,l),
(1556,1988,l),
(1256,1988,l),
(884,0,l)
);
},
{
closed = 1;
nodes = (
(1780,1408,l),
(276,1408,l),
(284,1140,l),
(1792,1140,l)
);
},
{
closed = 1;
nodes = (
(1668,836,l),
(164,836,l),
(172,564,l),
(1676,564,l)
);
}
);
width = 1956;
},
{
associatedMasterId = "5C20EF92-B63D-42A8-8878-93C2863E0093";
background = {
shapes = (
{
closed = 1;
nodes = (
(572,0,l),
(944,1988,l),
(648,1988,l),
(276,0,l)
);
},
{
closed = 1;
nodes = (
(1064,0,l),
(1436,1988,l),
(1136,1988,l),
(764,0,l)
);
},
{
closed = 1;
nodes = (
(1660,1408,l),
(156,1408,l),
(164,1140,l),
(1672,1140,l)
);
},
{
closed = 1;
nodes = (
(1548,836,l),
(44,836,l),
(52,564,l),
(1556,564,l)
);
}
);
};
layerId = "5A59D344-CADF-46E4-B2F0-D61FEE264785";
name = "Dec 27 18, 16:53";
shapes = (
{
closed = 1;
nodes = (
(1216,0,l),
(1216,2048,l)
);
},
{
closed = 1;
nodes = (
(1680,1380,l),
(32,1380,l)
);
},
{
closed = 1;
nodes = (
(496,0,l),
(496,2048,l)
);
},
{
closed = 1;
nodes = (
(1680,668,l),
(32,668,l)
);
}
);
width = 1712;
},
{
associatedMasterId = "B1F27B51-9973-4381-9301-4FE46FE1CA59";
background = {
shapes = (
{
closed = 1;
nodes = (
(564,0,l),
(836,2048,l),
(632,2048,l),
(360,0,l)
);
},
{
closed = 1;
nodes = (
(1184,0,l),
(1460,2048,l),
(1256,2048,l),
(984,0,l)
);
},
{
closed = 1;
nodes = (
(1680,1488,l),
(252,1488,l),
(224,1280,l),
(1652,1280,l)
);
},
{
closed = 1;
nodes = (
(1588,768,l),
(160,768,l),
(132,568,l),
(1560,568,l)
);
}
);
};
layerId = "234210DF-ABFB-4FAA-87B6-7476935D9366";
name = "Dec 27 18, 16:59";
shapes = (
{
closed = 1;
nodes = (
(1264,0,l),
(1264,2048,l)
);
},
{
closed = 1;
nodes = (
(1668,1380,l),
(140,1380,l)
);
},
{
closed = 1;
nodes = (
(544,0,l),
(544,2048,l)
);
},
{
closed = 1;
nodes = (
(1668,668,l),
(140,668,l)
);
}
);
width = 1808;
},
{
associatedMasterId = "CD0E3B44-F66A-4791-B84C-A1128DC61275";
layerId = "FE1B12BC-63A5-4857-A9D2-E89430D603EC";
shapes = (
{
closed = 1;
nodes = (
(1152,0,l),
(1488,2048,l),
(1282,2048,l),
(946,0,l)
);
},
{
closed = 1;
nodes = (
(1546,566,l),
(1580,770,l),
(48,770,l),
(16,566,l)
);
},
{
closed = 1;
nodes = (
(432,0,l),
(768,2048,l),
(562,2048,l),
(226,0,l)
);
},
{
closed = 1;
nodes = (
(1666,1278,l),
(1700,1482,l),
(168,1482,l),
(136,1278,l)
);
}
);
width = 1714.55094;
},
{
layerId = "CD0E3B44-F66A-4791-B84C-A1128DC61275";
shapes = (
{
closed = 1;
nodes = (
(1162,0,l),
(1498,2048,l),
(1292,2048,l),
(956,0,l)
);
},
{
closed = 1;
nodes = (
(1556,566,l),
(1590,770,l),
(58,770,l),
(26,566,l)
);
},
{
closed = 1;
nodes = (
(442,0,l),
(778,2048,l),
(572,2048,l),
(236,0,l)
);
},
{
closed = 1;
nodes = (
(1676,1278,l),
(1710,1482,l),
(178,1482,l),
(146,1278,l)
);
}
);
width = 1736;
}
);
note = "1. outline\0122. slant 9.4 deg\0123. remove extra shapes created by outlining";
unicode = 35;
userData = {
"interface.width-adjustments" = (
-16
);
};
}
{
glyphname = quotesingle;
kernLeft = quotedbl;
kernRight = quotedbl;
layers = (
{
guides = (
{
pos = (-140,1240);
},
{
pos = (-140,764);
}
);
layerId = "5C20EF92-B63D-42A8-8878-93C2863E0093";
shapes = (
{
closed = 1;
nodes = (
(100,2048,l),
(100,1220,l),
(460,1220,l),
(460,2048,l)
);
}
);
width = 564;
},
{
layerId = "B1F27B51-9973-4381-9301-4FE46FE1CA59";
shapes = (
{
closed = 1;
nodes = (
(224,2048,l),
(224,1408,l),
(288,1408,l),
(288,2048,l)
);
}
);
width = 512;
},
{
associatedMasterId = "CD0E3B44-F66A-4791-B84C-A1128DC61275";
layerId = "04E753F5-E3D0-41FB-9828-234BA7041904";
shapes = (
{
closed = 1;
nodes = (
(166,2048,l),
(166,1340,l),
(390,1340,l),
(390,2048,l)
);
}
);
width = 558.92075;
},
{
layerId = "CD0E3B44-F66A-4791-B84C-A1128DC61275";
shapes = (
{
closed = 1;
nodes = (
(178,2048,l),
(178,1340,l),
(402,1340,l),
(402,2048,l)
);
}
);
width = 584;
}
);
unicode = 39;
userData = {
"interface.width-adjustments" = (
-16
);
};
}
{
color = (204,240,242,1);
glyphname = equal;
kernLeft = approxequal;
kernRight = approxequal;
layers = (
{
guides = (
{
orientation = center;
pos = (260,832);
}
);
layerId = "5C20EF92-B63D-42A8-8878-93C2863E0093";
shapes = (
{
closed = 1;
nodes = (
(1716,964,l),
(1716,1412,l),
(236,1412,l),
(236,964,l)
);
},
{
closed = 1;
nodes = (
(1716,252,l),
(1716,700,l),
(236,700,l),
(236,252,l)
);
}
);
width = 1952;
},
{
guides = (
{
pos = (132,1384);
}
);
layerId = "B1F27B51-9973-4381-9301-4FE46FE1CA59";
shapes = (
{
closed = 1;
nodes = (
(1340,1036,l),
(1340,1100,l),
(388,1100,l),
(388,1036,l)
);
},
{
closed = 1;
nodes = (
(1340,500,l),
(1340,564,l),
(388,564,l),
(388,500,l)
);
}
);
width = 1728;
},
{
associatedMasterId = "CD0E3B44-F66A-4791-B84C-A1128DC61275";
layerId = "470346A7-4D90-4538-A8D2-124FAE822E81";
shapes = (
{
closed = 1;
nodes = (
(1516,988,l),
(1516,1210,l),
(278,1210,l),
(278,988,l)
);
},
{
closed = 1;
nodes = (
(1516,392,l),
(1516,614,l),
(278,614,l),
(278,392,l)
);
}
);
width = 1794.74717;
},
{
layerId = "CD0E3B44-F66A-4791-B84C-A1128DC61275";
shapes = (
{
closed = 1;
nodes = (
(1528,988,l),
(1528,1210,l),
(290,1210,l),
(290,988,l)
);
},
{
closed = 1;
nodes = (
(1528,392,l),
(1528,614,l),
(290,614,l),
(290,392,l)
);
}
);
width = 1816;
}
);
metricWidth = plus;
unicode = 61;
userData = {
com.typemytype.robofont.guideline.magnetic.7d4CjnlrzW = 5;
interface.gridadjust.original = "{'width': 1664, 'leftMargin': 256, 'rightMargin': 256}";
"interface.width-adjustments" = (
-16
);
};
}
{
color = (219,235,247,1);
glyphname = I;
kernLeft = B;
kernRight = H;
layers = (
{
anchors = (
{
name = bottom;
pos = (408,0);
},
{
name = cross;
pos = (408,1084);
},
{
name = ogonek;
pos = (688,0);
},
{
name = right;
pos = (724,0);
},
{
name = tonos;
pos = (132,2048);
},
{
name = top;
pos = (412,2304);
}
);
guides = (
{
orientation = center;
angle = 90;
pos = (144,1240);
}
);
layerId = "5C20EF92-B63D-42A8-8878-93C2863E0093";
shapes = (
{
closed = 1;
nodes = (
(132,2048,l),
(132,0,l),
(688,0,l),
(688,2048,l)
);
}
);
width = 820;
},
{
anchors = (
{
name = bottom;
pos = (320,0);
},
{
name = cross;
pos = (320,1056);
},
{
name = ogonek;
pos = (352,0);
},
{
name = right;
pos = (364,0);
},
{
name = tonos;
pos = (288,2048);
},
{
name = top;
pos = (320,2304);
}
);
layerId = "B1F27B51-9973-4381-9301-4FE46FE1CA59";
shapes = (
{
closed = 1;
nodes = (
(288,2048,l),
(288,0,l),
(352,0,l),
(352,2048,l)
);
}
);
width = 640;
},
{
anchors = (
{
name = bottom;
pos = (342,0);
},
{
name = cross;
pos = (342,1056);
},
{
name = ogonek;
pos = (468,0);
},
{
name = right;
pos = (490,0);
},
{
name = tonos;
pos = (214,2048);
},
{
name = top;
pos = (342,2304);
}
);
associatedMasterId = "CD0E3B44-F66A-4791-B84C-A1128DC61275";
layerId = "625E8231-86B3-4116-AF0D-EB261782C20D";
shapes = (
{
closed = 1;
nodes = (
(214,2048,l),
(214,0,l),
(468,0,l),
(468,2048,l)
);
}
);
width = 682.2566;
},
{
anchors = (
{
name = bottom;
pos = (354,0);
},
{
name = cross;
pos = (354,1056);
},
{
name = ogonek;
pos = (480,0);
},
{
name = right;
pos = (502,0);
},
{
name = tonos;
pos = (226,2048);
},
{
name = top;
pos = (354,2304);
}
);
layerId = "CD0E3B44-F66A-4791-B84C-A1128DC61275";
shapes = (
{
closed = 1;
nodes = (
(226,2048,l),
(226,0,l),
(480,0,l),
(480,2048,l)
);
}
);
width = 706;
}
);
metricLeft = H;
metricRight = H;
unicode = 73;
userData = {
"interface.width-adjustments" = (
-16
);
};
}
{
color = (219,235,247,1);
glyphname = T;
kernLeft = T;
kernRight = T;
layers = (
{
anchors = (
{
name = bottom;
pos = (964,0);
},
{
name = cedilla;
pos = (956,0);
},
{
name = cross;
pos = (964,916);
},
{
name = cyrtic;
pos = (1480,224);
},
{
name = right;
pos = (1176,0);
},
{
name = top;
pos = (968,2304);
}
);
guides = (
{
orientation = center;
angle = 90;
pos = (824,956);
}
);
layerId = "5C20EF92-B63D-42A8-8878-93C2863E0093";
shapes = (
{
closed = 1;
nodes = (
(692,1600,l),
(692,0,l),
(1240,0,l),
(1240,1600,l),
(1856,1600,l),
(1856,2048,l),
(76,2048,l),
(76,1600,l)
);
}
);
width = 1932;
},
{
anchors = (
{
name = bottom;
pos = (832,0);
},
{
name = cedilla;
pos = (832,-8);
},
{
name = cross;
pos = (832,1056);
},
{
name = cyrtic;
pos = (892,8);
},
{
name = right;
pos = (848,0);
},
{
name = top;
pos = (832,2304);
}
);
layerId = "B1F27B51-9973-4381-9301-4FE46FE1CA59";
shapes = (
{
closed = 1;
nodes = (
(800,1984,l),
(800,0,l),
(864,0,l),
(864,1984,l),
(1524,1984,l),
(1524,2048,l),
(140,2048,l),
(140,1984,l)
);
}
);
width = 1664;
},
{
anchors = (
{
name = bottom;
pos = (874,0);
},
{
name = cedilla;
pos = (904,0);
},
{
name = cross;
pos = (874,1052);
},
{
name = cyrtic;
pos = (1116,92);
},
{
name = right;
pos = (934,0);
},
{
name = top;
pos = (874,2304);
}
);
associatedMasterId = "CD0E3B44-F66A-4791-B84C-A1128DC61275";
layerId = "8D68A1C2-E20C-4650-976A-6B8A7F7B276A";
shapes = (
{
closed = 1;
nodes = (
(746,1822,l),
(746,0,l),
(1002,0,l),
(1002,1822,l),
(1644,1822,l),
(1644,2048,l),
(102,2048,l),
(102,1822,l)
);
}
);
width = 1747.43396;
},
{
anchors = (
{
name = bottom;
pos = (886,0);
},
{
name = cedilla;
pos = (916,0);
},
{
name = cross;
pos = (886,1052);
},
{
name = cyrtic;
pos = (1128,92);
},
{
name = right;
pos = (946,0);
},
{
name = top;
pos = (886,2304);
}
);
layerId = "CD0E3B44-F66A-4791-B84C-A1128DC61275";
shapes = (
{
closed = 1;
nodes = (
(758,1822,l),
(758,0,l),
(1014,0,l),
(1014,1822,l),
(1656,1822,l),
(1656,2048,l),
(114,2048,l),
(114,1822,l)
);
}
);
width = 1770;
}
);
unicode = 84;
userData = {
"interface.width-adjustments" = (
-16
);
};
}
{
color = (219,235,247,1);
glyphname = Z;
kernLeft = Z;
kernRight = Z;
layers = (
{
anchors = (
{
name = bottom;
pos = (980,0);
},
{
name = cross;
pos = (1020,1084);
},
{
name = top;
pos = (984,2304);
}
);
guides = (
{
pos = (-136,1552);
},
{
angle = 55.0453;
pos = (1544,1788);
},
{
angle = 55.0343;
pos = (-12,276);
},
{
angle = 90;
pos = (-16,1664);
},
{
angle = 90;
pos = (1536,384);
},
{
orientation = center;
angle = 90;
pos = (960,800);
}
);
layerId = "5C20EF92-B63D-42A8-8878-93C2863E0093";
shapes = (
{
closed = 1;
nodes = (
(1812,0,l),
(1812,448,l),
(848,448,l),
(1816,1740,l),
(1816,2048,l),
(144,2048,l),
(144,1600,l),
(1108,1600,l),
(140,308,l),
(140,0,l)
);
}
);
width = 1956;
},
{
anchors = (
{
name = bottom;
pos = (820,0);
},
{
name = cross;
pos = (820,1024);
},
{
name = top;
pos = (820,2304);
}
);
guides = (
{
angle = 90;
pos = (76,684);
},
{
angle = 90;
pos = (1356,684);
}
);
layerId = "B1F27B51-9973-4381-9301-4FE46FE1CA59";
shapes = (
{
closed = 1;
nodes = (
(1468,0,l),
(1468,64,l),
(256,64,l),
(1460,1984,l),
(1460,2048,l),
(188,2048,l),
(188,1984,l),
(1384,1984,l),
(180,64,l),
(180,0,l)
);
}
);
width = 1640;
},
{
anchors = (
{
name = bottom;
pos = (842,0);
},
{
name = cross;
pos = (872,1056);
},
{
name = top;
pos = (850,2304);
}
);
associatedMasterId = "CD0E3B44-F66A-4791-B84C-A1128DC61275";
layerId = "CD26C9A3-45A3-4CA5-A11D-9036ABC5F588";
shapes = (
{
closed = 1;
nodes = (
(1566,0,l),
(1566,226,l),
(454,226,l),
(1554,1864,l),
(1554,2048,l),
(136,2048,l),
(136,1822,l),
(1248,1822,l),
(148,184,l),
(148,0,l)
);
}
);
width = 1701.2;
},
{
anchors = (
{
name = bottom;
pos = (852,0);
},
{
name = cross;
pos = (882,1056);
},
{
name = top;
pos = (860,2304);
}
);
layerId = "CD0E3B44-F66A-4791-B84C-A1128DC61275";
shapes = (
{
closed = 1;
nodes = (
(1576,0,l),
(1576,226,l),
(464,226,l),
(1564,1864,l),
(1564,2048,l),
(146,2048,l),
(146,1822,l),
(1258,1822,l),
(158,184,l),
(158,0,l)
);
}
);
width = 1722;
}
);
unicode = 90;
userData = {
com.typemytype.robofont.guideline.magnetic.7L9fK9Z9Br = 5;
com.typemytype.robofont.guideline.magnetic.DPCAFAyemJ = 5;
com.typemytype.robofont.guideline.magnetic.VxRM18zW9m = 5;
"interface.width-adjustments" = (
-16
);
};
}
{
color = (204,240,242,1);
glyphname = degree;
kernLeft = asciicircum;
kernRight = asciicircum;
layers = (
{
layerId = "5C20EF92-B63D-42A8-8878-93C2863E0093";
shapes = (
{
closed = 1;
nodes = (
(935,1036,o),
(1164,1265,o),
(1164,1548,cs),
(1164,1831,o),
(935,2060,o),
(652,2060,cs),
(369,2060,o),
(140,1831,o),
(140,1548,cs),
(140,1265,o),
(369,1036,o),
(652,1036,cs)
);
},
{
closed = 1;
nodes = (
(557,1376,o),
(480,1453,o),
(480,1548,cs),
(480,1643,o),
(557,1720,o),
(652,1720,cs),
(747,1720,o),
(824,1643,o),
(824,1548,cs),
(824,1453,o),
(747,1376,o),
(652,1376,cs)
);
}
);
width = 1304;
},
{
layerId = "B1F27B51-9973-4381-9301-4FE46FE1CA59";
shapes = (
{
closed = 1;
nodes = (
(838,1244,o),
(1024,1430,o),
(1024,1660,cs),
(1024,1890,o),
(838,2076,o),
(608,2076,cs),
(378,2076,o),
(192,1890,o),
(192,1660,cs),
(192,1430,o),
(378,1244,o),
(608,1244,cs)
);
},
{
closed = 1;
nodes = (
(413,1308,o),
(256,1465,o),
(256,1660,cs),
(256,1855,o),
(413,2012,o),
(608,2012,cs),
(803,2012,o),
(960,1855,o),
(960,1660,cs),
(960,1465,o),
(803,1308,o),
(608,1308,cs)
);
}
);
width = 1216;
},
{
associatedMasterId = "CD0E3B44-F66A-4791-B84C-A1128DC61275";
layerId = "60338709-2ABB-420A-8BB9-5C73A5BA6419";
shapes = (
{
closed = 1;
nodes = (
(864,1142,o),
(1070,1348,o),
(1070,1602,cs),
(1070,1858,o),
(864,2064,o),
(608,2064,cs),
(354,2064,o),
(148,1858,o),
(148,1602,cs),
(148,1348,o),
(354,1142,o),
(608,1142,cs)
);
},
{
closed = 1;
nodes = (
(466,1344,o),
(350,1460,o),
(350,1602,cs),
(350,1746,o),
(466,1860,o),
(608,1860,cs),
(752,1860,o),
(866,1746,o),
(866,1602,cs),
(866,1460,o),
(752,1344,o),
(608,1344,cs)
);
}
);
width = 1216.98113;
},
{
layerId = "CD0E3B44-F66A-4791-B84C-A1128DC61275";
shapes = (
{
closed = 1;
nodes = (
(874,1142,o),
(1080,1348,o),
(1080,1602,cs),
(1080,1858,o),
(874,2064,o),
(618,2064,cs),
(364,2064,o),
(158,1858,o),
(158,1602,cs),
(158,1348,o),
(364,1142,o),
(618,1142,cs)
);
},
{
closed = 1;
nodes = (
(476,1344,o),
(360,1460,o),
(360,1602,cs),
(360,1746,o),
(476,1860,o),
(618,1860,cs),
(762,1860,o),
(876,1746,o),
(876,1602,cs),
(876,1460,o),
(762,1344,o),
(618,1344,cs)
);
}
);
width = 1238;
}
);
unicode = 176;
userData = {
interface.gridadjust.original = "{'width': 896, 'leftMargin': 28, 'rightMargin': 168}";
"interface.width-adjustments" = (
-16
);
};
}
{
color = 1;
glyphname = three.sups;
kernLeft = three.sups;
kernRight = eight.sups;
layers = (
{
layerId = "5C20EF92-B63D-42A8-8878-93C2863E0093";
shapes = (
{
closed = 1;
nodes = (
(952,1008,o),
(1192,1160,o),
(1192,1384,cs),
(1192,1544,o),
(1076,1640,o),
(884,1652,c),
(884,1664,l),
(1020,1680,o),
(1136,1764,o),
(1136,1908,cs),
(1136,2104,o),
(940,2268,o),
(636,2268,cs),
(336,2268,o),
(104,2116,o),
(100,1896,c),
(452,1896,l),
(456,1944,o),
(532,1980,o),
(632,1980,cs),
(720,1980,o),
(780,1944,o),
(780,1884,cs),
(780,1828,o),
(716,1784,o),
(608,1784,cs),
(440,1784,l),
(440,1512,l),
(608,1512,ls),
(736,1512,o),
(808,1468,o),
(808,1408,cs),
(808,1340,o),
(724,1312,o),
(628,1312,cs),
(532,1312,o),
(456,1336,o),
(448,1388,c),
(72,1388,l),
(80,1160,o),
(308,1008,o),
(628,1008,cs)
);
}
);
userData = {
RMXScaler = {
height = 60;
verticalShift = 1024;
weight = -300;
width = 66.6;
};
};
width = 1268;
},
{
layerId = "B1F27B51-9973-4381-9301-4FE46FE1CA59";
shapes = (
{
closed = 1;
nodes = (
(792,1008,o),
(964,1156,o),
(964,1348,cs),
(964,1500,o),
(852,1620,o),
(676,1656,c),
(676,1664,l),
(824,1700,o),
(924,1808,o),
(924,1952,cs),
(924,2132,o),
(768,2268,o),
(548,2268,cs),
(332,2268,o),
(168,2136,o),
(168,1944,c),
(228,1944,l),
(232,2104,o),
(368,2212,o),
(548,2212,cs),
(732,2212,o),
(860,2100,o),
(860,1952,cs),
(860,1788,o),
(708,1688,o),
(512,1688,cs),
(476,1688,l),
(476,1628,l),
(512,1628,ls),
(744,1628,o),
(904,1512,o),
(904,1348,cs),
(904,1192,o),
(760,1068,o),
(552,1068,cs),
(356,1068,o),
(200,1176,o),
(200,1332,c),
(136,1332,l),
(136,1144,o),
(316,1008,o),
(552,1008,cs)
);
}
);
userData = {
RMXScaler = {
height = 60;
verticalShift = 1024;
width = 66.6;
};
};
width = 1092;
},
{
associatedMasterId = "CD0E3B44-F66A-4791-B84C-A1128DC61275";
layerId = "FDEC218B-D0BD-4A4D-AE60-EDBD51CD2A24";
shapes = (
{
closed = 1;
nodes = (
(862,1008,o),
(1066,1160,o),
(1066,1364,cs),
(1066,1512,o),
(958,1628,o),
(762,1656,c),
(762,1664,l),
(906,1688,o),
(1018,1784,o),
(1018,1928,cs),
(1018,2124,o),
(838,2268,o),
(576,2268,cs),
(320,2268,o),
(120,2124,o),
(116,1912,c),
(326,1912,l),
(330,2022,o),
(442,2094,o),
(576,2094,cs),
(712,2094,o),
(802,2018,o),
(802,1916,cs),
(802,1804,o),
(692,1734,o),
(544,1734,cs),
(444,1734,l),
(444,1570,l),
(544,1570,ls),
(724,1570,o),
(838,1492,o),
(838,1380,cs),
(838,1270,o),
(728,1192,o),
(572,1192,cs),
(426,1192,o),
(314,1262,o),
(310,1368,c),
(88,1368,l),
(92,1156,o),
(296,1008,o),
(572,1008,cs)
);
}
);
userData = {
RMXScaler = {
height = 60;
verticalShift = 1024;
weight = -50;
width = 66.6;
};
};
width = 1149.76604;
},
{
layerId = "CD0E3B44-F66A-4791-B84C-A1128DC61275";
shapes = (
{
closed = 1;
nodes = (
(872,1008,o),
(1076,1160,o),
(1076,1364,cs),
(1076,1512,o),
(968,1628,o),
(772,1656,c),
(772,1664,l),
(916,1688,o),
(1028,1784,o),
(1028,1928,cs),
(1028,2124,o),
(848,2268,o),
(586,2268,cs),
(330,2268,o),
(130,2124,o),
(126,1912,c),
(336,1912,l),
(340,2022,o),
(452,2094,o),
(586,2094,cs),
(722,2094,o),
(812,2018,o),
(812,1916,cs),
(812,1804,o),
(702,1734,o),
(554,1734,cs),
(454,1734,l),
(454,1570,l),
(554,1570,ls),
(734,1570,o),
(848,1492,o),
(848,1380,cs),
(848,1270,o),
(738,1192,o),
(582,1192,cs),
(436,1192,o),
(324,1262,o),
(320,1368,c),
(98,1368,l),
(102,1156,o),
(306,1008,o),
(582,1008,cs)
);
}
);
userData = {
RMXScaler = {
height = 60;
verticalShift = 1024;
weight = -50;
width = 66.6;
};
};
width = 1170;
}
);
unicode = 179;
userData = {
RMXScaler = {
source = three;
};
};
}
{
glyphname = germandbls;
kernLeft = B;
kernRight = B;
layers = (
{
layerId = "5C20EF92-B63D-42A8-8878-93C2863E0093";
shapes = (
{
closed = 1;
nodes = (
(684,0,l),
(684,1392,ls),
(684,1539,o),
(778,1628,o),
(932,1628,cs),
(1080,1628,o),
(1166,1546,o),
(1164,1424,cs),
(1162,1315,o),
(1091,1236,o),
(984,1236,cs),
(892,1236,l),
(892,832,l),
(1036,832,ls),
(1213,832,o),
(1322,759,o),
(1324,632,cs),
(1326,508,o),
(1224,432,o),
(1068,432,cs),
(884,432,l),
(884,0,l),
(1184,0,ls),
(1592,0,o),
(1881,182,o),
(1884,564,cs),
(1886,853,o),
(1726,1071,o),
(1456,1084,c),
(1456,1108,l),
(1633,1150,o),
(1732,1307,o),
(1732,1504,cs),
(1732,1894,o),
(1349,2076,o),
(912,2076,cs),
(433,2076,o),
(132,1858,o),
(132,1496,cs),
(132,0,l)
);
}
);
width = 1948;
},
{
associatedMasterId = "5C20EF92-B63D-42A8-8878-93C2863E0093";
layerId = "11CF2F4F-E2CA-4A36-8041-A12718C862ED";
name = "Sep 30 18, 16:07";
shapes = (
{
closed = 1;
nodes = (
(673,1596,o),
(765,1636,o),
(860,1636,cs),
(973,1636,o),
(1045,1576,o),
(1044,1500,cs),
(1042,1364,o),
(921,1268,o),
(920,1072,cs,{
name = hr01;
}),
(921,728,o),
(1301,780,o),
(1300,532,cs,{
name = hr02;
}),
(1301,428,o),
(1217,392,o),
(1124,392,cs),
(985,392,o),
(909,412,o),
(856,424,c),
(744,28,l),
(825,-12,o),
(989,-28,o),
(1116,-28,cs),
(1641,-28,o),
(1829,296,o),
(1828,536,cs),
(1829,884,o),
(1477,960,o),
(1476,1104,cs,{
name = hr03;
}),
(1477,1256,o),
(1571,1340,o),
(1572,1528,cs,{
name = hr04;
}),
(1573,1856,o),
(1297,2076,o),
(860,2076,cs),
(417,2076,o),
(140,1856,o),
(140,1432,cs),
(140,0,l),
(672,0,l),
(672,1432,l)
);
}
);
width = 1908;
},
{
layerId = "B1F27B51-9973-4381-9301-4FE46FE1CA59";
shapes = (
{
closed = 1;
nodes = (
(352,0,l),
(352,1524,ls),
(352,1830,o),
(521,2014,o),
(796,2012,cs),
(1046,2012,o),
(1212,1848,o),
(1212,1584,cs),
(1212,1293,o),
(999,1088,o),
(676,1088,cs),
(644,1088,l),
(644,1024,l),
(674,1024,ls),
(1062,1024,o),
(1308,830,o),
(1308,524,cs),
(1308,252,o),
(1099,64,o),
(792,64,cs),
(636,64,l),
(636,0,l),
(776,0,ls),
(1138,0,o),
(1370,211,o),
(1370,536,cs),
(1370,810,o),
(1206,988,o),
(892,1058,c),
(892,1066,l),
(1135,1140,o),
(1274,1333,o),
(1276,1584,cs),
(1278,1878,o),
(1084,2076,o),
(794,2076,cs),
(490,2076,o),
(288,1866,o),
(288,1540,cs),
(288,0,l)
);
}
);
width = 1554;
},
{
associatedMasterId = "CD0E3B44-F66A-4791-B84C-A1128DC61275";
layerId = "5E5DC99D-4C51-41DA-928E-9FA8A1942AFC";
shapes = (
{
closed = 1;
nodes = (
(458,0,l),
(458,1520,ls),
(458,1716,o),
(608,1850,o),
(814,1850,cs),
(1032,1850,o),
(1168,1700,o),
(1168,1510,cs),
(1168,1326,o),
(1042,1154,o),
(842,1154,cs),
(716,1154,l),
(716,926,l),
(894,926,ls),
(1136,926,o),
(1288,774,o),
(1288,566,cs),
(1288,366,o),
(1150,226,o),
(934,226,cs),
(708,226,l),
(708,0,l),
(934,0,ls),
(1294,0,o),
(1532,238,o),
(1532,564,cs),
(1532,850,o),
(1348,1038,o),
(1088,1064,c),
(1088,1084,l),
(1280,1150,o),
(1412,1314,o),
(1412,1546,cs),
(1412,1876,o),
(1152,2076,o),
(810,2076,cs),
(458,2076,o),
(214,1866,o),
(214,1524,cs),
(214,0,l)
);
}
);
width = 1658.08302;
},
{
layerId = "CD0E3B44-F66A-4791-B84C-A1128DC61275";
shapes = (
{
closed = 1;
nodes = (
(470,0,l),
(470,1520,ls),
(470,1716,o),
(620,1850,o),
(826,1850,cs),
(1044,1850,o),
(1180,1700,o),
(1180,1510,cs),
(1180,1326,o),
(1054,1154,o),
(854,1154,cs),
(728,1154,l),
(728,926,l),
(906,926,ls),
(1148,926,o),
(1300,774,o),
(1300,566,cs),
(1300,366,o),
(1162,226,o),
(946,226,cs),
(720,226,l),
(720,0,l),
(946,0,ls),
(1306,0,o),
(1544,238,o),
(1544,564,cs),
(1544,850,o),
(1360,1038,o),
(1100,1064,c),
(1100,1084,l),
(1292,1150,o),
(1424,1314,o),
(1424,1546,cs),
(1424,1876,o),
(1164,2076,o),
(822,2076,cs),
(470,2076,o),
(226,1866,o),
(226,1524,cs),
(226,0,l)
);
}
);
width = 1682;
}
);
metricLeft = B;
metricRight = B;
unicode = 223;
userData = {
"interface.width-adjustments" = (
-16
);
};
}
{
glyphname = deltaturn;
layers = (
{
background = {
shapes = (
{
closed = 1;
nodes = (
(1628,-264,l),
(1560,-200,o),
(1324,40,o),
(1220,116,c),
(1240,116,o),
(1272,116,o),
(1272,116,cs),
(1540,168,o),
(1796,428,o),
(1796,836,cs),
(1796,864,ls),
(1796,1240,o),
(1524,1516,o),
(1032,1516,cs),
(536,1516,o),
(268,1204,o),
(268,784,cs),
(268,756,ls),
(268,468,o),
(456,232,o),
(724,32,cs),
(852,-64,o),
(916,-76,o),
(964,-104,c),
(408,-104,l),
(408,-516,l),
(1628,-516,l)
);
},
{
closed = 1;
nodes = (
(1280,532,o),
(1224,360,o),
(1036,360,cs),
(1020,360,o),
(1004,360,o),
(988,368,c),
(876,424,o),
(784,556,o),
(784,756,cs),
(784,784,ls),
(784,952,o),
(828,1104,o),
(1032,1104,cs),
(1252,1104,o),
(1280,928,o),
(1280,784,cs),
(1280,756,l)
);
}
);
};
layerId = "5C20EF92-B63D-42A8-8878-93C2863E0093";
shapes = (
{
closed = 1;
nodes = (
(1628,-264,l),
(1560,-200,o),
(1324,40,o),
(1220,116,c),
(1240,116,o),
(1272,116,o),
(1272,116,cs),
(1540,168,o),
(1796,428,o),
(1796,836,cs),
(1796,864,ls),
(1796,1280,o),
(1524,1556,o),
(1032,1556,cs),
(536,1556,o),
(268,1244,o),
(268,784,cs),
(268,756,ls),
(268,468,o),
(456,232,o),
(724,32,cs),
(852,-64,o),
(916,-76,o),
(964,-104,c),
(408,-104,l),
(408,-516,l),
(1628,-516,l)
);
},
{
closed = 1;
nodes = (
(1280,532,o),
(1224,360,o),
(1036,360,cs),
(1020,360,o),
(1004,360,o),
(988,368,c),
(876,424,o),
(784,556,o),
(784,756,cs),
(784,784,ls),
(784,992,o),
(828,1144,o),
(1032,1144,cs),
(1252,1144,o),
(1280,968,o),
(1280,784,cs),
(1280,756,l)
);
}
);
width = 2060;
},
{
background = {
shapes = (
{
closed = 1;
nodes = (
(1060,-472,l),
(860,-250,o),
(653,-30,o),
(484,142,c),
(551,130,o),
(608,124,o),
(656,124,cs),
(1003,124,o),
(1252,412,o),
(1252,812,cs),
(1252,820,ls),
(1252,1237,o),
(1013,1516,o),
(656,1516,cs),
(298,1516,o),
(60,1238,o),
(60,820,cs),
(60,814,ls),
(60,585,o),
(161,381,o),
(392,144,cs),
(595,-64,o),
(780,-258,o),
(962,-454,c),
(230,-452,l),
(230,-516,l),
(1060,-516,l)
);
},
{
closed = 1;
nodes = (
(1188,444,o),
(966,188,o),
(646,188,cs),
(577,188,o),
(502,199,o),
(404,224,c),
(206,442,o),
(124,613,o),
(124,814,cs),
(124,820,ls),
(124,1200,o),
(336,1452,o),
(656,1452,cs),
(978,1452,o),
(1188,1202,o),
(1188,820,cs),
(1188,812,ls)
);
}
);
};
layerId = "B1F27B51-9973-4381-9301-4FE46FE1CA59";
shapes = (
{
closed = 1;
nodes = (
(1028,-472,l),
(828,-250,o),
(621,-30,o),
(452,142,c),
(519,130,o),
(576,124,o),
(624,124,cs),
(971,124,o),
(1220,412,o),
(1220,812,cs),
(1220,824,ls),
(1220,1281,o),
(981,1560,o),
(624,1560,cs),
(268,1560,o),
(28,1283,o),
(28,824,cs),
(28,814,ls),
(28,585,o),
(129,381,o),
(360,144,cs),
(563,-64,o),
(748,-258,o),
(930,-454,c),
(198,-452,l),
(198,-516,l),
(1028,-516,l)
);
},
{
closed = 1;
nodes = (
(1156,444,o),
(934,188,o),
(614,188,cs),
(545,188,o),
(470,199,o),
(372,224,c),
(174,442,o),
(92,613,o),
(92,814,cs),
(92,824,ls),
(92,1244,o),
(304,1496,o),
(624,1496,cs),
(948,1496,o),
(1156,1246,o),
(1156,824,cs),
(1156,812,ls)
);
}
);
width = 1248;
},
{
associatedMasterId = "CD0E3B44-F66A-4791-B84C-A1128DC61275";
layerId = "DCE225BB-CA6E-4258-9AAF-8401C2244049";
shapes = (
{
closed = 1;
nodes = (
(1214,-350,l),
(1084,-200,o),
(898,-46,o),
(740,100,c),
(760,100,o),
(760,100,o),
(788,104,cs),
(1176,152,o),
(1406,428,o),
(1406,758,cs),
(1406,786,ls),
(1406,1240,o),
(1156,1556,o),
(734,1556,cs),
(314,1556,o),
(68,1240,o),
(68,784,cs),
(68,756,ls),
(68,444,o),
(276,208,o),
(572,-46,cs),
(660,-118,o),
(806,-256,o),
(838,-300,c),
(232,-300,l),
(232,-516,l),
(1214,-516,l)
);
},
{
closed = 1;
nodes = (
(1124,500,o),
(998,274,o),
(712,274,cs),
(664,274,o),
(628,278,o),
(594,290,c),
(466,374,o),
(346,540,o),
(346,756,cs),
(346,784,ls),
(346,1098,o),
(464,1332,o),
(734,1332,cs),
(1010,1332,o),
(1124,1096,o),
(1124,784,cs),
(1124,756,l)
);
}
);
width = 1469.63774;
},
{
layerId = "CD0E3B44-F66A-4791-B84C-A1128DC61275";
shapes = (
{
closed = 1;
nodes = (
(1220,-350,l),
(1090,-200,o),
(904,-46,o),
(746,100,c),
(766,100,o),
(766,100,o),
(794,104,cs),
(1182,152,o),
(1412,428,o),
(1412,758,cs),
(1412,786,ls),
(1412,1240,o),
(1162,1556,o),
(740,1556,cs),
(320,1556,o),
(74,1240,o),
(74,784,cs),
(74,756,ls),
(74,444,o),
(282,208,o),
(578,-46,cs),
(666,-118,o),
(812,-256,o),
(844,-300,c),
(238,-300,l),
(238,-516,l),
(1220,-516,l)
);
},
{
closed = 1;
nodes = (
(1130,500,o),
(1004,274,o),
(718,274,cs),
(670,274,o),
(634,278,o),
(600,290,c),
(472,374,o),
(352,540,o),
(352,756,cs),
(352,784,ls),
(352,1098,o),
(470,1332,o),
(740,1332,cs),
(1016,1332,o),
(1130,1096,o),
(1130,784,cs),
(1130,756,l)
);
}
);
width = 1482;
}
);
unicode = 397;
userData = {
interface.gridadjust.original = "{'width': 1602, 'leftMargin': 133, 'rightMargin': 136}";
"interface.width-adjustments" = (
-16
);
};
}
{
glyphname = Phook;
kernLeft = B;
kernRight = P;
layers = (
{
layerId = "5C20EF92-B63D-42A8-8878-93C2863E0093";
shapes = (
{
closed = 1;
nodes = (
(564,1344,ls),
(562,1464,o),
(610,1604,o),
(780,1604,cs),
(1144,1604,l,{
name = hr00;
}),
(1144,2048,l),
(780,2048,ls),
(350,2048,o),
(74,1828,o),
(76,1440,cs),
(76,1196,l),
(564,1196,l)
);
},
{
pos = (680,0);
ref = P;
}
);
width = 2528;
},
{
layerId = "B1F27B51-9973-4381-9301-4FE46FE1CA59";
shapes = (
{
closed = 1;
nodes = (
(204,1724,ls),
(204,1912,o),
(263,1984,o),
(416,1984,cs),
(592,1984,l,{
name = hr00;
}),
(592,2048,l),
(412,2048,ls),
(236,2048,o),
(141,1947,o),
(140,1760,cs),
(140,1688,l),
(204,1688,l)
);
},
{
alignment = -1;
pos = (164,0);
ref = P;
}
);
width = 1808;
},
{
associatedMasterId = "B1F27B51-9973-4381-9301-4FE46FE1CA59";
background = {
shapes = (
{
closed = 1;
nodes = (
(576,2048,l),
(476,2048,ls),
(312,2048,o),
(244,1888,o),
(244,1760,cs),
(244,1688,l),
(308,1688,l),
(308,1804,ls),
(308,1936,o),
(328,1984,o),
(484,1984,cs),
(576,1984,l,{
name = hr00;
})
);
}
);
};
layerId = "EAD41403-23A7-4556-BD97-FF67B573FEAA";
name = "Nov 25 18, 15:04";
shapes = (
{
closed = 0;
nodes = (
(576,2016,l),
(480,2016,l),
(308,2016,o),
(224,1932,o),
(224,1760,c),
(224,1688,l)
);
},
{
alignment = -1;
pos = (224,0);
ref = P;
}
);
width = 1940;
},
{
associatedMasterId = "CD0E3B44-F66A-4791-B84C-A1128DC61275";
layerId = "1496843D-7A7A-43AA-AEBD-82FDCF0D5F1F";
shapes = (
{
closed = 1;
nodes = (
(342,1574,ls),
(340,1702,o),
(362,1822,o),
(522,1822,cs),
(722,1822,l),
(722.008,2048,l),
(518,2048,ls),
(250,2048,o),
(102,1864,o),
(102,1636,cs),
(102,1496,l),
(342,1496,l)
);
},
{
alignment = -1;
pos = (434,0);
ref = P;
}
);
width = 2160.04528;
},
{
layerId = "CD0E3B44-F66A-4791-B84C-A1128DC61275";
shapes = (
{
closed = 1;
nodes = (
(354,1574,ls),
(352,1702,o),
(374,1822,o),
(534,1822,cs),
(734,1822,l),
(734,2048,l),
(530,2048,ls),
(262,2048,o),
(114,1864,o),
(114,1636,cs),
(114,1496,l),
(354,1496,l)
);
},
{
alignment = -1;
pos = (436,0);
ref = P;
}
);
width = 2186;
}
);
metricLeft = T;
metricRight = P;
note = "!post:RemoveOverlap";
unicode = 420;
userData = {
interface.gridadjust.original = "{'width': 2072, 'leftMargin': 41, 'rightMargin': 158}";
"interface.width-adjustments" = (
-16
);
};
}
{
glyphname = tpalatalhook;
kernLeft = t;
kernRight = t;
layers = (
{
layerId = "5C20EF92-B63D-42A8-8878-93C2863E0093";
shapes = (
{
closed = 1;
nodes = (
(756,-48,ls),
(756,-196,o),
(599,-220,o),
(504,-220,cs),
(451,-220,o),
(415,-216,o),
(376,-212,c),
(376,-548,l),
(451,-564,o),
(507,-572,o),
(584,-572,cs),
(907,-572,o),
(1096,-384,o),
(1096,-48,cs),
(1096,440,l),
(756,368,l)
);
},
{
ref = t;
}
);
width = 1160;
},
{
layerId = "B1F27B51-9973-4381-9301-4FE46FE1CA59";
shapes = (
{
closed = 1;
nodes = (
(748,-232,ls),
(748,-420,o),
(676,-508,o),
(534,-508,cs),
(499,-508,o),
(466,-503,o),
(440,-496,c),
(440,-554,l),
(464,-566,o),
(500,-572,o),
(540,-572,cs),
(714,-572,o),
(812,-454,o),
(812,-232,cs),
(812,64,l),
(748,40,l)
);
},
{
alignment = -1;
ref = t;
}
);
width = 956;
},
{
associatedMasterId = "CD0E3B44-F66A-4791-B84C-A1128DC61275";
layerId = "2ED1598E-1508-45BF-B7AB-3225C77DC79B";
shapes = (
{
closed = 1;
nodes = (
(654,-162,ls),
(654,-320,o),
(556,-368,o),
(430,-368,cs),
(400,-368,o),
(372,-364,o),
(352,-360,c),
(352,-564,l),
(388,-576,o),
(442,-576,o),
(490,-576,cs),
(716,-576,o),
(892,-426,o),
(892,-162,cs),
(892,238,l),
(654,188,l)
);
},
{
alignment = -1;
ref = t;
}
);
width = 979.33585;
},
{
layerId = "CD0E3B44-F66A-4791-B84C-A1128DC61275";
shapes = (
{
closed = 1;
nodes = (
(664,-162,ls),
(664,-320,o),
(566,-368,o),
(440,-368,cs),
(410,-368,o),
(382,-364,o),
(362,-360,c),
(362,-564,l),
(398,-576,o),
(452,-576,o),
(500,-576,cs),
(726,-576,o),
(902,-426,o),
(902,-162,cs),
(902,238,l),
(664,188,l)
);
},
{
alignment = -1;
ref = t;
}
);
width = 998;
}
);
metricLeft = t;
metricRight = t;
unicode = 427;
userData = {
interface.gridadjust.original = "{'width': 924.0, 'leftMargin': 0, 'rightMargin': 96.0}";
"interface.width-adjustments" = (
-16
);
};
}
{
glyphname = Thook;
kernLeft = T;
kernRight = T;
layers = (
{
background = {
shapes = (
{
pos = (88,0);
ref = T;
}
);
};
layerId = "5C20EF92-B63D-42A8-8878-93C2863E0093";
shapes = (
{
closed = 1;
nodes = (
(740,2048,ls),
(302,2048,o),
(76,1820,o),
(76,1436,cs),
(76,1188,l),
(524,1188,l),
(524,1336,ls),
(524,1464,o),
(558,1600,o),
(740,1600,cs),
(1052,1600,l),
(1052,2048,l)
);
},
{
closed = 1;
nodes = (
(764,2048,l),
(764,1600,l),
(780,1600,l),
(780,0,l),
(1328,0,l),
(1328,1600,l),
(1944,1600,l),
(1944,2048,l)
);
}
);
width = 2020;
},
{
layerId = "B1F27B51-9973-4381-9301-4FE46FE1CA59";
shapes = (
{
closed = 1;
nodes = (
(412,2048,ls),
(236,2048,o),
(141,1947,o),
(140,1760,cs),
(140,1688,l),
(204,1688,l),
(204,1724,ls),
(204,1912,o),
(263,1984,o),
(416,1984,cs),
(592,1984,l,{
name = hr00;
}),
(592,2048,l)
);
},
{
closed = 1;
nodes = (
(480,2048,l),
(480,1984,l),
(800,1984,l),
(800,0,l),
(864,0,l),
(864,1984,l),
(1524,1984,l),
(1524,2048,l)
);
}
);
width = 1664;
},
{
associatedMasterId = "CD0E3B44-F66A-4791-B84C-A1128DC61275";
layerId = "5458E0FC-A383-4DE2-92E9-C4BE28A68998";
shapes = (
{
closed = 1;
nodes = (
(518,2048,ls),
(260,2048,o),
(102,1882,o),
(102,1638,cs),
(102,1516,l),
(332,1516,l),
(332,1594,ls),
(332,1710,o),
(376,1822,o),
(518,1822,cs),
(986,1822,l),
(986,2048,l)
);
},
{
closed = 1;
nodes = (
(666,2048,l),
(666,1822,l),
(858,1822,l),
(858,0,l),
(1112,0,l),
(1112,1822,l),
(1756,1822,l),
(1756,2048,l)
);
}
);
width = 1858.84528;
},
{
layerId = "CD0E3B44-F66A-4791-B84C-A1128DC61275";
shapes = (
{
closed = 1;
nodes = (
(530,2048,ls),
(272,2048,o),
(114,1882,o),
(114,1638,cs),
(114,1516,l),
(344,1516,l),
(344,1594,ls),
(344,1710,o),
(388,1822,o),
(530,1822,cs),
(998,1822,l),
(998,2048,l)
);
},
{
closed = 1;
nodes = (
(678,2048,l),
(678,1822,l),
(870,1822,l),
(870,0,l),
(1124,0,l),
(1124,1822,l),
(1768,1822,l),
(1768,2048,l)
);
}
);
width = 1882;
}
);
metricLeft = T;
metricRight = T;
note = "!post:RemoveOverlap";
unicode = 428;
userData = {
interface.gridadjust.original = "{'width': 1772, 'leftMargin': 41, 'rightMargin': 63}";
"interface.width-adjustments" = (
-16
);
};
}
{
glyphname = yhook;
kernLeft = v;
kernRight = f;
layers = (
{
background = {
shapes = (
{
ref = y;
}
);
};
layerId = "5C20EF92-B63D-42A8-8878-93C2863E0093";
shapes = (
{
closed = 1;
nodes = (
(862,-576,o),
(1069,-383,o),
(1148,-128,cs),
(1610,1362,ls),
(1624,1404,o),
(1644,1429,o),
(1672,1442,cs),
(1693,1452,o),
(1724,1453,o),
(1770,1444,c),
(1854,1878,l),
(1777,1897,o),
(1681,1908,o),
(1584,1908,cs),
(1333,1908,o),
(1185,1751,o),
(1112,1468,cs),
(856,472,l),
(840,472,l),
(592,1536,l),
(16,1536,l),
(556,-68,l),
(544,-96,ls),
(507,-181,o),
(400,-178,o),
(264,-130,c),
(144,-522,l),
(230,-556,o),
(349,-576,o),
(476,-576,cs)
);
}
);
width = 1806;
},
{
background = {
shapes = (
{
ref = y;
}
);
};
layerId = "B1F27B51-9973-4381-9301-4FE46FE1CA59";
shapes = (
{
closed = 1;
nodes = (
(460,-576,o),
(581,-473,o),
(650,-280,cs),
(1296,1536,ls),
(1368,1738,o),
(1424,1796,o),
(1542,1796,cs),
(1590,1796,o),
(1634,1790,o),
(1664,1776,c),
(1664,1840,l),
(1636,1854,o),
(1592,1860,o),
(1546,1860,cs),
(1394,1860,o),
(1316,1783,o),
(1228,1536,cs),
(708,80,l),
(700,80,l),
(180,1536,l),
(112,1536,l),
(672,-28,l),
(590,-256,ls),
(507,-486,o),
(360,-565,o),
(162,-480,c),
(138,-536,l),
(198,-562,o),
(258,-576,o),
(310,-576,cs)
);
}
);
width = 1472;
},
{
associatedMasterId = "CD0E3B44-F66A-4791-B84C-A1128DC61275";
layerId = "D57834B4-5B70-4A8B-894B-252D7247ABE5";
shapes = (
{
closed = 1;
nodes = (
(556,-576,o),
(708,-462,o),
(796,-222,cs),
(1380,1360,ls),
(1456,1580,o),
(1512,1682,o),
(1634,1682,cs),
(1690,1682,o),
(1748,1658,o),
(1800,1632,c),
(1866,1802,l),
(1796,1858,o),
(1702,1896,o),
(1600,1896,cs),
(1350,1896,o),
(1228,1670,o),
(1150,1444,cs),
(762,316,l),
(746,316,l),
(326,1536,l),
(62,1536,l),
(630,-10,l),
(586,-128,ls),
(502,-358,o),
(396,-378,o),
(224,-334,c),
(162,-548,l),
(188,-560,o),
(258,-576,o),
(338,-576,cs)
);
}
);
width = 1707.27547;
},
{
layerId = "CD0E3B44-F66A-4791-B84C-A1128DC61275";
shapes = (
{
closed = 1;
nodes = (
(568,-576,o),
(720,-462,o),
(808,-222,cs),
(1392,1360,ls),
(1468,1580,o),
(1524,1682,o),
(1646,1682,cs),
(1702,1682,o),
(1760,1658,o),
(1812,1632,c),
(1878,1802,l),
(1808,1858,o),
(1714,1896,o),
(1612,1896,cs),
(1362,1896,o),
(1240,1670,o),
(1162,1444,cs),
(774,316,l),
(758,316,l),
(338,1536,l),
(74,1536,l),
(642,-10,l),
(598,-128,ls),
(514,-358,o),
(408,-378,o),
(236,-334,c),
(174,-548,l),
(200,-560,o),
(270,-576,o),
(350,-576,cs)
);
}
);
width = 1728;
}
);
metricLeft = v;
unicode = 436;
userData = {
interface.gridadjust.original = "{'width': 1672.0, 'leftMargin': 28, 'rightMargin': -41.0}";
"interface.width-adjustments" = (
-16
);
};
}
{
glyphname = gamma1;
kernLeft = v;
kernRight = v;
layers = (
{
background = {
shapes = (
{
closed = 1;
nodes = (
(1298,-600,o),
(1578,-492,o),
(1580,-212,cs),
(1578,-132,o),
(1534,0,o),
(1444,164,cs),
(708,1468,l),
(156,1468,l),
(920,168,ls),
(998,32,o),
(1050,-64,o),
(1052,-156,cs),
(1050,-216,o),
(1054,-260,o),
(1000,-260,cs),
(942,-260,o),
(942,-208,o),
(944,-156,cs),
(942,-72,o),
(1002,12,o),
(1096,172,cs),
(1844,1468,l),
(1296,1468,l),
(524,144,ls),
(438,0,o),
(402,-128,o),
(404,-212,cs),
(402,-492,o),
(698,-600,o),
(1000,-600,cs)
);
}
);
};
layerId = "5C20EF92-B63D-42A8-8878-93C2863E0093";
shapes = (
{
closed = 1;
nodes = (
(1360,-608,o),
(1583,-479,o),
(1580,-206,cs),
(1578,-85,o),
(1538,65,o),
(1444,232,cs),
(708,1536,l),
(156,1536,l),
(920,236,ls),
(994,110,o),
(1052,-57,o),
(1052,-188,cs),
(1052,-252,o),
(1035,-268,o),
(1000,-268,cs),
(950,-268,o),
(942,-240,o),
(942,-188,cs),
(942,-76,o),
(998,71,o),
(1096,240,cs),
(1844,1536,l),
(1296,1536,l),
(524,212,ls),
(437,63,o),
(402,-82,o),
(404,-202,cs),
(407,-479,o),
(636,-608,o),
(1000,-608,cs)
);
}
);
width = 1988;
},
{
background = {
shapes = (
{
closed = 1;
nodes = (
(871,-600,o),
(972,-515,o),
(972,-404,cs),
(972,-334,o),
(927,-213,o),
(784,100,cs),
(130,1536,l),
(60,1536,l),
(704,124,ls),
(842,-177,o),
(908,-351,o),
(908,-412,cs),
(908,-480,o),
(832,-536,o),
(740,-536,cs),
(647,-536,o),
(570,-480,o),
(570,-412,cs),
(570,-359,o),
(621,-228,o),
(772,104,cs),
(1424,1536,l),
(1354,1536,l),
(690,78,ls),
(545,-240,o),
(506,-343,o),
(506,-410,cs),
(506,-516,o),
(609,-600,o),
(740,-600,cs)
);
}
);
};
layerId = "B1F27B51-9973-4381-9301-4FE46FE1CA59";
shapes = (
{
closed = 1;
nodes = (
(839,-608,o),
(940,-523,o),
(940,-408,cs),
(940,-334,o),
(895,-213,o),
(752,100,cs),
(98,1536,l),
(28,1536,l),
(672,124,ls),
(810,-177,o),
(876,-351,o),
(876,-416,cs),
(876,-488,o),
(800,-544,o),
(708,-544,cs),
(615,-544,o),
(538,-488,o),
(538,-416,cs),
(538,-359,o),
(589,-228,o),
(740,104,cs),
(1392,1536,l),
(1322,1536,l),
(658,78,ls),
(513,-240,o),
(474,-343,o),
(474,-414,cs),
(474,-524,o),
(577,-608,o),
(708,-608,cs)
);
}
);
width = 1426;
},
{
associatedMasterId = "CD0E3B44-F66A-4791-B84C-A1128DC61275";
layerId = "0D43A589-77E4-4292-854E-2B56781A92E5";
shapes = (
{
closed = 1;
nodes = (
(1044,-608,o),
(1182,-488,o),
(1182,-272,cs),
(1182,-220,o),
(1172,-134,o),
(1124,-38,cs),
(332,1536,l),
(66,1536,l),
(756,142,ls),
(870,-90,o),
(926,-188,o),
(926,-272,cs),
(926,-330,o),
(880,-378,o),
(808,-378,cs),
(736,-378,o),
(690,-334,o),
(690,-272,cs),
(690,-186,o),
(762,-84,o),
(866,130,cs),
(1554,1536,l),
(1288,1536,l),
(500,-38,ls),
(458,-120,o),
(426,-208,o),
(426,-272,cs),
(426,-488,o),
(572,-608,o),
(808,-608,cs)
);
}
);
width = 1620.04528;
},
{
layerId = "CD0E3B44-F66A-4791-B84C-A1128DC61275";
shapes = (
{
closed = 1;
nodes = (
(1052,-608,o),
(1190,-488,o),
(1190,-272,cs),
(1190,-220,o),
(1180,-134,o),
(1132,-38,cs),
(340,1536,l),
(74,1536,l),
(764,142,ls),
(878,-90,o),
(934,-188,o),
(934,-272,cs),
(934,-330,o),
(888,-378,o),
(816,-378,cs),
(744,-378,o),
(698,-334,o),
(698,-272,cs),
(698,-186,o),
(770,-84,o),
(874,130,cs),
(1562,1536,l),
(1296,1536,l),
(508,-38,ls),
(466,-120,o),
(434,-208,o),
(434,-272,cs),
(434,-488,o),
(580,-608,o),
(816,-608,cs)
);
}
);
width = 1636;
}
);
unicode = 611;
userData = {
interface.gridadjust.original = "{'width': 1566, 'leftMargin': 41, 'rightMargin': 41}";
"interface.width-adjustments" = (
-16
);
};
}
{
glyphname = eshshortrev;
layers = (
{
guides = (
{
pos = (-136,1516);
},
{
pos = (-136,-600);
}
);
layerId = "5C20EF92-B63D-42A8-8878-93C2863E0093";
shapes = (
{
closed = 1;
nodes = (
(972,1012,ls),
(972,1360,o),
(735,1556,o),
(360,1556,cs),
(279,1556,o),
(199,1544,o),
(124,1528,c),
(120,1132,l),
(151,1144,o),
(179,1148,o),
(236,1148,cs),
(371,1148,o),
(452,1100,o),
(452,1012,cs),
(452,0,l),
(972,0,l,{
name = hr00;
})
);
},
{
closed = 1;
nodes = (
(452,-64,ls),
(452,-420,o),
(687,-608,o),
(1056,-608,cs),
(1155,-608,o),
(1231,-592,o),
(1296,-576,c),
(1304,-188,l),
(1267,-196,o),
(1239,-200,o),
(1180,-200,cs),
(1047,-200,o),
(972,-156,o),
(972,-64,cs),
(972,956,l),
(452,956,l)
);
}
);
width = 1420;
},
{
layerId = "B1F27B51-9973-4381-9301-4FE46FE1CA59";
shapes = (
{
closed = 1;
nodes = (
(542,1208,ls),
(542,1410,o),
(392,1560,o),
(190,1560,cs),
(140,1560,o),
(84,1552,o),
(48,1538,c),
(48,1478,l),
(96,1490,o),
(150,1496,o),
(190,1496,cs),
(356,1496,o),
(478,1378,o),
(478,1208,cs),
(478,154,l),
(542,154,l)
);
},
{
closed = 1;
nodes = (
(478,-258,ls),
(478,-460,o),
(628,-610,o),
(834,-610,cs),
(872,-610,o),
(934,-606,o),
(982,-594,c),
(982,-530,l),
(934,-540,o),
(872,-546,o),
(836,-546,cs),
(664,-546,o),
(542,-424,o),
(542,-258,cs),
(542,724,l),
(478,724,l)
);
}
);
width = 1020;
},
{
associatedMasterId = "CD0E3B44-F66A-4791-B84C-A1128DC61275";
layerId = "7CF02C9A-F6E5-43F9-9F0D-AEE6CF175459";
shapes = (
{
closed = 1;
nodes = (
(742,1054,ls),
(742,1380,o),
(551.998,1556,o),
(238,1556,cs),
(182,1556,o),
(122,1548,o),
(64,1532,c),
(76,1312,l),
(112,1320,o),
(164,1324,o),
(212,1324,cs),
(372,1324,o),
(464,1224,o),
(464,1054,cs),
(464,0,l),
(742,0,l)
);
},
{
closed = 1;
nodes = (
(464,-106,ls),
(464,-432,o),
(652,-608,o),
(966,-608,cs),
(1022,-608,o),
(1084,-600,o),
(1144,-588,c),
(1128,-364,l),
(1092,-372,o),
(1040,-376,o),
(992,-376,cs),
(836,-376,o),
(742,-280,o),
(742,-106,cs),
(742,952,l),
(464,952,l)
);
}
);
width = 1204.21887;
},
{
layerId = "CD0E3B44-F66A-4791-B84C-A1128DC61275";
shapes = (
{
closed = 1;
nodes = (
(752,1054,ls),
(752,1380,o),
(562,1556,o),
(248,1556,cs),
(192,1556,o),
(132,1548,o),
(74,1532,c),
(86,1312,l),
(122,1320,o),
(174,1324,o),
(222,1324,cs),
(382,1324,o),
(474,1224,o),
(474,1054,cs),
(474,0,l),
(752,0,l)
);
},
{
closed = 1;
nodes = (
(474,-106,ls),
(474,-432,o),
(662,-608,o),
(976,-608,cs),
(1032,-608,o),
(1094,-600,o),
(1154,-588,c),
(1138,-364,l),
(1102,-372,o),
(1050,-376,o),
(1002,-376,cs),
(846,-376,o),
(752,-280,o),
(752,-106,cs),
(752,952,l),
(474,952,l)
);
}
);
width = 1224;
}
);
unicode = 645;
userData = {
interface.gridadjust.original = "{'width': 1158, 'leftMargin': 41, 'rightMargin': 41}";
"interface.width-adjustments" = (
-16
);
};
}
{
glyphname = glottalstopinv;
layers = (
{
guides = (
{
pos = (-136,-28);
}
);
layerId = "5C20EF92-B63D-42A8-8878-93C2863E0093";
shapes = (
{
closed = 1;
nodes = (
(1025,1324,o),
(1025,1136,o),
(1024,976,cs),
(1024,732,ls),
(1025,588,o),
(1025,388,o),
(820,388,cs),
(681,388,o),
(621,476,o),
(624,592,c),
(140,592,l),
(137,184,o),
(421,-28,o),
(808,-28,cs),
(1293,-28,o),
(1545,292,o),
(1544,732,cs),
(1544,976,ls),
(1545,1420,o),
(1293,1736,o),
(804,1736,cs),
(616,1736,l),
(616,1324,l),
(820,1324,l)
);
},
{
closed = 1;
nodes = (
(564,2048,l),
(564,1324,l),
(1084,1324,l),
(1084,2048,l)
);
}
);
width = 1684;
},
{
background = {
shapes = (
{
closed = 1;
nodes = (
(1023,1418,o),
(1228,1232,o),
(1228,844,cs),
(1228,628,ls),
(1228,266,o),
(1048,66,o),
(720,66,cs),
(405,66,o),
(198,239,o),
(184,512,c),
(120,512,l),
(140,199,o),
(373,0,o),
(720,0,cs),
(1080,0,o),
(1292,232,o),
(1292,628,cs),
(1292,844,ls),
(1292,1263,o),
(1059,1480,o),
(612,1478,c),
(588,1478,l),
(588,1416,l,{
name = hr00;
}),
(600,1416,l)
);
},
{
closed = 1;
nodes = (
(576,2140,l),
(576,1416,l),
(640,1416,l),
(640,2140,l)
);
}
);
};
layerId = "B1F27B51-9973-4381-9301-4FE46FE1CA59";
shapes = (
{
closed = 1;
nodes = (
(991,1418,o),
(1196,1232,o),
(1196,844,cs),
(1196,628,ls),
(1196,266,o),
(1016,66,o),
(688,66,cs),
(373,66,o),
(166,239,o),
(152,512,c),
(88,512,l),
(108,199,o),
(341,0,o),
(688,0,cs),
(1048,0,o),
(1260,232,o),
(1260,628,cs),
(1260,844,ls),
(1260,1263,o),
(1027,1480,o),
(580,1478,c),
(556,1478,l),
(556,1416,l,{
name = hr00;
}),
(568,1416,l)
);
},
{
closed = 1;
nodes = (
(544,2048,l),
(544,1416,l),
(608,1416,l),
(608,2048,l)
);
}
);
width = 1350;
},
{
associatedMasterId = "CD0E3B44-F66A-4791-B84C-A1128DC61275";
layerId = "B2C7A26B-7429-4A00-B664-4C207463133A";
shapes = (
{
closed = 1;
nodes = (
(1004,1364,o),
(1086,1094,o),
(1086,844,cs),
(1086,716,ls),
(1086,470,o),
(1000,196,o),
(694,196,cs),
(496,196,o),
(378,344,o),
(362,514,c),
(96,514,l),
(112,212,o),
(342,-28,o),
(694,-28,cs),
(1150,-28,o),
(1364,320,o),
(1364,716,cs),
(1364,844,ls),
(1364,1240,o),
(1150,1588,o),
(694,1588,cs),
(632,1588,l),
(632,1364,l),
(694,1364,l)
);
},
{
closed = 1;
nodes = (
(568,2048,l),
(568,1364,l),
(850,1364,l),
(850,2048,l)
);
}
);
width = 1460.41509;
},
{
layerId = "CD0E3B44-F66A-4791-B84C-A1128DC61275";
shapes = (
{
closed = 1;
nodes = (
(1014,1364,o),
(1096,1094,o),
(1096,844,cs),
(1096,716,ls),
(1096,470,o),
(1010,196,o),
(704,196,cs),
(506,196,o),
(388,344,o),
(372,514,c),
(106,514,l),
(122,212,o),
(352,-28,o),
(704,-28,cs),
(1160,-28,o),
(1374,320,o),
(1374,716,cs),
(1374,844,ls),
(1374,1240,o),
(1160,1588,o),
(704,1588,cs),
(642,1588,l),
(642,1364,l),
(704,1364,l)
);
},
{
closed = 1;
nodes = (
(578,2048,l),
(578,1364,l),
(860,1364,l),
(860,2048,l)
);
}
);
width = 1480;
}
);
unicode = 662;
userData = {
interface.gridadjust.original = "{'width': 1480, 'leftMargin': 88, 'rightMargin': 127}";
"interface.width-adjustments" = (
-16
);
};
}
{
glyphname = epsilonclosed;
kernLeft = epsilongreek;
kernRight = e;
layers = (
{
guides = (
{
pos = (-304,612);
},
{
pos = (784,952);
}
);
layerId = "5C20EF92-B63D-42A8-8878-93C2863E0093";
shapes = (
{
closed = 1;
nodes = (
(1197,-28,o),
(1585,204,o),
(1584,784,c),
(1068,784,l),
(1069,460,o),
(965,352,o),
(824,352,cs),
(693,352,o),
(661,420,o),
(660,480,cs),
(661,588,o),
(737,620,o),
(848,620,cs),
(864,620,l),
(864,808,l),
(712,808,l),
(341,808,o),
(141,672,o),
(140,420,cs),
(141,140,o),
(449,-28,o),
(864,-28,cs)
);
},
{
closed = 1;
nodes = (
(864,752,l),
(864,944,l),
(848,944,ls),
(737,944,o),
(689,996,o),
(688,1064,cs),
(689,1116,o),
(709,1180,o),
(828,1180,cs),
(921,1180,o),
(1069,1132,o),
(1068,784,c),
(1584,784,l),
(1585,1340,o),
(1221,1556,o),
(864,1556,cs),
(449,1556,o),
(169,1404,o),
(168,1120,cs),
(169,916,o),
(385,752,o),
(712,752,cs)
);
}
);
width = 1688;
},
{
layerId = "B1F27B51-9973-4381-9301-4FE46FE1CA59";
shapes = (
{
closed = 1;
nodes = (
(1041,-28,o),
(1240,244,o),
(1240,772,c),
(1176,772,l),
(1176,279,o),
(1004,36,o),
(654,36,cs),
(364,36,o),
(173,176,o),
(172,388,cs),
(171,604,o),
(357,762,o),
(614,762,cs),
(766,762,l),
(766,826,l),
(658,826,l),
(326,825,o),
(108,653,o),
(108,392,cs),
(108,139,o),
(325,-28,o),
(654,-28,cs)
);
},
{
closed = 1;
nodes = (
(766,762,l),
(766,826,l),
(614,826,ls),
(352,826,o),
(201,945,o),
(204,1148,cs),
(207,1359,o),
(380,1492,o),
(650,1492,cs),
(1003,1492,o),
(1176,1253,o),
(1176,768,c),
(1240,768,l),
(1240,1285,o),
(1037,1556,o),
(650,1556,cs),
(343,1556,o),
(141,1391,o),
(140,1140,cs),
(139,896,o),
(325,760,o),
(658,762,c)
);
}
);
width = 1328;
},
{
associatedMasterId = "CD0E3B44-F66A-4791-B84C-A1128DC61275";
layerId = "FE1DF81D-15E1-48E9-A094-20D2BEBB2EE7";
shapes = (
{
closed = 1;
nodes = (
(1186,-28,o),
(1428,280,o),
(1428,792,c),
(1184,792,l),
(1184,418,o),
(1038,192,o),
(734,192,cs),
(512,192,o),
(366,288,o),
(366,430,cs),
(366,574,o),
(502,686,o),
(714,686,cs),
(894,686,l),
(894,800,l),
(688,800,l),
(212,800,o),
(112,582,o),
(112,416,cs),
(112,150,o),
(376,-28,o),
(734,-28,cs)
);
},
{
closed = 1;
nodes = (
(894,736,l),
(894,894,l),
(714,894,ls),
(494,894,o),
(386,976,o),
(386,1104,cs),
(386,1242,o),
(518,1340,o),
(718,1340,cs),
(1030,1340,o),
(1184,1134,o),
(1184,792,c),
(1428,792,l),
(1428,1268,o),
(1186,1556,o),
(730,1556,cs),
(380,1556,o),
(140,1388,o),
(140,1104,cs),
(140,940,o),
(224,736,o),
(688,736,c)
);
}
);
width = 1522.9434;
},
{
layerId = "CD0E3B44-F66A-4791-B84C-A1128DC61275";
shapes = (
{
closed = 1;
nodes = (
(1196,-28,o),
(1438,280,o),
(1438,792,c),
(1194,792,l),
(1194,418,o),
(1048,192,o),
(744,192,cs),
(522,192,o),
(376,288,o),
(376,430,cs),
(376,574,o),
(512,686,o),
(724,686,cs),
(904,686,l),
(904,800,l),
(698,800,l),
(222,800,o),
(122,582,o),
(122,416,cs),
(122,150,o),
(386,-28,o),
(744,-28,cs)
);
},
{
closed = 1;
nodes = (
(904,736,l),
(904,894,l),
(724,894,ls),
(504,894,o),
(396,976,o),
(396,1104,cs),
(396,1242,o),
(528,1340,o),
(728,1340,cs),
(1040,1340,o),
(1194,1134,o),
(1194,792,c),
(1438,792,l),
(1438,1268,o),
(1196,1556,o),
(740,1556,cs),
(390,1556,o),
(150,1388,o),
(150,1104,cs),
(150,940,o),
(234,736,o),
(698,736,c)
);
}
);
width = 1544;
}
);
unicode = 666;
userData = {
interface.gridadjust.original = "{'width': 1478, 'leftMargin': 135, 'rightMargin': 135}";
"interface.width-adjustments" = (
-16
);
};
}
{
glyphname = dyogh;
kernLeft = c;
layers = (
{
layerId = "5C20EF92-B63D-42A8-8878-93C2863E0093";
shapes = (
{
closed = 1;
nodes = (
(1592,1124,l),
(2160,1124,l),
(1704,644,l),
(1704,356,l),
(1888,356,ls),
(2072,356,o),
(2240,320,o),
(2240,64,cs),
(2240,-108,o),
(2140,-188,o),
(1944,-188,cs),
(1732,-188,o),
(1660,-140,o),
(1600,-68,c),
(1068,-68,l),
(1188,-524,o),
(1576,-608,o),
(1960,-608,cs),
(2428,-608,o),
(2772,-396,o),
(2772,16,cs),
(2772,364,o),
(2580,572,o),
(2248,648,c),
(2744,1188,l),
(2744,1536,l),
(1592,1536,l),
(1592,2048,l),
(1040,2048,l),
(1040,1404,l),
(1024,1404,l),
(968,1536,o),
(812,1556,o),
(692,1556,cs),
(396,1556,o),
(92,1324,o),
(92,768,cs),
(92,232,o),
(376,-20,o),
(696,-20,cs),
(820,-20,o),
(968,-4,o),
(1024,124,c),
(1044,124,l),
(1044,0,l),
(1592,0,l)
);
},
{
closed = 1;
nodes = (
(608,1012,o),
(696,1132,o),
(872,1132,cs),
(1068,1132,o),
(1108,960,o),
(1108,768,cs),
(1108,584,o),
(1076,404,o),
(872,404,cs),
(696,404,o),
(608,524,o),
(608,768,cs)
);
}
);
width = 2884;
},
{
layerId = "B1F27B51-9973-4381-9301-4FE46FE1CA59";
shapes = (
{
closed = 1;
nodes = (
(1292,1472,l),
(2128,1472,l),
(1570,580,l),
(1570,504,l),
(1640,504,ls),
(2102,504,o),
(2344,316,o),
(2344,-28,cs),
(2344,-282,o),
(2146,-544,o),
(1780,-544,cs),
(1524,-544,o),
(1306,-384,o),
(1296,-128,c),
(1232,-128,l),
(1242,-420,o),
(1484,-608,o),
(1780,-608,cs),
(2178,-608,o),
(2408,-324,o),
(2408,-28,cs),
(2408,368,o),
(2122,568,o),
(1638,568,c),
(2204,1472,l),
(2204,1536,l),
(1292,1536,l),
(1292,2048,l),
(1228,2048,l),
(1228,1144,l),
(1220,1144,l),
(1140,1400,o),
(944,1560,o),
(700,1560,cs),
(340,1560,o),
(108,1216,o),
(108,764,cs),
(108,310,o),
(336,-32,o),
(700,-32,cs),
(946,-32,o),
(1136,130,o),
(1220,384,c),
(1228,384,l),
(1228,0,l),
(1292,0,l)
);
},
{
closed = 1;
nodes = (
(172,1180,o),
(376,1496,o),
(700,1496,cs),
(1024,1496,o),
(1228,1180,o),
(1228,764,cs),
(1228,348,o),
(1026,32,o),
(700,32,cs),
(374,32,o),
(172,348,o),
(172,764,cs)
);
}
);
width = 2480;
},
{
associatedMasterId = "CD0E3B44-F66A-4791-B84C-A1128DC61275";
layerId = "456C9EA3-B2BA-412E-A11D-34ADB0D7B857";
shapes = (
{
closed = 1;
nodes = (
(1470,1312,l),
(2182,1312,l),
(1664,602,l),
(1664,384,l),
(1864,384,ls),
(2162,384,o),
(2322,188,o),
(2322,-14,cs),
(2322,-226,o),
(2156,-410,o),
(1896,-410,cs),
(1672,-410,o),
(1508,-284,o),
(1478,-126,c),
(1242,-126,l),
(1296,-482,o),
(1580,-608,o),
(1896,-608,cs),
(2294,-608,o),
(2560,-380,o),
(2560,-12,cs),
(2560,322,o),
(2346,568,o),
(1944,594,c),
(2514,1364,l),
(2510,1536,l),
(1470,1536,l),
(1470,2048,l),
(1226,2048,l),
(1226,1294,l),
(1210,1294,l),
(1158,1376,o),
(1062,1556,o),
(766,1556,cs),
(380,1556,o),
(110,1250,o),
(110,764,cs),
(110,274,o),
(380,-32,o),
(762,-32,cs),
(1054,-32,o),
(1158,148,o),
(1210,234,c),
(1234,234,l),
(1234,0,l),
(1470,0,l)
);
},
{
closed = 1;
nodes = (
(354,1090,o),
(500,1338,o),
(798,1338,cs),
(1084,1338,o),
(1232,1108,o),
(1232,768,cs),
(1232,424,o),
(1080,186,o),
(798,186,cs),
(504,186,o),
(354,442,o),
(354,768,cs)
);
}
);
width = 2633.10189;
},
{
layerId = "CD0E3B44-F66A-4791-B84C-A1128DC61275";
shapes = (
{
closed = 1;
nodes = (
(1482,1312,l),
(2194,1312,l),
(1676,602,l),
(1676,384,l),
(1876,384,ls),
(2174,384,o),
(2334,188,o),
(2334,-14,cs),
(2334,-226,o),
(2168,-410,o),
(1908,-410,cs),
(1684,-410,o),
(1520,-284,o),
(1490,-126,c),
(1254,-126,l),
(1308,-482,o),
(1592,-608,o),
(1908,-608,cs),
(2306,-608,o),
(2572,-380,o),
(2572,-12,cs),
(2572,322,o),
(2358,568,o),
(1956,594,c),
(2526,1364,l),
(2522,1536,l),
(1482,1536,l),
(1482,2048,l),
(1238,2048,l),
(1238,1294,l),
(1222,1294,l),
(1170,1376,o),
(1074,1556,o),
(778,1556,cs),
(392,1556,o),
(122,1250,o),
(122,764,cs),
(122,274,o),
(392,-32,o),
(774,-32,cs),
(1066,-32,o),
(1170,148,o),
(1222,234,c),
(1246,234,l),
(1246,0,l),
(1482,0,l)
);
},
{
closed = 1;
nodes = (
(366,1090,o),
(512,1338,o),
(810,1338,cs),
(1096,1338,o),
(1244,1108,o),
(1244,768,cs),
(1244,424,o),
(1092,186,o),
(810,186,cs),
(516,186,o),
(366,442,o),
(366,768,cs)
);
}
);
width = 2654;
}
);
unicode = 676;
userData = {
interface.gridadjust.original = "{'width': 2593, 'leftMargin': 256, 'rightMargin': 143}";
"interface.width-adjustments" = (
-16
);
};
}
{
glyphname = caron;
layers = (
{
anchors = (
{
name = _top;
pos = (888,1792);
}
);
guides = (
{
pos = (1100,1720);
}
);
layerId = "5C20EF92-B63D-42A8-8878-93C2863E0093";
shapes = (
{
closed = 1;
nodes = (
(236,2188,l),
(236,2176,l),
(696,1720,l),
(1080,1720,l),
(1540,2176,l),
(1540,2188,l),
(1084,2188,l),
(888,1968,l),
(692,2188,l)
);
}
);
width = 1776;
},
{
anchors = (
{
name = _top;
pos = (560,1772);
}
);
layerId = "B1F27B51-9973-4381-9301-4FE46FE1CA59";
shapes = (
{
closed = 1;
nodes = (
(184,2112,l),
(184,2104,l),
(552,1728,l),
(568,1728,l),
(936,2104,l),
(936,2112,l),
(860,2112,l),
(560,1804,l),
(260,2112,l)
);
}
);
width = 1120;
},
{
anchors = (
{
name = _top;
pos = (614,1792);
}
);
associatedMasterId = "CD0E3B44-F66A-4791-B84C-A1128DC61275";
layerId = "20B3ADE2-CAB0-486B-A8B1-9784FBD5F6F0";
shapes = (
{
closed = 1;
nodes = (
(176,2152,l),
(176,2136,l),
(504,1720,l),
(724,1720,l),
(1052,2136,l),
(1052,2152,l),
(822,2152,l),
(614,1874,l),
(406,2152,l)
);
}
);
width = 1228.55849;
},
{
anchors = (
{
name = _top;
pos = (624,1792);
}
);
layerId = "CD0E3B44-F66A-4791-B84C-A1128DC61275";
shapes = (
{
closed = 1;
nodes = (
(186,2152,l),
(186,2136,l),
(514,1720,l),
(734,1720,l),
(1062,2136,l),
(1062,2152,l),
(832,2152,l),
(624,1874,l),
(416,2152,l)
);
}
);
width = 1248;
}
);
unicode = 711;
userData = {
interface.gridadjust.original = "{'width': 1273, 'leftMargin': 194, 'rightMargin': 210}";
"interface.width-adjustments" = (
-16
);
};
}
{
glyphname = verticallinelowmod;
layers = (
{
layerId = "5C20EF92-B63D-42A8-8878-93C2863E0093";
shapes = (
{
closed = 1;
nodes = (
(156,-184,l),
(156,-788,l),
(460,-788,l),
(460,-184,l)
);
}
);
width = 616;
},
{
layerId = "B1F27B51-9973-4381-9301-4FE46FE1CA59";
shapes = (
{
closed = 1;
nodes = (
(104,-68,l),
(104,-604,l),
(168,-604,l),
(168,-68,l)
);
}
);
width = 272;
},
{
associatedMasterId = "CD0E3B44-F66A-4791-B84C-A1128DC61275";
layerId = "887F2B45-1D64-4EE2-9DAA-B9D2B15B7AE2";
shapes = (
{
closed = 1;
nodes = (
(112,-114,l),
(112,-674,l),
(322,-674,l),
(322,-114,l)
);
}
);
width = 435.33585;
},
{
layerId = "CD0E3B44-F66A-4791-B84C-A1128DC61275";
shapes = (
{
closed = 1;
nodes = (
(122,-114,l),
(122,-674,l),
(332,-674,l),
(332,-114,l)
);
}
);
width = 454;
}
);
unicode = 716;
userData = {
interface.gridadjust.original = "{'width': 344, 'leftMargin': 69, 'rightMargin': 69}";
"interface.width-adjustments" = (
-16
);
};
}
{
color = (204,240,242,1);
glyphname = plusmod;
layers = (
{
layerId = "5C20EF92-B63D-42A8-8878-93C2863E0093";
shapes = (
{
closed = 1;
nodes = (
(424,928,l),
(424,84,l),
(740,84,l),
(740,928,l)
);
},
{
closed = 1;
nodes = (
(200,360,l),
(964,360,l),
(964,660,l),
(200,660,l)
);
}
);
width = 1164;
},
{
layerId = "B1F27B51-9973-4381-9301-4FE46FE1CA59";
shapes = (
{
closed = 1;
nodes = (
(394,680,l),
(394,256,l),
(458,256,l),
(458,680,l)
);
},
{
closed = 1;
nodes = (
(208,436,l),
(644,436,l),
(644,500,l),
(208,500,l)
);
}
);
width = 850;
},
{
associatedMasterId = "CD0E3B44-F66A-4791-B84C-A1128DC61275";
layerId = "D773AC1E-EB27-4282-8469-747FCEB4BFCA";
shapes = (
{
closed = 1;
nodes = (
(368,764,l),
(368,204,l),
(580,204,l),
(580,764,l)
);
},
{
closed = 1;
nodes = (
(192,388,l),
(756,388,l),
(756,582,l),
(192,582,l)
);
}
);
width = 948.21887;
},
{
layerId = "CD0E3B44-F66A-4791-B84C-A1128DC61275";
shapes = (
{
closed = 1;
nodes = (
(378,764,l),
(378,204,l),
(590,204,l),
(590,764,l)
);
},
{
closed = 1;
nodes = (
(202,388,l),
(766,388,l),
(766,582,l),
(202,582,l)
);
}
);
width = 968;
}
);
unicode = 726;
userData = {
interface.gridadjust.original = "{'width': 781.0, 'leftMargin': 110, 'rightMargin': 110.0}";
"interface.width-adjustments" = (
-16
);
};
}
{
color = (204,240,242,1);
glyphname = tonebarextralowmod.cn;
layers = (
{
layerId = "5C20EF92-B63D-42A8-8878-93C2863E0093";
shapes = (
{
closed = 1;
nodes = (
(528,2004,l),
(528,0,l),
(1044,0,l),
(1044,2004,l)
);
},
{
closed = 1;
nodes = (
(104,416,l),
(104,0,l),
(1000,0,l),
(1000,416,l)
);
}
);
width = 1140;
},
{
layerId = "B1F27B51-9973-4381-9301-4FE46FE1CA59";
shapes = (
{
closed = 1;
nodes = (
(592,2004,l),
(592,0,l),
(656,0,l),
(656,2004,l)
);
},
{
closed = 1;
nodes = (
(208,64,l),
(208,0,l),
(632,0,l),
(632,64,l)
);
}
);
width = 866;
},
{
associatedMasterId = "CD0E3B44-F66A-4791-B84C-A1128DC61275";
layerId = "CA26896F-0742-4A0B-BE55-433623872B80";
shapes = (
{
closed = 1;
nodes = (
(512,2004,l),
(512,0,l),
(794,0,l),
(794,2004,l)
);
},
{
closed = 1;
nodes = (
(154,224,l),
(154,0,l),
(726,0,l),
(726,224,l)
);
}
);
width = 947.63019;
},
{
layerId = "CD0E3B44-F66A-4791-B84C-A1128DC61275";
shapes = (
{
closed = 1;
nodes = (
(524,2004,l),
(524,0,l),
(806,0,l),
(806,2004,l)
);
},
{
closed = 1;
nodes = (
(166,224,l),
(166,0,l),
(738,0,l),
(738,224,l)
);
}
);
width = 972;
}
);
unicode = 745;
userData = {
interface.gridadjust.original = "{'width': 919, 'leftMargin': 55, 'rightMargin': 234}";
"interface.width-adjustments" = (
-16
);
};
}
{
color = (204,240,242,1);
glyphname = uni02ED;
layers = (
{
layerId = "5C20EF92-B63D-42A8-8878-93C2863E0093";
shapes = (
{
closed = 1;
nodes = (
(236,2200,l),
(236,1916,l),
(1196,1916,l),
(1196,2200,l)
);
},
{
closed = 1;
nodes = (
(236,1848,l),
(236,1564,l),
(1196,1564,l),
(1196,1848,l)
);
}
);
width = 1432;
},
{
layerId = "B1F27B51-9973-4381-9301-4FE46FE1CA59";
shapes = (
{
closed = 1;
nodes = (
(116,2040,l),
(116,1976,l),
(992,1976,l),
(992,2040,l)
);
},
{
closed = 1;
nodes = (
(116,1740,l),
(116,1676,l),
(992,1676,l),
(992,1740,l)
);
}
);
width = 1100;
},
{
associatedMasterId = "CD0E3B44-F66A-4791-B84C-A1128DC61275";
layerId = "08D6F580-DF37-46A9-9592-B3E2262A0E91";
shapes = (
{
closed = 1;
nodes = (
(150,2114,l),
(150,1928,l),
(1058,1928,l),
(1058,2114,l)
);
},
{
closed = 1;
nodes = (
(150,1798,l),
(150,1606,l),
(1058,1606,l),
(1058,1798,l)
);
}
);
width = 1204.51321;
},
{
layerId = "CD0E3B44-F66A-4791-B84C-A1128DC61275";
shapes = (
{
closed = 1;
nodes = (
(158,2114,l),
(158,1928,l),
(1066,1928,l),
(1066,2114,l)
);
},
{
closed = 1;
nodes = (
(158,1798,l),
(158,1606,l),
(1066,1606,l),
(1066,1798,l)
);
}
);
width = 1220;
}
);
unicode = 749;
userData = {
interface.gridadjust.original = "{'width': 1074, 'leftMargin': 83, 'rightMargin': 83}";
"interface.width-adjustments" = (
-16
);
};
}
{
color = (204,240,242,1);
glyphname = lowdownarrowheadmod;
layers = (
{
layerId = "5C20EF92-B63D-42A8-8878-93C2863E0093";
shapes = (
{
closed = 1;
nodes = (
(636,-764,l),
(572,-460,l),
(432,-100,l),
(192,-100,l),
(456,-764,l)
);
},
{
closed = 1;
nodes = (
(700,-764,l),
(964,-100,l),
(728,-100,l),
(584,-460,l),
(524,-764,l)
);
}
);
width = 1156;
},
{
layerId = "B1F27B51-9973-4381-9301-4FE46FE1CA59";
shapes = (
{
closed = 1;
nodes = (
(456,-740,l),
(372,-532,l),
(166,-100,l),
(96,-100,l),
(400,-740,l)
);
},
{
closed = 1;
nodes = (
(464,-740,l),
(760,-100,l),
(690,-100,l),
(490,-532,l),
(406,-740,l)
);
}
);
width = 856;
},
{
associatedMasterId = "CD0E3B44-F66A-4791-B84C-A1128DC61275";
layerId = "FDE5CD37-A3BC-4223-8D71-8F8D2B95BDCD";
shapes = (
{
closed = 1;
nodes = (
(526,-748,l),
(458,-502,l),
(290,-100,l),
(122,-100,l),
(408,-748,l)
);
},
{
closed = 1;
nodes = (
(544,-748,l),
(826,-100,l),
(658,-100,l),
(494,-502,l),
(426,-748,l)
);
}
);
width = 948.02264;
},
{
layerId = "CD0E3B44-F66A-4791-B84C-A1128DC61275";
shapes = (
{
closed = 1;
nodes = (
(534,-748,l),
(466,-502,l),
(298,-100,l),
(130,-100,l),
(416,-748,l)
);
},
{
closed = 1;
nodes = (
(552,-748,l),
(834,-100,l),
(666,-100,l),
(502,-502,l),
(434,-748,l)
);
}
);
width = 964;
}
);
unicode = 751;
userData = {
interface.gridadjust.original = "{'width': 843, 'leftMargin': 69, 'rightMargin': 69}";
"interface.width-adjustments" = (
-16
);
};
}
{
color = (250,227,227,1);
glyphname = candrabindunosp;
layers = (
{
layerId = "5C20EF92-B63D-42A8-8878-93C2863E0093";
shapes = (
{
closed = 1;
nodes = (
(-630,1700,o),
(-418,1892,o),
(-416,2144,c),
(-764,2144,l),
(-766,2060,o),
(-822,1980,o),
(-964,1980,cs),
(-1114,1980,o),
(-1170,2060,o),
(-1168,2144,c),
(-1512,2144,l),
(-1514,1880,o),
(-1294,1700,o),
(-964,1700,cs)
);
},
{
closed = 1;
nodes = (
(-790,2132,o),
(-682,2228,o),
(-680,2356,cs),
(-682,2484,o),
(-790,2580,o),
(-960,2580,cs),
(-1134,2580,o),
(-1250,2480,o),
(-1248,2360,cs),
(-1250,2248,o),
(-1150,2132,o),
(-960,2132,cs)
);
}
);
width = 0;
},
{
layerId = "B1F27B51-9973-4381-9301-4FE46FE1CA59";
shapes = (
{
closed = 1;
nodes = (
(-608,1820,o),
(-524,1907,o),
(-524,2048,c),
(-588,2048,l),
(-588,1942,o),
(-644,1884,o),
(-748,1884,cs),
(-852,1884,o),
(-908,1942,o),
(-908,2048,c),
(-972,2048,l),
(-972,1907,o),
(-888,1820,o),
(-748,1820,cs)
);
},
{
closed = 1;
nodes = (
(-713,1982,o),
(-684,2011,o),
(-684,2046,cs),
(-684,2081,o),
(-713,2110,o),
(-748,2110,cs),
(-783,2110,o),
(-812,2081,o),
(-812,2046,cs),
(-812,2011,o),
(-783,1982,o),
(-748,1982,cs)
);
}
);
width = 0;
},
{
associatedMasterId = "CD0E3B44-F66A-4791-B84C-A1128DC61275";
layerId = "1DEB439C-E0FB-4EDF-B328-70B8A4C98044";
shapes = (
{
closed = 1;
nodes = (
(-590,1672,o),
(-428,1826,o),
(-428,2046,c),
(-652,2046,l),
(-652,1940,o),
(-708,1848,o),
(-848,1848,cs),
(-988,1848,o),
(-1040,1940,o),
(-1040,2046,c),
(-1262,2046,l),
(-1262,1830,o),
(-1106,1672,o),
(-848,1672,cs)
);
},
{
closed = 1;
nodes = (
(-734,2000,o),
(-680,2064,o),
(-680,2150,cs),
(-680,2234,o),
(-738,2302,o),
(-844,2302,cs),
(-942,2302,o),
(-1002,2246,o),
(-1002,2146,cs),
(-1002,2064,o),
(-962,2000,o),
(-848,2000,cs)
);
}
);
width = 0;
},
{
layerId = "CD0E3B44-F66A-4791-B84C-A1128DC61275";
shapes = (
{
closed = 1;
nodes = (
(-584,1672,o),
(-422,1826,o),
(-422,2046,c),
(-646,2046,l),
(-646,1940,o),
(-702,1848,o),
(-842,1848,cs),
(-982,1848,o),
(-1034,1940,o),
(-1034,2046,c),
(-1256,2046,l),
(-1256,1830,o),
(-1100,1672,o),
(-842,1672,cs)
);
},
{
closed = 1;
nodes = (
(-728,2000,o),
(-674,2064,o),
(-674,2150,cs),
(-674,2234,o),
(-732,2302,o),
(-838,2302,cs),
(-936,2302,o),
(-996,2246,o),
(-996,2146,cs),
(-996,2064,o),
(-956,2000,o),
(-842,2000,cs)
);
}
);
width = 6;
}
);
unicode = 784;
}
{
color = (250,227,227,1);
glyphname = hooksubretronosp;
layers = (
{
layerId = "5C20EF92-B63D-42A8-8878-93C2863E0093";
shapes = (
{
closed = 1;
nodes = (
(110,-560,o),
(166,-560,o),
(236,-540,c),
(236,-212,l),
(194,-216,o),
(162,-220,o),
(116,-220,cs),
(10,-220,o),
(-148,-196,o),
(-148,-60,cs),
(-148,416,l),
(-476,416,l),
(-476,-60,ls),
(-476,-380,o),
(-276,-560,o),
(40,-560,cs)
);
}
);
width = 0;
},
{
layerId = "B1F27B51-9973-4381-9301-4FE46FE1CA59";
shapes = (
{
closed = 1;
nodes = (
(-125,-624,o),
(-98,-620,o),
(-84,-614,c),
(-84,-558,l),
(-98,-562,o),
(-115,-564,o),
(-132,-564,cs),
(-227,-564,o),
(-271,-501,o),
(-270,-364,cs),
(-268,84,l),
(-332,84,l),
(-332,-364,ls),
(-332,-533,o),
(-267,-624,o),
(-150,-624,cs)
);
}
);
width = 0;
},
{
associatedMasterId = "CD0E3B44-F66A-4791-B84C-A1128DC61275";
layerId = "1134E355-756F-40C2-B36E-ECC1781AB28D";
shapes = (
{
closed = 1;
nodes = (
(-26,-600,o),
(46,-592,o),
(94,-580,c),
(94,-360,l),
(66,-368,o),
(30,-368,o),
(6,-368,cs),
(-130,-368,o),
(-180,-282,o),
(-180,-122,cs),
(-180,214,l),
(-458,214,l),
(-458,-122,ls),
(-458,-430,o),
(-328,-600,o),
(-66,-600,cs)
);
}
);
width = 0;
},
{
layerId = "CD0E3B44-F66A-4791-B84C-A1128DC61275";
shapes = (
{
closed = 1;
nodes = (
(-24,-600,o),
(48,-592,o),
(96,-580,c),
(96,-360,l),
(68,-368,o),
(32,-368,o),
(8,-368,cs),
(-128,-368,o),
(-178,-282,o),
(-178,-122,cs),
(-178,214,l),
(-456,214,l),
(-456,-122,ls),
(-456,-430,o),
(-326,-600,o),
(-64,-600,cs)
);
}
);
width = 4;
}
);
unicode = 802;
}
{
color = (250,227,227,1);
glyphname = overscoredblnosp;
layers = (
{
layerId = "5C20EF92-B63D-42A8-8878-93C2863E0093";
shapes = (
{
closed = 1;
nodes = (
(-1628,2292,l),
(-1628,2088,l),
(-328,2088,l),
(-328,2292,l)
);
},
{
closed = 1;
nodes = (
(-1628,2720,l),
(-1628,2520,l),
(-328,2520,l),
(-328,2720,l)
);
}
);
width = 0;
},
{
layerId = "B1F27B51-9973-4381-9301-4FE46FE1CA59";
shapes = (
{
closed = 1;
nodes = (
(-1350,2138,l),
(-1350,2074,l),
(-134,2074,l),
(-134,2138,l)
);
},
{
closed = 1;
nodes = (
(-1350,2466,l),
(-1350,2402,l),
(-134,2402,l),
(-134,2466,l)
);
}
);
width = 0;
},
{
associatedMasterId = "CD0E3B44-F66A-4791-B84C-A1128DC61275";
layerId = "D302011C-D01D-43EA-A54E-9FF849967948";
shapes = (
{
closed = 1;
nodes = (
(-1480,2260,l),
(-1480,2042,l),
(-208,2042,l),
(-208,2260,l)
);
},
{
closed = 1;
nodes = (
(-1480,2614,l),
(-1480,2396,l),
(-208,2396,l),
(-208,2614,l)
);
}
);
width = 0;
},
{
layerId = "CD0E3B44-F66A-4791-B84C-A1128DC61275";
shapes = (
{
closed = 1;
nodes = (
(-1476,2260,l),
(-1476,2042,l),
(-204,2042,l),
(-204,2260,l)
);
},
{
closed = 1;
nodes = (
(-1476,2614,l),
(-1476,2396,l),
(-204,2396,l),
(-204,2614,l)
);
}
);
width = 0;
}
);
unicode = 831;
}
{
color = (250,227,227,1);
glyphname = uni0346;
layers = (
{
layerId = "5C20EF92-B63D-42A8-8878-93C2863E0093";
shapes = (
{
closed = 1;
nodes = (
(-1180,1620,l),
(-1180,2188,l),
(-1492,2188,l),
(-1492,1620,l)
);
},
{
closed = 1;
nodes = (
(-664,1888,l),
(-664,2188,l),
(-1240,2188,l),
(-1240,1888,l)
);
},
{
closed = 1;
nodes = (
(-436,1620,l),
(-436,2188,l),
(-744,2188,l),
(-744,1620,l)
);
}
);
width = 0;
},
{
layerId = "B1F27B51-9973-4381-9301-4FE46FE1CA59";
shapes = (
{
closed = 1;
nodes = (
(-1100,1692,l),
(-1100,2220,l),
(-1164,2220,l),
(-1164,1692,l)
);
},
{
closed = 1;
nodes = (
(-560,2156,l),
(-560,2220,l),
(-1128,2220,l),
(-1128,2156,l)
);
},
{
closed = 1;
nodes = (
(-516,1692,l),
(-516,2220,l),
(-580,2220,l),
(-580,1692,l)
);
}
);
width = 0;
},
{
associatedMasterId = "CD0E3B44-F66A-4791-B84C-A1128DC61275";
layerId = "6EE6CD30-8332-4F51-9C10-E810AD631DBC";
shapes = (
{
closed = 1;
nodes = (
(-1102,1690,l),
(-1102,2220,l),
(-1314,2220,l),
(-1314,1690,l)
);
},
{
closed = 1;
nodes = (
(-564,2048,l),
(-564,2220,l),
(-1132,2220,l),
(-1132,2048,l)
);
},
{
closed = 1;
nodes = (
(-374,1690,l),
(-374,2220,l),
(-584,2220,l),
(-584,1690,l)
);
}
);
width = 0;
},
{
layerId = "CD0E3B44-F66A-4791-B84C-A1128DC61275";
shapes = (
{
closed = 1;
nodes = (
(-1096,1690,l),
(-1096,2220,l),
(-1308,2220,l),
(-1308,1690,l)
);
},
{
closed = 1;
nodes = (
(-558,2048,l),
(-558,2220,l),
(-1126,2220,l),
(-1126,2048,l)
);
},
{
closed = 1;
nodes = (
(-368,1690,l),
(-368,2220,l),
(-578,2220,l),
(-578,1690,l)
);
}
);
width = 4;
}
);
unicode = 838;
}
{
color = (250,227,227,1);
glyphname = uni035B;
layers = (
{
layerId = "5C20EF92-B63D-42A8-8878-93C2863E0093";
shapes = (
{
closed = 1;
nodes = (
(-1324,1832,l),
(-940,1832,l),
(-1028,1624,l),
(-780,1624,l),
(-596,2076,l),
(-980,2076,l),
(-896,2284,l),
(-1144,2284,l)
);
}
);
width = 0;
},
{
layerId = "B1F27B51-9973-4381-9301-4FE46FE1CA59";
shapes = (
{
closed = 1;
nodes = (
(-882,1922,l),
(-598,1922,l),
(-682,1624,l),
(-616,1624,l),
(-514,1986,l),
(-798,1986,l),
(-714,2284,l),
(-780,2284,l)
);
}
);
width = 0;
},
{
associatedMasterId = "CD0E3B44-F66A-4791-B84C-A1128DC61275";
layerId = "AE332A44-52E9-4262-A230-6030D4B34D84";
shapes = (
{
closed = 1;
nodes = (
(-1070,1872,l),
(-776,1872,l),
(-860,1624,l),
(-690,1624,l),
(-554,2036,l),
(-848,2036,l),
(-764,2284,l),
(-934,2284,l)
);
}
);
width = 0.29434;
},
{
layerId = "CD0E3B44-F66A-4791-B84C-A1128DC61275";
shapes = (
{
closed = 1;
nodes = (
(-1064,1872,l),
(-770,1872,l),
(-854,1624,l),
(-684,1624,l),
(-548,2036,l),
(-842,2036,l),
(-758,2284,l),
(-928,2284,l)
);
}
);
width = 4;
}
);
unicode = 859;
}
{
color = (250,227,227,1);
glyphname = uni0364;
layers = (
{
layerId = "5C20EF92-B63D-42A8-8878-93C2863E0093";
shapes = (
{
closed = 1;
nodes = (
(-766,1632,o),
(-658,1696,o),
(-604,1760,c),
(-720,1904,l),
(-762,1852,o),
(-838,1828,o),
(-900,1828,cs),
(-1014,1828,o),
(-1086,1900,o),
(-1084,2004,cs),
(-1084,2028,ls),
(-1086,2120,o),
(-1058,2224,o),
(-948,2224,cs),
(-878,2224,o),
(-834,2188,o),
(-832,2124,cs),
(-832,2100,l),
(-1240,2100,l),
(-1240,1940,l),
(-584,1940,l),
(-584,2048,ls),
(-586,2284,o),
(-726,2420,o),
(-948,2420,cs),
(-1210,2420,o),
(-1334,2232,o),
(-1332,2028,cs),
(-1332,2004,ls),
(-1334,1808,o),
(-1178,1632,o),
(-920,1632,cs,{
name = hr00;
})
);
}
);
width = 0;
},
{
layerId = "B1F27B51-9973-4381-9301-4FE46FE1CA59";
shapes = (
{
closed = 1;
nodes = (
(-578,1632,o),
(-480,1690,o),
(-402,1792,c),
(-444,1824,l),
(-504,1746,o),
(-590,1696,o),
(-702,1696,cs),
(-862,1696,o),
(-954,1800,o),
(-954,1996,cs),
(-954,2028,ls),
(-954,2230,o),
(-852,2356,o),
(-690,2356,cs),
(-542,2356,o),
(-452,2238,o),
(-452,2102,cs),
(-452,2078,l),
(-974,2078,l),
(-974,2014,l),
(-386,2014,l),
(-386,2050,ls),
(-386,2286,o),
(-504,2420,o),
(-688,2420,cs),
(-890,2420,o),
(-1018,2262,o),
(-1018,2028,cs),
(-1018,1996,ls),
(-1018,1770,o),
(-896,1632,o),
(-704,1632,cs)
);
}
);
width = 0;
},
{
associatedMasterId = "CD0E3B44-F66A-4791-B84C-A1128DC61275";
layerId = "4CA3D26B-04D1-4A9B-96CF-B3DE32385D37";
shapes = (
{
closed = 1;
nodes = (
(-624,1632,o),
(-536,1716,o),
(-492,1780,c),
(-588,1872,l),
(-628,1816,o),
(-680,1782,o),
(-780,1782,cs),
(-904,1782,o),
(-972,1860,o),
(-972,2000,cs),
(-972,2028,ls),
(-972,2186,o),
(-916,2270,o),
(-808,2270,cs),
(-694,2270,o),
(-650,2200,o),
(-650,2104,cs),
(-650,2096,l),
(-1058,2096,l),
(-1058,1980,l),
(-476,1980,l),
(-476,2044,ls),
(-476,2256,o),
(-584,2420,o),
(-808,2420,cs),
(-998,2420,o),
(-1154,2282,o),
(-1154,2028,cs),
(-1154,2000,ls),
(-1154,1788,o),
(-1020,1632,o),
(-788,1632,cs)
);
}
);
width = 0.29434;
},
{
layerId = "CD0E3B44-F66A-4791-B84C-A1128DC61275";
shapes = (
{
closed = 1;
nodes = (
(-618,1632,o),
(-530,1716,o),
(-486,1780,c),
(-582,1872,l),
(-622,1816,o),
(-674,1782,o),
(-774,1782,cs),
(-898,1782,o),
(-966,1860,o),
(-966,2000,cs),
(-966,2028,ls),
(-966,2186,o),
(-910,2270,o),
(-802,2270,cs),
(-688,2270,o),
(-644,2200,o),
(-644,2104,cs),
(-644,2096,l),
(-1052,2096,l),
(-1052,1980,l),
(-470,1980,l),
(-470,2044,ls),
(-470,2256,o),
(-578,2420,o),
(-802,2420,cs),
(-992,2420,o),
(-1148,2282,o),
(-1148,2028,cs),
(-1148,2000,ls),
(-1148,1788,o),
(-1014,1632,o),
(-782,1632,cs)
);
}
);
width = 2;
}
);
unicode = 868;
}
{
color = (250,227,227,1);
glyphname = uni0368;
layers = (
{
layerId = "5C20EF92-B63D-42A8-8878-93C2863E0093";
shapes = (
{
closed = 1;
nodes = (
(-748,1632,o),
(-600,1744,o),
(-604,1928,c),
(-836,1928,l),
(-832,1860,o),
(-884,1828,o),
(-944,1828,cs),
(-1056,1828,o),
(-1056,1928,o),
(-1056,2020,cs),
(-1056,2032,ls),
(-1056,2120,o),
(-1056,2224,o),
(-944,2224,cs),
(-872,2224,o),
(-836,2172,o),
(-836,2104,c),
(-604,2104,l),
(-600,2296,o),
(-728,2420,o),
(-936,2420,cs),
(-1180,2420,o),
(-1308,2256,o),
(-1308,2032,cs),
(-1308,2020,ls),
(-1308,1792,o),
(-1180,1632,o),
(-936,1632,cs)
);
}
);
width = 0;
},
{
layerId = "B1F27B51-9973-4381-9301-4FE46FE1CA59";
shapes = (
{
closed = 1;
nodes = (
(-604,1632,o),
(-488,1710,o),
(-456,1864,c),
(-518,1864,l),
(-538,1750,o),
(-628,1696,o),
(-740,1696,cs),
(-900,1696,o),
(-988,1804,o),
(-988,1996,cs),
(-988,2028,ls),
(-988,2232,o),
(-892,2356,o),
(-734,2356,cs),
(-616,2356,o),
(-520,2286,o),
(-510,2168,c),
(-450,2168,l),
(-464,2336,o),
(-580,2420,o),
(-728,2420,cs),
(-928,2420,o),
(-1052,2266,o),
(-1052,2028,cs),
(-1052,1996,ls),
(-1052,1774,o),
(-934,1632,o),
(-744,1632,cs)
);
}
);
width = 0;
},
{
associatedMasterId = "CD0E3B44-F66A-4791-B84C-A1128DC61275";
layerId = "12C54415-A347-48B2-B0E0-8D68090D5883";
shapes = (
{
closed = 1;
nodes = (
(-636,1632,o),
(-496,1752,o),
(-488,1888,c),
(-662,1888,l),
(-672,1828,o),
(-724,1782,o),
(-808,1782,cs),
(-924,1782,o),
(-982,1882,o),
(-982,2012,cs),
(-982,2040,ls),
(-982,2166,o),
(-924,2270,o),
(-808,2270,cs),
(-712,2270,o),
(-664,2204,o),
(-662,2144,c),
(-488,2144,l),
(-496,2292,o),
(-608,2420,o),
(-808,2420,cs),
(-1052,2420,o),
(-1164,2244,o),
(-1164,2040,cs),
(-1164,2012,ls),
(-1164,1812,o),
(-1056,1632,o),
(-808,1632,cs)
);
}
);
width = 0.29434;
},
{
layerId = "CD0E3B44-F66A-4791-B84C-A1128DC61275";
shapes = (
{
closed = 1;
nodes = (
(-632,1632,o),
(-492,1752,o),
(-484,1888,c),
(-658,1888,l),
(-668,1828,o),
(-720,1782,o),
(-804,1782,cs),
(-920,1782,o),
(-978,1882,o),
(-978,2012,cs),
(-978,2040,ls),
(-978,2166,o),
(-920,2270,o),
(-804,2270,cs),
(-708,2270,o),
(-660,2204,o),
(-658,2144,c),
(-484,2144,l),
(-492,2292,o),
(-604,2420,o),
(-804,2420,cs),
(-1048,2420,o),
(-1160,2244,o),
(-1160,2040,cs),
(-1160,2012,ls),
(-1160,1812,o),
(-1052,1632,o),
(-804,1632,cs)
);
}
);
width = 0;
}
);
unicode = 872;
}
{
glyphname = uni037B;
layers = (
{
background = {
shapes = (
{
closed = 1;
nodes = (
(138,188,o),
(426,-28,o),
(804,-28,cs),
(1294,-28,o),
(1546,288,o),
(1544,732,cs),
(1544,756,ls),
(1546,1196,o),
(1294,1516,o),
(808,1516,cs),
(422,1516,o),
(138,1304,o),
(140,896,c),
(624,896,l),
(622,1012,o),
(682,1104,o),
(820,1104,cs),
(1026,1104,o),
(1026,900,o),
(1024,756,cs),
(1024,732,ls),
(1026,548,o),
(1018,388,o),
(820,388,cs),
(694,388,o),
(622,440,o),
(624,556,c),
(140,556,l)
);
}
);
};
layerId = "5C20EF92-B63D-42A8-8878-93C2863E0093";
shapes = (
{
closed = 1;
nodes = (
(137,188,o),
(425,-28,o),
(804,-28,cs),
(1293,-28,o),
(1545,288,o),
(1544,752,cs),
(1544,776,ls),
(1544,1236,o),
(1293,1556,o),
(808,1556,cs),
(421,1556,o),
(137,1344,o),
(140,896,c),
(624,896,l),
(621,1052,o),
(681,1144,o),
(820,1144,cs),
(1025,1144,o),
(1024,940,o),
(1024,776,cs),
(1024,752,ls),
(1025,548,o),
(1017,388,o),
(820,388,cs),
(693,388,o),
(621,440,o),
(624,556,c),
(140,556,l)
);
}
);
width = 1684;
},
{
background = {
shapes = (
{
closed = 1;
nodes = (
(176,158,o),
(396,-32,o),
(684,-32,cs),
(1062,-32,o),
(1300,296,o),
(1300,708,cs),
(1300,784,ls),
(1300,1214,o),
(1052,1516,o),
(676,1516,cs),
(382,1516,o),
(180,1324,o),
(122,1044,c),
(190,1044,l),
(242,1286,o),
(414,1452,o),
(676,1452,cs),
(1010,1452,o),
(1236,1188,o),
(1236,784,cs),
(1236,708,ls),
(1236,338,o),
(1028,32,o),
(684,32,cs),
(432,32,o),
(236,198,o),
(188,424,c),
(120,424,l)
);
}
);
};
layerId = "B1F27B51-9973-4381-9301-4FE46FE1CA59";
shapes = (
{
closed = 1;
nodes = (
(145,159,o),
(391,-28,o),
(668,-28,cs),
(1025,-28,o),
(1268,283,o),
(1268,724,cs),
(1268,774,ls),
(1268,1269,o),
(1026,1560,o),
(652,1560,cs),
(356,1560,o),
(153,1382,o),
(88,1024,c),
(154,1024,l),
(218,1347,o),
(392,1496,o),
(652,1496,cs),
(991,1496,o),
(1204,1234,o),
(1204,772,cs),
(1204,724,ls),
(1204,319,o),
(988,36,o),
(668,36,cs),
(426,36,o),
(206,198,o),
(154,424,c),
(88,424,l)
);
}
);
width = 1358;
},
{
associatedMasterId = "CD0E3B44-F66A-4791-B84C-A1128DC61275";
layerId = "92FF0834-60AB-40E8-99BC-0B8AB5BE2E63";
shapes = (
{
closed = 1;
nodes = (
(112,212,o),
(358,-28,o),
(708,-28,cs),
(1132,-28,o),
(1364,320,o),
(1364,716,cs),
(1364,792,ls),
(1364,1208,o),
(1144,1556,o),
(700,1556,cs),
(334,1556,o),
(112,1316,o),
(96,974,c),
(362,974,l),
(378,1184,o),
(486,1332,o),
(700,1332,cs),
(990,1332,o),
(1086,1060,o),
(1086,792,cs),
(1086,716,ls),
(1086,466,o),
(996,196,o),
(706,196,cs),
(512,196,o),
(378,320,o),
(362,474,c),
(96,474,l)
);
}
);
width = 1460.41509;
},
{
layerId = "CD0E3B44-F66A-4791-B84C-A1128DC61275";
shapes = (
{
closed = 1;
nodes = (
(122,212,o),
(368,-28,o),
(718,-28,cs),
(1142,-28,o),
(1374,320,o),
(1374,716,cs),
(1374,792,ls),
(1374,1208,o),
(1154,1556,o),
(710,1556,cs),
(344,1556,o),
(122,1316,o),
(106,974,c),
(372,974,l),
(388,1184,o),
(496,1332,o),
(710,1332,cs),
(1000,1332,o),
(1096,1060,o),
(1096,792,cs),
(1096,716,ls),
(1096,466,o),
(1006,196,o),
(716,196,cs),
(522,196,o),
(388,320,o),
(372,474,c),
(106,474,l)
);
}
);
width = 1480;
}
);
unicode = 891;
userData = {
interface.gridadjust.original = "{'width': 1480, 'leftMargin': 88, 'rightMargin': 127}";
"interface.width-adjustments" = (
-16
);
};
}
{
glyphname = Gamma;
kernLeft = B;
kernRight = T;
layers = (
{
anchors = (
{
name = cross;
pos = (408,1084);
},
{
name = cyrtic;
pos = (940,224);
},
{
name = right;
pos = (672,0);
},
{
name = top;
pos = (876,2304);
}
);
layerId = "5C20EF92-B63D-42A8-8878-93C2863E0093";
shapes = (
{
closed = 1;
nodes = (
(132,2048,l),
(132,0,l),
(688,0,l),
(688,1600,l),
(1572,1600,l),
(1572,2048,l)
);
}
);
width = 1648;
},
{
anchors = (
{
name = cross;
pos = (324,1040);
},
{
name = cyrtic;
pos = (380,8);
},
{
name = right;
pos = (336,0);
},
{
name = top;
pos = (836,2392);
}
);
layerId = "B1F27B51-9973-4381-9301-4FE46FE1CA59";
shapes = (
{
closed = 1;
nodes = (
(288,2048,l),
(288,0,l),
(352,0,l),
(352,1984,l),
(1404,1984,l),
(1404,2048,l)
);
}
);
width = 1544;
},
{
anchors = (
{
name = cross;
pos = (342,1056);
},
{
name = cyrtic;
pos = (584,92);
},
{
name = right;
pos = (452,0);
},
{
name = top;
pos = (836,2304);
}
);
associatedMasterId = "CD0E3B44-F66A-4791-B84C-A1128DC61275";
layerId = "BBFA0AA3-61DB-445D-83BD-E045451E7E1F";
shapes = (
{
closed = 1;
nodes = (
(214,2048,l),
(214,0,l),
(468,0,l),
(468,1822,l),
(1454,1822,l),
(1454,2048,l)
);
}
);
width = 1557.07925;
},
{
anchors = (
{
name = cross;
pos = (354,1056);
},
{
name = cyrtic;
pos = (596,92);
},
{
name = right;
pos = (464,0);
},
{
name = top;
pos = (848,2304);
}
);
layerId = "CD0E3B44-F66A-4791-B84C-A1128DC61275";
shapes = (
{
closed = 1;
nodes = (
(226,2048,l),
(226,0,l),
(480,0,l),
(480,1822,l),
(1466,1822,l),
(1466,2048,l)
);
}
);
width = 1580;
}
);
metricLeft = H;
metricRight = T;
unicode = 915;
userData = {
interface.gridadjust.original = "{'width': 1569, 'leftMargin': 242, 'rightMargin': 92}";
"interface.width-adjustments" = (
-16
);
};
}
{
glyphname = Pi;
kernLeft = B;
layers = (
{
anchors = (
{
name = right;
pos = (2008,0);
}
);
layerId = "5C20EF92-B63D-42A8-8878-93C2863E0093";
shapes = (
{
closed = 1;
nodes = (
(224,2048,l),
(224,0,l),
(772,0,l),
(772,1608,l),
(1464,1608,l),
(1464,0,l),
(2012,0,l),
(2012,2048,l)
);
}
);
width = 2236;
},
{
anchors = (
{
name = right;
pos = (1604,0);
}
);
layerId = "B1F27B51-9973-4381-9301-4FE46FE1CA59";
shapes = (
{
closed = 1;
nodes = (
(236,2048,l),
(236,0,l),
(300,0,l),
(300,1984,l),
(1544,1984,l),
(1544,0,l),
(1608,0,l),
(1608,2048,l)
);
}
);
width = 1846;
},
{
anchors = (
{
name = right;
pos = (1750,0);
}
);
associatedMasterId = "CD0E3B44-F66A-4791-B84C-A1128DC61275";
layerId = "AF0A23D5-9C54-4CC5-AB51-FCB2739CC11E";
shapes = (
{
closed = 1;
nodes = (
(220,2048,l),
(220,0,l),
(474,0,l),
(474,1822,l),
(1498,1822,l),
(1498,0,l),
(1754,0,l),
(1754,2048,l)
);
}
);
width = 1973.39623;
},
{
anchors = (
{
name = right;
pos = (1760,0);
}
);
layerId = "CD0E3B44-F66A-4791-B84C-A1128DC61275";
shapes = (
{
closed = 1;
nodes = (
(230,2048,l),
(230,0,l),
(484,0,l),
(484,1822,l),
(1508,1822,l),
(1508,0,l),
(1764,0,l),
(1764,2048,l)
);
}
);
width = 1994;
}
);
unicode = 928;
userData = {
interface.gridadjust.original = "{'width': 2013.0, 'leftMargin': 242, 'rightMargin': 245.0}";
"interface.width-adjustments" = (
-16
);
};
}
{
glyphname = omega;
kernLeft = omegagreek;
kernRight = omegagreek;
layers = (
{
anchors = (
{
name = bottom;
pos = (1434,0);
},
{
name = top;
pos = (1432,1792);
}
);
background = {
shapes = (
{
closed = 1;
nodes = (
(1979,1252,o),
(2043,1024,o),
(2056,780,c),
(2055,592,o),
(2015,388,o),
(1888,388,cs),
(1791,388,o),
(1711,472,o),
(1712,704,c),
(1712,1256,l),
(1320,1256,l),
(1320,772,l),
(1319,256,o),
(1559,-28,o),
(1900,-28,cs),
(2407,-28,o),
(2571,304,o),
(2572,780,c),
(2571,1076,o),
(2463,1320,o),
(2344,1488,c),
(1864,1488,l)
);
},
{
closed = 1;
nodes = (
(415,1328,o),
(299,1088,o),
(300,780,cs),
(299,308,o),
(455,-28,o),
(968,-28,cs),
(1307,-28,o),
(1547,256,o),
(1548,772,cs),
(1548,1256,l),
(1156,1256,l),
(1156,704,ls),
(1155,472,o),
(1075,388,o),
(984,388,cs),
(847,388,o),
(811,600,o),
(812,780,c),
(823,1024,o),
(887,1248,o),
(1004,1488,c),
(532,1488,l)
);
}
);
};
layerId = "5C20EF92-B63D-42A8-8878-93C2863E0093";
shapes = (
{
closed = 1;
nodes = (
(392,1315,o),
(299,1037,o),
(296,750,cs),
(290,216,o),
(552,-28,o),
(948,-28,cs),
(1363,-28,o),
(1548,304,o),
(1548,774,cs),
(1548,1304,l),
(1156,1304,l),
(1156,704,ls),
(1156,500,o),
(1086,388,o),
(986,388,cs),
(870,388,o),
(812,536,o),
(812,766,cs),
(812,988,o),
(891,1254,o),
(1028,1536,c),
(548,1536,l)
);
},
{
closed = 1;
nodes = (
(1977,1254,o),
(2056,988,o),
(2056,766,cs),
(2056,536,o),
(1998,388,o),
(1882,388,cs),
(1782,388,o),
(1712,500,o),
(1712,704,cs),
(1712,1304,l),
(1320,1304,l),
(1320,774,ls),
(1320,304,o),
(1505,-28,o),
(1920,-28,cs),
(2316,-28,o),
(2577,216,o),
(2572,750,cs),
(2569,1037,o),
(2476,1315,o),
(2320,1536,c),
(1840,1536,l)
);
}
);
width = 2868;
},
{
anchors = (
{
name = bottom;
pos = (936,0);
},
{
name = top;
pos = (936,1792);
}
);
background = {
shapes = (
{
closed = 1;
nodes = (
(1756,1286,o),
(1812,1052,o),
(1816,778,cs),
(1817,345,o),
(1636,36,o),
(1382,36,cs),
(1152,36,o),
(1004,263,o),
(1004,616,cs),
(1004,944,l),
(940,944,l),
(940,696,ls),
(940,230,o),
(1098,-28,o),
(1382,-28,cs),
(1688,-28,o),
(1881,285,o),
(1880,780,cs),
(1881,1038,o),
(1824,1285,o),
(1716,1488,c),
(1646,1488,l)
);
},
{
closed = 1;
nodes = (
(122,1289,o),
(64,1040,o),
(64,780,cs),
(64,287,o),
(255,-23,o),
(562,-28,cs),
(844,-32,o),
(1004,230,o),
(1004,696,cs),
(1004,944,l),
(940,944,l),
(940,616,ls),
(940,264,o),
(791,36,o),
(562,36,cs),
(306,36,o),
(126,344,o),
(128,780,cs),
(129,1044,o),
(186,1280,o),
(298,1488,c),
(228,1488,l)
);
}
);
};
layerId = "B1F27B51-9973-4381-9301-4FE46FE1CA59";
shapes = (
{
closed = 1;
nodes = (
(97,1332,o),
(32,1080,o),
(32,780,cs),
(32,287,o),
(223,-28,o),
(532,-28,cs),
(812,-28,o),
(972,230,o),
(972,696,cs),
(972,992,l),
(908,992,l),
(908,616,ls),
(908,264,o),
(759,36,o),
(530,36,cs),
(274,36,o),
(95,323,o),
(96,786,cs),
(97,1063,o),
(160,1322,o),
(296,1536,c),
(226,1536,l)
);
},
{
closed = 1;
nodes = (
(1720,1322,o),
(1783,1063,o),
(1784,786,cs),
(1786,323,o),
(1606,36,o),
(1350,36,cs),
(1121,36,o),
(972,264,o),
(972,616,cs),
(972,992,l),
(908,992,l),
(908,696,ls),
(908,230,o),
(1068,-28,o),
(1348,-28,cs),
(1657,-28,o),
(1848,287,o),
(1848,780,cs),
(1848,1080,o),
(1783,1332,o),
(1654,1536,c),
(1584,1536,l)
);
}
);
width = 1880;
},
{
anchors = (
{
name = bottom;
pos = (1116,0);
},
{
name = top;
pos = (1116,1792);
}
);
associatedMasterId = "CD0E3B44-F66A-4791-B84C-A1128DC61275";
layerId = "3A1AB445-17F8-415E-8A7B-37F9D2991F2D";
shapes = (
{
closed = 1;
nodes = (
(190,1306,o),
(120,1056,o),
(120,780,cs),
(120,268,o),
(324,-28,o),
(670,-28,cs),
(990,-28,o),
(1168,216,o),
(1168,652,c),
(1168,1112,l),
(976,1112,l),
(976,650,ls),
(976,354,o),
(864,196,o),
(690,196,cs),
(494,196,o),
(374,404,o),
(374,760,cs),
(374,1006,o),
(416,1206,o),
(608,1536,c),
(334,1536,l)
);
},
{
closed = 1;
nodes = (
(1820,1206,o),
(1860,1006,o),
(1860,760,cs),
(1860,404,o),
(1740,196,o),
(1544,196,cs),
(1372,196,o),
(1258,354,o),
(1258,650,cs),
(1258,1112,l),
(1066,1112,l),
(1066,652,l),
(1066,216,o),
(1244,-28,o),
(1564,-28,cs),
(1912,-28,o),
(2116,268,o),
(2114,780,cs),
(2114,1056,o),
(2044,1306,o),
(1900,1536,c),
(1626,1536,l)
);
}
);
width = 2234.71698;
},
{
anchors = (
{
name = bottom;
pos = (1122,0);
},
{
name = top;
pos = (1122,1792);
}
);
layerId = "CD0E3B44-F66A-4791-B84C-A1128DC61275";
shapes = (
{
closed = 1;
nodes = (
(196,1306,o),
(126,1056,o),
(126,780,cs),
(126,268,o),
(330,-28,o),
(676,-28,cs),
(996,-28,o),
(1174,216,o),
(1174,652,c),
(1174,1112,l),
(982,1112,l),
(982,650,ls),
(982,354,o),
(870,196,o),
(696,196,cs),
(500,196,o),
(380,404,o),
(380,760,cs),
(380,1006,o),
(422,1206,o),
(614,1536,c),
(340,1536,l)
);
},
{
closed = 1;
nodes = (
(1826,1206,o),
(1866,1006,o),
(1866,760,cs),
(1866,404,o),
(1746,196,o),
(1550,196,cs),
(1378,196,o),
(1264,354,o),
(1264,650,cs),
(1264,1112,l),
(1072,1112,l),
(1072,652,l),
(1072,216,o),
(1250,-28,o),
(1570,-28,cs),
(1918,-28,o),
(2122,268,o),
(2120,780,cs),
(2120,1056,o),
(2050,1306,o),
(1906,1536,c),
(1632,1536,l)
);
}
);
width = 2246;
}
);
unicode = 969;
userData = {
interface.gridadjust.original = "{'width': 2320, 'leftMargin': 164, 'rightMargin': 169}";
"interface.width-adjustments" = (
-16
);
};
}
{
glyphname = beta1;
layers = (
{
guides = (
{
pos = (-128,1392);
},
{
pos = (-128,1292);
}
);
layerId = "5C20EF92-B63D-42A8-8878-93C2863E0093";
shapes = (
{
closed = 1;
nodes = (
(936,1252,o),
(780,1216,o),
(640,1104,c),
(640,1420,o),
(776,1776,o),
(1056,1776,cs),
(1144,1776,o),
(1208,1752,o),
(1208,1696,cs),
(1208,1640,o),
(1120,1636,o),
(1040,1636,cs),
(948,1636,o),
(832,1660,o),
(764,1688,c),
(676,1384,l),
(832,1352,o),
(964,1332,o),
(1076,1332,cs),
(1468,1332,o),
(1680,1528,o),
(1680,1748,cs),
(1680,1948,o),
(1520,2140,o),
(1132,2140,cs),
(636,2140,o),
(224,1744,o),
(224,972,cs),
(224,900,ls),
(224,288,o),
(496,-28,o),
(1024,-28,cs),
(1480,-28,o),
(1748,268,o),
(1748,616,cs),
(1748,984,o),
(1528,1252,o),
(1120,1252,cs)
);
},
{
closed = 1;
nodes = (
(1144,836,o),
(1236,772,o),
(1236,616,cs),
(1236,464,o),
(1148,384,o),
(988,384,cs),
(832,384,o),
(732,464,o),
(732,616,cs),
(732,776,o),
(824,836,o),
(984,836,cs)
);
}
);
width = 1972;
},
{
layerId = "B1F27B51-9973-4381-9301-4FE46FE1CA59";
shapes = (
{
closed = 1;
nodes = (
(551,1280,o),
(353,1154,o),
(256,960,c),
(279,1595,o),
(463,2074,o),
(884,2076,cs),
(1070,2077,o),
(1192,1975,o),
(1192,1806,cs),
(1192,1618,o),
(1041,1512,o),
(786,1512,cs),
(620,1512,o),
(449,1557,o),
(312,1638,c),
(290,1576,l),
(449,1491,o),
(614,1448,o),
(778,1448,cs),
(1072,1448,o),
(1252,1578,o),
(1256,1804,cs),
(1260,1997,o),
(1126,2140,o),
(882,2140,cs),
(427,2140,o),
(192,1625,o),
(192,860,cs),
(192,718,ls),
(192,273,o),
(427,-32,o),
(774,-32,cs),
(1109,-32,o),
(1344,241,o),
(1344,638,cs),
(1344,1025,o),
(1125,1280,o),
(792,1280,cs)
);
},
{
closed = 1;
nodes = (
(1089,1216,o),
(1280,990,o),
(1280,638,cs),
(1280,273,o),
(1077,32,o),
(776,32,cs),
(462,32,o),
(256,306,o),
(256,718,cs),
(256,998,o),
(491,1216,o),
(792,1216,cs)
);
}
);
width = 1530;
},
{
associatedMasterId = "CD0E3B44-F66A-4791-B84C-A1128DC61275";
layerId = "2EC6E092-113D-467F-B46A-6E88633FA06E";
shapes = (
{
closed = 1;
nodes = (
(714,1292,o),
(542,1200,o),
(428,1064,c),
(428,1544,o),
(564,1916,o),
(880,1916,cs),
(1030,1916,o),
(1078,1834,o),
(1078,1754,cs),
(1078,1694,o),
(1022,1612,o),
(868,1612,cs),
(784,1612,o),
(672,1632,o),
(526,1692,c),
(442,1482,l),
(628,1402,o),
(776,1390,o),
(900,1390,cs),
(1234,1390,o),
(1360,1586,o),
(1360,1764,cs),
(1360,2010,o),
(1160,2140,o),
(912,2140,cs),
(424,2140,o),
(192,1690,o),
(192,1050,cs),
(192,950,ls),
(192,304,o),
(426,-28,o),
(860,-28,cs),
(1280,-28,o),
(1528,244,o),
(1528,658,cs),
(1528,1070,o),
(1274,1292,o),
(920,1292,cs)
);
},
{
closed = 1;
nodes = (
(1128,1066,o),
(1248,924,o),
(1248,658,cs),
(1248,386,o),
(1128,196,o),
(858,196,cs),
(590,196,o),
(486,386,o),
(486,658,cs),
(486,924,o),
(668,1066,o),
(870,1066,cs)
);
}
);
width = 1717.2;
},
{
layerId = "CD0E3B44-F66A-4791-B84C-A1128DC61275";
shapes = (
{
closed = 1;
nodes = (
(724,1292,o),
(552,1200,o),
(438,1064,c),
(438,1544,o),
(574,1916,o),
(890,1916,cs),
(1040,1916,o),
(1088,1834,o),
(1088,1754,cs),
(1088,1694,o),
(1032,1612,o),
(878,1612,cs),
(794,1612,o),
(682,1632,o),
(536,1692,c),
(452,1482,l),
(638,1402,o),
(786,1390,o),
(910,1390,cs),
(1244,1390,o),
(1370,1586,o),
(1370,1764,cs),
(1370,2010,o),
(1170,2140,o),
(922,2140,cs),
(434,2140,o),
(202,1690,o),
(202,1050,cs),
(202,950,ls),
(202,304,o),
(436,-28,o),
(870,-28,cs),
(1290,-28,o),
(1538,244,o),
(1538,658,cs),
(1538,1070,o),
(1284,1292,o),
(930,1292,cs)
);
},
{
closed = 1;
nodes = (
(1138,1066,o),
(1258,924,o),
(1258,658,cs),
(1258,386,o),
(1138,196,o),
(868,196,cs),
(600,196,o),
(496,386,o),
(496,658,cs),
(496,924,o),
(678,1066,o),
(880,1066,cs)
);
}
);
width = 1736;
}
);
unicode = 976;
userData = {
interface.gridadjust.original = "{'width': 1585, 'leftMargin': 127, 'rightMargin': 126}";
"interface.width-adjustments" = (
-16
);
};
}
{
glyphname = uni03F4;
kernLeft = C;
kernRight = D;
layers = (
{
layerId = "5C20EF92-B63D-42A8-8878-93C2863E0093";
shapes = (
{
closed = 1;
nodes = (
(492,1184,l),
(492,864,l),
(1748,864,l),
(1748,1184,l)
);
},
{
ref = O;
}
);
width = 2240;
},
{
layerId = "B1F27B51-9973-4381-9301-4FE46FE1CA59";
shapes = (
{
closed = 1;
nodes = (
(214,1056,l),
(214,992,l),
(1828,992,l),
(1828,1056,l)
);
},
{
ref = O;
}
);
width = 2040;
},
{
associatedMasterId = "CD0E3B44-F66A-4791-B84C-A1128DC61275";
layerId = "9091D2FE-DD81-4E79-BC84-65605B39567D";
shapes = (
{
closed = 1;
nodes = (
(340,1136,l),
(340,912,l),
(1744,912,l),
(1744,1136,l)
);
},
{
alignment = -1;
ref = O;
}
);
width = 2082.74717;
},
{
layerId = "CD0E3B44-F66A-4791-B84C-A1128DC61275";
shapes = (
{
closed = 1;
nodes = (
(350,1136,l),
(350,912,l),
(1754,912,l),
(1754,1136,l)
);
},
{
alignment = -1;
ref = O;
}
);
width = 2104;
}
);
metricLeft = O;
metricRight = O;
note = "Note: Glyph reused for /obar";
unicode = 1012;
}
{
glyphname = uni03FB;
layers = (
{
background = {
shapes = (
{
closed = 1;
nodes = (
(776,1488,l),
(384,1488,l),
(936,0,l),
(1276,0,l),
(1824,1488,l),
(1432,1488,l),
(1100,572,l)
);
},
{
closed = 1;
nodes = (
(148,1488,l),
(148,-572,l),
(668,-572,l),
(668,1488,l)
);
},
{
closed = 1;
nodes = (
(2084,0,l),
(2084,1488,l),
(1564,1488,l),
(1564,0,l)
);
}
);
};
layerId = "5C20EF92-B63D-42A8-8878-93C2863E0093";
shapes = (
{
closed = 1;
nodes = (
(776,1536,l),
(384,1536,l),
(936,0,l),
(1276,0,l),
(1824,1536,l),
(1432,1536,l),
(1100,572,l)
);
},
{
closed = 1;
nodes = (
(148,1536,l),
(148,-572,l),
(668,-572,l),
(668,1536,l)
);
},
{
closed = 1;
nodes = (
(2084,0,l),
(2084,1536,l),
(1564,1536,l),
(1564,0,l)
);
}
);
width = 2224;
},
{
background = {
shapes = (
{
closed = 1;
nodes = (
(270,1488,l),
(200,1488,l),
(912,0,l),
(948,0,l),
(1660,1488,l),
(1590,1488,l),
(930,108,l)
);
},
{
closed = 1;
nodes = (
(200,1488,l),
(200,-574,l),
(264,-574,l),
(264,1488,l)
);
},
{
closed = 1;
nodes = (
(1660,0,l),
(1660,1488,l),
(1596,1488,l),
(1596,0,l)
);
}
);
};
layerId = "B1F27B51-9973-4381-9301-4FE46FE1CA59";
shapes = (
{
closed = 1;
nodes = (
(238,1536,l),
(168,1536,l),
(880,0,l),
(916,0,l),
(1628,1536,l),
(1558,1536,l),
(898,108,l)
);
},
{
closed = 1;
nodes = (
(168,1536,l),
(168,-574,l),
(232,-574,l),
(232,1536,l)
);
},
{
closed = 1;
nodes = (
(1628,0,l),
(1628,1536,l),
(1564,1536,l),
(1564,0,l)
);
}
);
width = 1774;
},
{
associatedMasterId = "CD0E3B44-F66A-4791-B84C-A1128DC61275";
layerId = "20046005-7BCB-4E54-B5CC-FA3AF8B1D689";
shapes = (
{
closed = 1;
nodes = (
(510,1536,l),
(246,1536,l),
(892,0,l),
(1088,0,l),
(1742,1536,l),
(1474,1536,l),
(990,366,l)
);
},
{
closed = 1;
nodes = (
(148,1536,l),
(148,-572,l),
(430,-572,l),
(430,1536,l)
);
},
{
closed = 1;
nodes = (
(1826,0,l),
(1826,1536,l),
(1544,1536,l),
(1544,0,l)
);
}
);
width = 1973.10189;
},
{
layerId = "CD0E3B44-F66A-4791-B84C-A1128DC61275";
shapes = (
{
closed = 1;
nodes = (
(520,1536,l),
(256,1536,l),
(902,0,l),
(1098,0,l),
(1752,1536,l),
(1484,1536,l),
(1000,366,l)
);
},
{
closed = 1;
nodes = (
(158,1536,l),
(158,-572,l),
(440,-572,l),
(440,1536,l)
);
},
{
closed = 1;
nodes = (
(1836,0,l),
(1836,1536,l),
(1554,1536,l),
(1554,0,l)
);
}
);
width = 1994;
}
);
unicode = 1019;
userData = {
interface.gridadjust.original = "{'width': 2046.0, 'leftMargin': 188, 'rightMargin': 188.0}";
"interface.width-adjustments" = (
-16
);
};
}
{
glyphname = afii10021;
kernRight = Decyrillic;
layers = (
{
layerId = "5C20EF92-B63D-42A8-8878-93C2863E0093";
shapes = (
{
closed = 1;
nodes = (
(600,-492,l),
(600,0,l),
(1696,0,l),
(1696,-492,l),
(2232,-492,l),
(2232,428,l),
(2016,428,l),
(2016,2048,l),
(568,2048,l),
(500,1180,ls),
(460,680,o),
(352,516,o),
(208,428,c),
(64,428,l),
(64,-492,l)
);
},
{
closed = 1;
nodes = (
(932,580,o),
(1008,804,o),
(1036,1180,cs),
(1068,1600,l),
(1480,1600,l),
(1480,428,l),
(844,428,l)
);
}
);
width = 2296;
},
{
layerId = "B1F27B51-9973-4381-9301-4FE46FE1CA59";
shapes = (
{
closed = 1;
nodes = (
(124,-500,l),
(124,0,l),
(1764,0,l),
(1764,-492,l),
(1828,-492,l),
(1828,64,l),
(1580,64,l),
(1580,2048,l),
(498,2048,l),
(464,1108,ls),
(444,551,o),
(341,261,o),
(186,64,c),
(60,64,l),
(60,-500,l)
);
},
{
closed = 1;
nodes = (
(432,309,o),
(510,598,o),
(528,1108,cs),
(560,1984,l),
(1516,1984,l),
(1516,64,l),
(266,64,l)
);
}
);
width = 1972;
},
{
associatedMasterId = "CD0E3B44-F66A-4791-B84C-A1128DC61275";
layerId = "629FA416-817C-466A-AF09-629F26DBE8BA";
shapes = (
{
closed = 1;
nodes = (
(284,-496,l),
(284,0,l),
(1718,0,l),
(1718,-492,l),
(1962,-492,l),
(1962,226,l),
(1726,226,l),
(1726,2048,l),
(504,2048,l),
(460,1184,ls),
(432,598,o),
(308,348,o),
(172,226,c),
(40,226,l),
(40,-496,l)
);
},
{
closed = 1;
nodes = (
(600,420,o),
(680,738,o),
(704,1184,cs),
(736,1822,l),
(1484,1822,l),
(1484,226,l),
(476,226,l)
);
}
);
width = 2049.00377;
},
{
layerId = "CD0E3B44-F66A-4791-B84C-A1128DC61275";
shapes = (
{
closed = 1;
nodes = (
(294,-496,l),
(294,0,l),
(1728,0,l),
(1728,-492,l),
(1972,-492,l),
(1972,226,l),
(1736,226,l),
(1736,2048,l),
(514,2048,l),
(470,1184,ls),
(442,598,o),
(318,348,o),
(182,226,c),
(50,226,l),
(50,-496,l)
);
},
{
closed = 1;
nodes = (
(610,420,o),
(690,738,o),
(714,1184,cs),
(746,1822,l),
(1494,1822,l),
(1494,226,l),
(486,226,l)
);
}
);
width = 2068;
}
);
metricLeft = A;
metricRight = t;
unicode = 1044;
userData = {
interface.gridadjust.original = "{'width': 2135, 'leftMargin': 63, 'rightMargin': 78}";
"interface.width-adjustments" = (
-16
);
};
}
{
glyphname = afii10024;
kernLeft = X;
kernRight = X;
layers = (
{
anchors = (
{
name = cyrtic;
pos = (3220,224);
},
{
name = right;
pos = (3096,0);
},
{
name = top;
pos = (1656,2304);
}
);
layerId = "5C20EF92-B63D-42A8-8878-93C2863E0093";
shapes = (
{
closed = 1;
nodes = (
(1388,2048,l),
(1388,0,l),
(1924,0,l),
(1924,2048,l)
);
},
{
closed = 1;
nodes = (
(752,0,l),
(1120,736,l),
(2204,736,l),
(2556,0,l),
(3228,0,l),
(2620,1096,l),
(3212,2048,l),
(2528,2048,l),
(2136,1248,l),
(1192,1248,l),
(780,2048,l),
(92,2048,l),
(712,1088,l),
(84,0,l)
);
}
);
width = 3312;
},
{
anchors = (
{
name = cyrtic;
pos = (2346,8);
},
{
name = right;
pos = (2306,0);
},
{
name = top;
pos = (1206,2304);
}
);
layerId = "B1F27B51-9973-4381-9301-4FE46FE1CA59";
shapes = (
{
closed = 1;
nodes = (
(1176,2048,l),
(1176,0,l),
(1240,0,l),
(1240,2048,l)
);
},
{
closed = 1;
nodes = (
(142,0,l),
(890,1018,l),
(1526,1018,l),
(2274,0,l),
(2352,0,l),
(1582,1050,l),
(2224,2048,l),
(2148,2048,l),
(1524,1080,l),
(892,1080,l),
(268,2048,l),
(192,2048,l),
(834,1050,l),
(64,0,l)
);
}
);
width = 2416;
},
{
anchors = (
{
name = cyrtic;
pos = (2528,92);
},
{
name = right;
pos = (2456,0);
},
{
name = top;
pos = (1312,2304);
}
);
associatedMasterId = "CD0E3B44-F66A-4791-B84C-A1128DC61275";
layerId = "3EE7FDBE-E2FC-40C9-8B32-9A9346E59B61";
shapes = (
{
closed = 1;
nodes = (
(1184,2048,l),
(1184,0,l),
(1440,0,l),
(1440,2048,l)
);
},
{
closed = 1;
nodes = (
(334,0,l),
(890,904,l),
(1736,904,l),
(2286,0,l),
(2580,0,l),
(1918,1064,l),
(2528,2048,l),
(2220,2048,l),
(1690,1142,l),
(938,1142,l),
(408,2048,l),
(100,2048,l),
(708,1068,l),
(44,0,l)
);
}
);
width = 2624.09057;
},
{
anchors = (
{
name = cyrtic;
pos = (2538,92);
},
{
name = right;
pos = (2466,0);
},
{
name = top;
pos = (1322,2304);
}
);
layerId = "CD0E3B44-F66A-4791-B84C-A1128DC61275";
shapes = (
{
closed = 1;
nodes = (
(1194,2048,l),
(1194,0,l),
(1450,0,l),
(1450,2048,l)
);
},
{
closed = 1;
nodes = (
(344,0,l),
(900,904,l),
(1746,904,l),
(2296,0,l),
(2590,0,l),
(1928,1064,l),
(2538,2048,l),
(2230,2048,l),
(1700,1142,l),
(948,1142,l),
(418,2048,l),
(110,2048,l),
(718,1068,l),
(54,0,l)
);
}
);
width = 2644;
}
);
metricLeft = X;
metricRight = X;
unicode = 1046;
userData = {
interface.gridadjust.original = "{'width': 2574.0, 'leftMargin': 39, 'rightMargin': 16.0}";
"interface.width-adjustments" = (
-16
);
};
}
{
glyphname = Kacyr;
kernLeft = B;
kernRight = K;
layers = (
{
anchors = (
{
name = cyrtic;
pos = (1852,248);
}
);
layerId = "5C20EF92-B63D-42A8-8878-93C2863E0093";
shapes = (
{
closed = 1;
nodes = (
(2092,0,l),
(1268,1064,l),
(2048,2048,l),
(1348,2048,l),
(760,1276,l),
(688,1276,l),
(688,2048,l),
(132,2048,l),
(132,0,l),
(688,0,l),
(688,828,l),
(766,828,l),
(1394,0,l)
);
}
);
width = 2108;
},
{
anchors = (
{
name = cyrtic;
pos = (1468,88);
}
);
layerId = "B1F27B51-9973-4381-9301-4FE46FE1CA59";
shapes = (
{
closed = 1;
nodes = (
(1520,0,l),
(770,1050,l),
(1392,2048,l),
(1316,2048,l),
(714,1080,l),
(352,1080,l),
(352,2048,l),
(288,2048,l),
(288,0,l),
(352,0,l),
(352,1018,l),
(714,1018,l),
(1442,0,l)
);
}
);
width = 1584;
},
{
anchors = (
{
name = cyrtic;
pos = (1660,92);
}
);
associatedMasterId = "CD0E3B44-F66A-4791-B84C-A1128DC61275";
layerId = "5FC7E1E2-39D0-4A46-9F47-1F970827489C";
shapes = (
{
closed = 1;
nodes = (
(1724,0,l),
(870,1146,l),
(1696,2048,l),
(1390,2048,l),
(576,1162,l),
(468,1162,l),
(468,2048,l),
(214,2048,l),
(214,0,l),
(468,0,l),
(468,938,l),
(716,938,l),
(1418,0,l)
);
}
);
width = 1763.4566;
},
{
anchors = (
{
name = cyrtic;
pos = (1672,92);
}
);
layerId = "CD0E3B44-F66A-4791-B84C-A1128DC61275";
shapes = (
{
closed = 1;
nodes = (
(1736,0,l),
(882,1050,l),
(1708,2048,l),
(1402,2048,l),
(668,1162,l),
(482,1162,l),
(482,2048,l),
(226,2048,l),
(226,0,l),
(482,0,l),
(482,938,l),
(668,938,l),
(1432,0,l)
);
}
);
width = 1786;
}
);
metricLeft = K;
metricRight = K;
unicode = 1050;
}
{
glyphname = gecyrillic;
kernLeft = m;
kernRight = T.sc;
layers = (
{
anchors = (
{
name = cross;
pos = (408,856);
},
{
name = cyrtic;
pos = (928,224);
},
{
name = top;
pos = (704,1792);
}
);
layerId = "5C20EF92-B63D-42A8-8878-93C2863E0093";
shapes = (
{
closed = 1;
nodes = (
(140,1536,l),
(140,0,l),
(672,0,l),
(672,1124,l),
(1260,1124,l),
(1260,1536,l)
);
}
);
width = 1324;
},
{
anchors = (
{
name = cross;
pos = (272,768);
},
{
name = cyrtic;
pos = (332,-8);
},
{
name = top;
pos = (648,1792);
}
);
layerId = "B1F27B51-9973-4381-9301-4FE46FE1CA59";
shapes = (
{
closed = 1;
nodes = (
(240,1536,l),
(240,0,l),
(304,0,l),
(304,1472,l),
(1084,1472,l),
(1084,1536,l)
);
}
);
width = 1218;
},
{
anchors = (
{
name = cross;
pos = (306,770);
},
{
name = cyrtic;
pos = (542,84);
},
{
name = top;
pos = (652,1792);
}
);
associatedMasterId = "CD0E3B44-F66A-4791-B84C-A1128DC61275";
layerId = "3A673D30-78A1-484C-BA89-68F35E067899";
shapes = (
{
closed = 1;
nodes = (
(182,1536,l),
(182,0,l),
(426,0,l),
(426,1312,l),
(1134,1312,l),
(1134,1536,l)
);
}
);
width = 1229.17736;
},
{
anchors = (
{
name = cross;
pos = (318,770);
},
{
name = cyrtic;
pos = (554,84);
},
{
name = top;
pos = (664,1792);
}
);
layerId = "CD0E3B44-F66A-4791-B84C-A1128DC61275";
shapes = (
{
closed = 1;
nodes = (
(194,1536,l),
(194,0,l),
(438,0,l),
(438,1312,l),
(1146,1312,l),
(1146,1536,l)
);
}
);
width = 1252;
}
);
metricLeft = m;
metricRight = tecyrillic;
unicode = 1075;
userData = {
interface.gridadjust.original = "{'width': 1181, 'leftMargin': 210, 'rightMargin': 23}";
"interface.width-adjustments" = (
-16
);
};
}
{
glyphname = iicyrillic;
kernLeft = m;
kernRight = a;
layers = (
{
anchors = (
{
name = right;
pos = (1608,0);
},
{
name = top;
pos = (872,1792);
}
);
layerId = "5C20EF92-B63D-42A8-8878-93C2863E0093";
shapes = (
{
closed = 1;
nodes = (
(660,1536,l),
(140,1536,l),
(140,0,l),
(660,0,l),
(1088,836,l),
(1088,0,l),
(1608,0,l),
(1608,1536,l),
(1088,1536,l),
(660,704,l)
);
}
);
width = 1748;
},
{
anchors = (
{
name = right;
pos = (1352,0);
},
{
name = top;
pos = (796,1792);
}
);
layerId = "B1F27B51-9973-4381-9301-4FE46FE1CA59";
shapes = (
{
closed = 1;
nodes = (
(304,1536,l),
(240,1536,l),
(240,0,l),
(336,0,l),
(1288,1472,l),
(1288,0,l),
(1352,0,l),
(1352,1536,l),
(1256,1536,l),
(304,64,l)
);
}
);
width = 1592;
},
{
anchors = (
{
name = right;
pos = (1436,0);
},
{
name = top;
pos = (808,1792);
}
);
associatedMasterId = "CD0E3B44-F66A-4791-B84C-A1128DC61275";
layerId = "A4BA0CB0-D960-4E4D-ADD1-DC6D12AB216E";
shapes = (
{
closed = 1;
nodes = (
(426,1536,l),
(182,1536,l),
(182,0,l),
(464,0,l),
(1192,1180,l),
(1192,0,l),
(1436,0,l),
(1436,1536,l),
(1158,1536,l),
(426,356,l)
);
}
);
width = 1618.06038;
},
{
anchors = (
{
name = right;
pos = (1448,0);
},
{
name = top;
pos = (820,1792);
}
);
layerId = "CD0E3B44-F66A-4791-B84C-A1128DC61275";
shapes = (
{
closed = 1;
nodes = (
(438,1536,l),
(194,1536,l),
(194,0,l),
(476,0,l),
(1204,1180,l),
(1204,0,l),
(1448,0,l),
(1448,1536,l),
(1170,1536,l),
(438,356,l)
);
}
);
width = 1642;
}
);
metricLeft = n;
metricRight = u;
unicode = 1080;
userData = {
interface.gridadjust.original = "{'width': 1635, 'leftMargin': 213, 'rightMargin': 213}";
"interface.width-adjustments" = (
-16
);
};
}
{
glyphname = kacyrillic;
kernLeft = m;
kernRight = k;
layers = (
{
anchors = (
{
name = cyrtic;
pos = (1760,224);
},
{
name = top;
pos = (868,1792);
}
);
layerId = "5C20EF92-B63D-42A8-8878-93C2863E0093";
shapes = (
{
closed = 1;
nodes = (
(692,0,l),
(692,476,l),
(816,476,l),
(1112,0,l),
(1752,0,l),
(1256,760,l),
(1748,1536,l),
(1116,1536,l),
(788,988,l),
(692,988,l),
(692,1536,l),
(140,1536,l),
(140,0,l)
);
}
);
width = 1740;
},
{
anchors = (
{
name = cyrtic;
pos = (1188,32);
},
{
name = top;
pos = (636,1792);
}
);
layerId = "B1F27B51-9973-4381-9301-4FE46FE1CA59";
shapes = (
{
closed = 1;
nodes = (
(304,0,l),
(304,736,l),
(516,736,l),
(1126,0,l),
(1208,0,l),
(576,768,l),
(1184,1536,l),
(1100,1536,l),
(516,800,l),
(304,800,l),
(304,1536,l),
(240,1536,l),
(240,0,l)
);
}
);
width = 1272;
},
{
anchors = (
{
name = cyrtic;
pos = (1380,92);
},
{
name = top;
pos = (726,1792);
}
);
associatedMasterId = "CD0E3B44-F66A-4791-B84C-A1128DC61275";
layerId = "09F79CCD-0ACA-4B50-B733-48E84EDCC5F1";
shapes = (
{
closed = 1;
nodes = (
(426,0,l),
(426,644,l),
(636,644,l),
(1134,0,l),
(1448,0,l),
(822,796,l),
(1440,1536,l),
(1128,1536,l),
(580,870,l),
(426,870,l),
(426,1536,l),
(182,1536,l),
(182,0,l)
);
}
);
width = 1453.98491;
},
{
anchors = (
{
name = cyrtic;
pos = (1392,92);
},
{
name = top;
pos = (738,1792);
}
);
layerId = "CD0E3B44-F66A-4791-B84C-A1128DC61275";
shapes = (
{
closed = 1;
nodes = (
(438,0,l),
(438,644,l),
(621,644,l),
(1146,0,l),
(1460,0,l),
(834,756,l),
(1452,1536,l),
(1140,1536,l),
(619,870,l),
(438,870,l),
(438,1536,l),
(194,1536,l),
(194,0,l)
);
}
);
width = 1478;
}
);
metricLeft = m;
metricRight = k;
unicode = 1082;
userData = {
"interface.width-adjustments" = (
-16
);
};
}
{
glyphname = checyrillic;
kernLeft = a;
kernRight = a;
layers = (
{
anchors = (
{
name = cyrtic;
pos = (1824,224);
},
{
name = left;
pos = (1056,0);
},
{
name = right;
pos = (1572,0);
},
{
name = top;
pos = (848,1792);
}
);
layerId = "5C20EF92-B63D-42A8-8878-93C2863E0093";
shapes = (
{
closed = 1;
nodes = (
(1056,1536,l),
(1056,0,l),
(1572,0,l),
(1572,1536,l)
);
},
{
closed = 1;
nodes = (
(1152,848,o),
(1040,824,o),
(940,824,cs),
(692,824,o),
(652,852,o),
(652,992,cs),
(652,1536,l),
(140,1536,l),
(140,992,ls),
(140,576,o),
(436,412,o),
(940,412,cs),
(1036,412,o),
(1248,452,o),
(1304,488,c),
(1304,900,l)
);
}
);
width = 1696;
},
{
anchors = (
{
name = cyrtic;
pos = (1178,-12);
},
{
name = left;
pos = (1140,0);
},
{
name = right;
pos = (1272,0);
},
{
name = top;
pos = (768,1792);
}
);
layerId = "B1F27B51-9973-4381-9301-4FE46FE1CA59";
shapes = (
{
closed = 1;
nodes = (
(1208,1536,l),
(1208,0,l),
(1272,0,l),
(1272,1536,l)
);
},
{
closed = 1;
nodes = (
(1076,653,o),
(907,612,o),
(744,612,cs),
(447,612,o),
(304,728,o),
(304,1024,cs),
(304,1544,l),
(240,1544,l),
(240,1024,ls),
(240,694,o),
(411,550,o),
(750,548,cs),
(894,547,o),
(1030,575,o),
(1258,652,c),
(1258,722,l)
);
}
);
width = 1520;
},
{
anchors = (
{
name = cyrtic;
pos = (1492,84);
},
{
name = left;
pos = (1090,0);
},
{
name = right;
pos = (1372,0);
},
{
name = top;
pos = (778,1792);
}
);
associatedMasterId = "CD0E3B44-F66A-4791-B84C-A1128DC61275";
layerId = "438C08F1-2B88-4679-BE37-0476E731882E";
shapes = (
{
closed = 1;
nodes = (
(1130,1536,l),
(1130,0,l),
(1372,0,l),
(1372,1536,l)
);
},
{
closed = 1;
nodes = (
(1112,746,o),
(962,706,o),
(764,706,cs),
(570,706,o),
(426,812,o),
(426,1046,cs),
(426,1540,l),
(182,1540,l),
(182,1046,ls),
(182,670,o),
(412,482,o),
(764,482,cs),
(970,482,o),
(1118,522,o),
(1276,582,c),
(1276,806,l)
);
}
);
width = 1554.35472;
},
{
anchors = (
{
name = cyrtic;
pos = (1504,84);
},
{
name = left;
pos = (1102,0);
},
{
name = right;
pos = (1384,0);
},
{
name = top;
pos = (790,1792);
}
);
layerId = "CD0E3B44-F66A-4791-B84C-A1128DC61275";
shapes = (
{
closed = 1;
nodes = (
(1142,1536,l),
(1142,0,l),
(1384,0,l),
(1384,1536,l)
);
},
{
closed = 1;
nodes = (
(1124,746,o),
(974,706,o),
(776,706,cs),
(582,706,o),
(438,812,o),
(438,1046,cs),
(438,1540,l),
(194,1540,l),
(194,1046,ls),
(194,670,o),
(424,482,o),
(776,482,cs),
(982,482,o),
(1130,522,o),
(1288,582,c),
(1288,806,l)
);
}
);
width = 1578;
}
);
metricLeft = u;
metricRight = a;
unicode = 1095;
userData = {
interface.gridadjust.original = "{'width': 1539, 'leftMargin': 140, 'rightMargin': 213}";
"interface.width-adjustments" = (
-16
);
};
}
{
glyphname = yusbigcyrillic;
layers = (
{
background = {
shapes = (
{
closed = 1;
nodes = (
(676,276,ls),
(674,436,o),
(754,472,o),
(884,472,cs),
(1348,472,ls),
(1502,472,o),
(1554,412,o),
(1556,276,cs),
(1556,0,l),
(2072,0,l),
(2072,276,ls),
(2070,696,o),
(1798,856,o),
(1348,856,cs),
(884,856,ls),
(426,856,o),
(154,696,o),
(156,276,cs),
(156,0,l),
(676,0,l)
);
},
{
closed = 1;
nodes = (
(584,1488,l),
(584,1188,l),
(1720,1188,l),
(1720,1488,l)
);
},
{
closed = 1;
nodes = (
(1088,488,l),
(1352,488,l),
(1952,1488,l),
(1392,1488,l),
(1040,700,l)
);
},
{
closed = 1;
nodes = (
(304,1488,l),
(904,488,l),
(1168,488,l),
(1224,692,l),
(864,1488,l)
);
},
{
closed = 1;
nodes = (
(868,636,l),
(868,0,l),
(1380,0,l),
(1380,636,l)
);
}
);
};
layerId = "5C20EF92-B63D-42A8-8878-93C2863E0093";
shapes = (
{
closed = 1;
nodes = (
(676,276,ls),
(674,436,o),
(754,472,o),
(884,472,cs),
(1348,472,ls),
(1502,472,o),
(1554,412,o),
(1556,276,cs),
(1556,0,l),
(2072,0,l),
(2072,276,ls),
(2070,696,o),
(1798,856,o),
(1348,856,cs),
(884,856,ls),
(426,856,o),
(154,696,o),
(156,276,cs),
(156,0,l),
(676,0,l)
);
},
{
closed = 1;
nodes = (
(584,1536,l),
(584,1236,l),
(1720,1236,l),
(1720,1536,l)
);
},
{
closed = 1;
nodes = (
(1088,488,l),
(1352,488,l),
(1980,1536,l),
(1414,1536,l),
(1040,700,l)
);
},
{
closed = 1;
nodes = (
(276,1536,l),
(904,488,l),
(1168,488,l),
(1224,692,l),
(864,1536,l)
);
},
{
closed = 1;
nodes = (
(868,636,l),
(868,0,l),
(1380,0,l),
(1380,636,l)
);
}
);
width = 2228;
},
{
layerId = "B1F27B51-9973-4381-9301-4FE46FE1CA59";
shapes = (
{
closed = 1;
nodes = (
(220,128,ls),
(220,514,o),
(365,676,o),
(712,676,cs),
(1144,676,ls),
(1490,676,o),
(1632,516,o),
(1632,128,cs),
(1632,0,l),
(1696,0,l),
(1696,128,ls),
(1696,550,o),
(1525,740,o),
(1144,740,cs),
(712,740,ls),
(329,740,o),
(156,551,o),
(156,128,cs),
(156,0,l),
(220,0,l)
);
},
{
closed = 1;
nodes = (
(424,1536,l),
(424,1472,l),
(1424,1472,l),
(1424,1536,l)
);
},
{
closed = 1;
nodes = (
(934,664,l),
(948,664,l),
(1486,1536,l),
(1412,1536,l),
(898,704,l)
);
},
{
closed = 1;
nodes = (
(370,1536,l),
(908,664,l),
(922,664,l),
(958,704,l),
(444,1536,l)
);
},
{
closed = 1;
nodes = (
(894,740,l),
(894,0,l),
(958,0,l),
(958,740,l)
);
}
);
width = 1850;
},
{
associatedMasterId = "CD0E3B44-F66A-4791-B84C-A1128DC61275";
layerId = "7D4661E4-F2FD-40D8-BAA1-2392E291EAE3";
shapes = (
{
closed = 1;
nodes = (
(426,222,ls),
(426,526,o),
(536,608,o),
(766,608,cs),
(1210,608,ls),
(1438,608,o),
(1548,526,o),
(1548,222,cs),
(1548,0,l),
(1830,0,l),
(1830,222,ls),
(1830,668,o),
(1596,832,o),
(1210,832,cs),
(766,832,ls),
(376,832,o),
(144,668,o),
(144,222,cs),
(144,0,l),
(426,0,l)
);
},
{
closed = 1;
nodes = (
(548,1536,l),
(548,1314,l),
(1494,1314,l),
(1494,1536,l)
);
},
{
closed = 1;
nodes = (
(954,570,l),
(1122,570,l),
(1690,1536,l),
(1374,1536,l),
(910,676,l)
);
},
{
closed = 1;
nodes = (
(298,1536,l),
(872,570,l),
(1038,570,l),
(1086,668,l),
(616,1536,l)
);
},
{
closed = 1;
nodes = (
(852,796,l),
(852,0,l),
(1134,0,l),
(1134,796,l)
);
}
);
width = 1973.2;
},
{
layerId = "CD0E3B44-F66A-4791-B84C-A1128DC61275";
shapes = (
{
closed = 1;
nodes = (
(436,222,ls),
(436,526,o),
(546,608,o),
(776,608,cs),
(1220,608,ls),
(1448,608,o),
(1558,526,o),
(1558,222,cs),
(1558,0,l),
(1840,0,l),
(1840,222,ls),
(1840,668,o),
(1606,832,o),
(1220,832,cs),
(776,832,ls),
(386,832,o),
(154,668,o),
(154,222,cs),
(154,0,l),
(436,0,l)
);
},
{
closed = 1;
nodes = (
(558,1536,l),
(558,1314,l),
(1504,1314,l),
(1504,1536,l)
);
},
{
closed = 1;
nodes = (
(964,570,l),
(1132,570,l),
(1700,1536,l),
(1384,1536,l),
(920,676,l)
);
},
{
closed = 1;
nodes = (
(308,1536,l),
(882,570,l),
(1048,570,l),
(1096,668,l),
(626,1536,l)
);
},
{
closed = 1;
nodes = (
(862,796,l),
(862,0,l),
(1144,0,l),
(1144,796,l)
);
}
);
width = 1994;
}
);
unicode = 1131;
userData = {
interface.gridadjust.original = "{'width': 2089, 'leftMargin': 205, 'rightMargin': 205}";
"interface.width-adjustments" = (
-16
);
};
}
{
glyphname = yusbigiotifiedcyrillic;
layers = (
{
background = {
shapes = (
{
closed = 1;
nodes = (
(300,856,l),
(300,496,l),
(1716,496,l),
(1716,856,l)
);
},
{
closed = 1;
nodes = (
(124,1536,l),
(124,0,l),
(676,0,l),
(676,1536,l)
);
},
{
closed = 1;
nodes = (
(1500,276,ls),
(1499,440,o),
(1583,472,o),
(1708,472,cs),
(2176,472,ls),
(2331,472,o),
(2379,412,o),
(2380,276,cs),
(2380,0,l),
(2896,0,l),
(2896,276,ls),
(2895,696,o),
(2623,856,o),
(2176,856,cs),
(1708,856,ls),
(1255,856,o),
(979,696,o),
(980,276,cs),
(980,0,l),
(1500,0,l)
);
},
{
closed = 1;
nodes = (
(1412,1488,l),
(1412,1188,l),
(2544,1188,l),
(2544,1488,l)
);
},
{
closed = 1;
nodes = (
(1912,488,l),
(2176,488,l),
(2776,1488,l),
(2220,1488,l),
(1864,700,l)
);
},
{
closed = 1;
nodes = (
(1132,1488,l),
(1728,488,l),
(1996,488,l),
(2052,692,l),
(1688,1488,l)
);
},
{
closed = 1;
nodes = (
(1692,636,l),
(1692,0,l),
(2204,0,l),
(2204,636,l)
);
}
);
};
layerId = "5C20EF92-B63D-42A8-8878-93C2863E0093";
shapes = (
{
closed = 1;
nodes = (
(300,856,l),
(300,496,l),
(1716,496,l),
(1716,856,l)
);
},
{
closed = 1;
nodes = (
(124,1536,l),
(124,0,l),
(676,0,l),
(676,1536,l)
);
},
{
closed = 1;
nodes = (
(1500,276,ls),
(1500,436,o),
(1578,472,o),
(1708,472,cs),
(2172,472,ls),
(2326,472,o),
(2380,412,o),
(2380,276,cs),
(2380,0,l),
(2896,0,l),
(2896,276,ls),
(2896,696,o),
(2622,856,o),
(2172,856,cs),
(1708,856,ls),
(1250,856,o),
(980,696,o),
(980,276,cs),
(980,0,l),
(1500,0,l)
);
},
{
closed = 1;
nodes = (
(1408,1536,l),
(1408,1236,l),
(2544,1236,l),
(2544,1536,l)
);
},
{
closed = 1;
nodes = (
(1912,488,l),
(2176,488,l),
(2804,1536,l),
(2238,1536,l),
(1864,700,l)
);
},
{
closed = 1;
nodes = (
(1100,1536,l),
(1728,488,l),
(1992,488,l),
(2048,692,l),
(1688,1536,l)
);
},
{
closed = 1;
nodes = (
(1692,636,l),
(1692,0,l),
(2204,0,l),
(2204,636,l)
);
}
);
width = 3028;
},
{
background = {
shapes = (
{
closed = 1;
nodes = (
(264,740,l),
(264,676,l),
(1428,676,l),
(1428,740,l)
);
},
{
closed = 1;
nodes = (
(248,1536,l),
(248,0,l),
(312,0,l),
(312,1536,l)
);
},
{
closed = 1;
nodes = (
(844,128,ls),
(844,514,o),
(989,676,o),
(1336,676,cs),
(1768,676,ls),
(2114,676,o),
(2256,516,o),
(2256,128,cs),
(2256,0,l),
(2320,0,l),
(2320,128,ls),
(2320,550,o),
(2149,740,o),
(1768,740,cs),
(1336,740,ls),
(953,740,o),
(780,551,o),
(780,128,cs),
(780,0,l),
(844,0,l)
);
},
{
closed = 1;
nodes = (
(1088,1488,l),
(1088,1424,l),
(2008,1424,l),
(2008,1488,l)
);
},
{
closed = 1;
nodes = (
(1558,664,l),
(1572,664,l),
(2076,1488,l),
(2002,1488,l),
(1522,704,l)
);
},
{
closed = 1;
nodes = (
(1024,1488,l),
(1532,664,l),
(1546,664,l),
(1582,704,l),
(1098,1488,l)
);
},
{
closed = 1;
nodes = (
(1518,740,l),
(1518,0,l),
(1582,0,l),
(1582,740,l)
);
}
);
};
layerId = "B1F27B51-9973-4381-9301-4FE46FE1CA59";
shapes = (
{
closed = 1;
nodes = (
(232,740,l),
(232,676,l),
(1396,676,l),
(1396,740,l)
);
},
{
closed = 1;
nodes = (
(216,1536,l),
(216,0,l),
(280,0,l),
(280,1536,l)
);
},
{
closed = 1;
nodes = (
(814,128,ls),
(814,514,o),
(959,676,o),
(1306,676,cs),
(1738,676,ls),
(2084,676,o),
(2226,516,o),
(2226,128,cs),
(2226,0,l),
(2290,0,l),
(2290,128,ls),
(2290,550,o),
(2119,740,o),
(1738,740,cs),
(1306,740,ls),
(923,740,o),
(750,551,o),
(750,128,cs),
(750,0,l),
(814,0,l)
);
},
{
closed = 1;
nodes = (
(1018,1536,l),
(1018,1472,l),
(2018,1472,l),
(2018,1536,l)
);
},
{
closed = 1;
nodes = (
(1528,664,l),
(1542,664,l),
(2080,1536,l),
(2006,1536,l),
(1492,704,l)
);
},
{
closed = 1;
nodes = (
(964,1536,l),
(1502,664,l),
(1516,664,l),
(1552,704,l),
(1038,1536,l)
);
},
{
closed = 1;
nodes = (
(1488,740,l),
(1488,0,l),
(1552,0,l),
(1552,740,l)
);
}
);
width = 2442;
},
{
associatedMasterId = "CD0E3B44-F66A-4791-B84C-A1128DC61275";
layerId = "A9A6EED5-A5F0-4237-9952-112DE1EE2984";
shapes = (
{
closed = 1;
nodes = (
(318,832,l),
(318,610,l),
(1716,610,l),
(1716,832,l)
);
},
{
closed = 1;
nodes = (
(166,1536,l),
(166,0,l),
(410,0,l),
(410,1536,l)
);
},
{
closed = 1;
nodes = (
(1110,222,ls),
(1110,526,o),
(1220,608,o),
(1450,608,cs),
(1894,608,ls),
(2120,608,o),
(2232,526,o),
(2232,222,cs),
(2232,0,l),
(2514,0,l),
(2514,222,ls),
(2514,668,o),
(2280,832,o),
(1894,832,cs),
(1450,832,ls),
(1060,832,o),
(828,668,o),
(828,222,cs),
(828,0,l),
(1110,0,l)
);
},
{
closed = 1;
nodes = (
(1232,1536,l),
(1232,1314,l),
(2176,1314,l),
(2176,1536,l)
);
},
{
closed = 1;
nodes = (
(1638,570,l),
(1804,570,l),
(2374,1536,l),
(2058,1536,l),
(1594,676,l)
);
},
{
closed = 1;
nodes = (
(982,1536,l),
(1556,570,l),
(1722,570,l),
(1770,668,l),
(1300,1536,l)
);
},
{
closed = 1;
nodes = (
(1536,796,l),
(1536,0,l),
(1818,0,l),
(1818,796,l)
);
}
);
width = 2741.98491;
},
{
layerId = "CD0E3B44-F66A-4791-B84C-A1128DC61275";
shapes = (
{
closed = 1;
nodes = (
(330,832,l),
(330,610,l),
(1728,610,l),
(1728,832,l)
);
},
{
closed = 1;
nodes = (
(178,1536,l),
(178,0,l),
(422,0,l),
(422,1536,l)
);
},
{
closed = 1;
nodes = (
(1122,222,ls),
(1122,526,o),
(1232,608,o),
(1462,608,cs),
(1906,608,ls),
(2132,608,o),
(2244,526,o),
(2244,222,cs),
(2244,0,l),
(2526,0,l),
(2526,222,ls),
(2526,668,o),
(2292,832,o),
(1906,832,cs),
(1462,832,ls),
(1072,832,o),
(840,668,o),
(840,222,cs),
(840,0,l),
(1122,0,l)
);
},
{
closed = 1;
nodes = (
(1244,1536,l),
(1244,1314,l),
(2188,1314,l),
(2188,1536,l)
);
},
{
closed = 1;
nodes = (
(1650,570,l),
(1816,570,l),
(2386,1536,l),
(2070,1536,l),
(1606,676,l)
);
},
{
closed = 1;
nodes = (
(994,1536,l),
(1568,570,l),
(1734,570,l),
(1782,668,l),
(1312,1536,l)
);
},
{
closed = 1;
nodes = (
(1548,796,l),
(1548,0,l),
(1830,0,l),
(1830,796,l)
);
}
);
width = 2768;
}
);
unicode = 1133;
userData = {
interface.gridadjust.original = "{'width': 2783.0, 'leftMargin': 256, 'rightMargin': 223.0}";
"interface.width-adjustments" = (
-16
);
};
}
{
color = (204,240,242,1);
glyphname = thousandcyrillic;
layers = (
{
layerId = "5C20EF92-B63D-42A8-8878-93C2863E0093";
shapes = (
{
closed = 1;
nodes = (
(1644,880,l),
(1752,1052,l),
(1328,1288,l),
(1656,1844,l),
(1408,1844,l),
(1144,1396,l),
(724,1632,l),
(612,1452,l),
(1036,1220,l),
(744,724,l),
(320,960,l),
(220,784,l),
(636,548,l),
(312,0,l),
(564,0,l),
(824,440,l),
(1244,204,l),
(1348,380,l),
(928,616,l),
(1228,1112,l)
);
}
);
width = 1968;
},
{
layerId = "B1F27B51-9973-4381-9301-4FE46FE1CA59";
shapes = (
{
closed = 1;
nodes = (
(1446,940,l),
(1474,996,l),
(1020,1274,l),
(1334,1844,l),
(1262,1844,l),
(966,1306,l),
(526,1576,l),
(498,1520,l),
(936,1252,l),
(596,630,l),
(154,900,l),
(126,844,l),
(566,576,l),
(250,0,l),
(322,0,l),
(620,542,l),
(1074,264,l),
(1102,320,l),
(650,596,l),
(990,1218,l)
);
}
);
width = 1598;
},
{
associatedMasterId = "CD0E3B44-F66A-4791-B84C-A1128DC61275";
layerId = "9403844C-BE85-4240-8D8F-D671144BAAEB";
shapes = (
{
closed = 1;
nodes = (
(1488,880,l),
(1592,1052,l),
(1186,1288,l),
(1500,1844,l),
(1264,1844,l),
(1010,1396,l),
(610,1632,l),
(510,1452,l),
(906,1220,l),
(630,724,l),
(226,960,l),
(130,784,l),
(526,548,l),
(218,0,l),
(458,0,l),
(706,440,l),
(1106,204,l),
(1206,380,l),
(806,616,l),
(1090,1112,l)
);
}
);
width = 1717.10189;
},
{
layerId = "CD0E3B44-F66A-4791-B84C-A1128DC61275";
shapes = (
{
closed = 1;
nodes = (
(1496,880,l),
(1600,1052,l),
(1194,1288,l),
(1508,1844,l),
(1272,1844,l),
(1018,1396,l),
(618,1632,l),
(518,1452,l),
(914,1220,l),
(638,724,l),
(234,960,l),
(138,784,l),
(534,548,l),
(226,0,l),
(466,0,l),
(714,440,l),
(1114,204,l),
(1214,380,l),
(814,616,l),
(1098,1112,l)
);
}
);
width = 1734;
}
);
unicode = 1154;
userData = {
interface.gridadjust.original = "{'width': 1766, 'leftMargin': 154, 'rightMargin': 152}";
"interface.width-adjustments" = (
-16
);
};
}
{
glyphname = uni048D;
layers = (
{
layerId = "5C20EF92-B63D-42A8-8878-93C2863E0093";
shapes = (
{
closed = 1;
nodes = (
(100,2004,l),
(100,1724,l),
(1108,1724,l),
(1108,2004,l)
);
},
{
closed = 1;
nodes = (
(600,708,l),
(1072,708,l),
(1185,708,o),
(1266,645,o),
(1268,556,c),
(1266,472,o),
(1185,412,o),
(1072,412,c),
(812,412,l),
(812,2180,l),
(292,2180,l),
(292,0,l),
(1072,0,l),
(1510,0,o),
(1778,209,o),
(1780,552,c),
(1778,905,o),
(1510,1120,o),
(1072,1120,c),
(600,1120,l)
);
}
);
width = 1872;
},
{
layerId = "B1F27B51-9973-4381-9301-4FE46FE1CA59";
shapes = (
{
closed = 1;
nodes = (
(-48,1944,l),
(-48,1880,l),
(916,1880,l),
(916,1944,l)
);
},
{
closed = 1;
nodes = (
(304,804,l),
(772,804,ls),
(1050,804,o),
(1220,698,o),
(1220,436,cs),
(1220,168,o),
(1050,64,o),
(772,64,cs),
(332,64,l),
(332,2380,l),
(268,2380,l),
(268,0,l),
(772,0,ls),
(1088,0,o),
(1284,132,o),
(1284,436,cs),
(1284,737,o),
(1089,868,o),
(772,868,cs),
(304,868,l)
);
}
);
width = 1432;
},
{
associatedMasterId = "CD0E3B44-F66A-4791-B84C-A1128DC61275";
layerId = "E633095F-3ADF-494E-826C-6C95A4CDC428";
shapes = (
{
closed = 1;
nodes = (
(-2,2004,l),
(-2,1782,l),
(978,1782,l),
(978,2004,l)
);
},
{
closed = 1;
nodes = (
(470,758,l),
(912,758,ls),
(1096,758,o),
(1228,646,o),
(1228,486,cs),
(1228,332,o),
(1096,224,o),
(912,224,cs),
(508,224,l),
(508,2300,l),
(264,2300,l),
(264,0,l),
(912,0,ls),
(1274,0,o),
(1472,220,o),
(1472,498,cs),
(1472,780,o),
(1274,984,o),
(912,984,cs),
(470,984,l)
);
}
);
width = 1582.08302;
},
{
layerId = "CD0E3B44-F66A-4791-B84C-A1128DC61275";
shapes = (
{
closed = 1;
nodes = (
(6,2004,l),
(6,1782,l),
(986,1782,l),
(986,2004,l)
);
},
{
closed = 1;
nodes = (
(478,758,l),
(920,758,ls),
(1104,758,o),
(1236,646,o),
(1236,486,cs),
(1236,332,o),
(1104,224,o),
(920,224,cs),
(516,224,l),
(516,2300,l),
(272,2300,l),
(272,0,l),
(920,0,ls),
(1282,0,o),
(1480,220,o),
(1480,498,cs),
(1480,780,o),
(1282,984,o),
(920,984,cs),
(478,984,l)
);
}
);
width = 1602;
}
);
metricRight = b;
unicode = 1165;
userData = {
interface.gridadjust.original = "{'width': 1532, 'leftMargin': -52, 'rightMargin': 121}";
"interface.width-adjustments" = (
-16
);
};
}
{
glyphname = afii10050;
kernLeft = B;
kernRight = T;
layers = (
{
layerId = "5C20EF92-B63D-42A8-8878-93C2863E0093";
shapes = (
{
closed = 1;
nodes = (
(688,0,l),
(688,1600,l),
(1584,1600,l),
(1584,2572,l),
(1064,2572,l),
(1064,2048,l),
(132,2048,l),
(132,0,l)
);
}
);
width = 1660;
},
{
layerId = "B1F27B51-9973-4381-9301-4FE46FE1CA59";
shapes = (
{
closed = 1;
nodes = (
(352,0,l),
(352,1984,l),
(1396,1984,l),
(1396,2464,l),
(1332,2464,l),
(1332,2048,l),
(288,2048,l),
(288,0,l)
);
}
);
width = 1536;
},
{
associatedMasterId = "CD0E3B44-F66A-4791-B84C-A1128DC61275";
layerId = "C5400D04-B8B9-44A8-B1E3-4BC7A2E19F6F";
shapes = (
{
closed = 1;
nodes = (
(468,0,l),
(468,1822,l),
(1454,1822,l),
(1454,2506,l),
(1200,2506,l),
(1200,2048,l),
(214,2048,l),
(214,0,l)
);
}
);
width = 1557.37358;
},
{
layerId = "CD0E3B44-F66A-4791-B84C-A1128DC61275";
shapes = (
{
closed = 1;
nodes = (
(480,0,l),
(480,1822,l),
(1466,1822,l),
(1466,2506,l),
(1212,2506,l),
(1212,2048,l),
(226,2048,l),
(226,0,l)
);
}
);
width = 1580;
}
);
metricLeft = B;
metricRight = T;
unicode = 1168;
userData = {
interface.gridadjust.original = "{'width': 1546, 'leftMargin': 257, 'rightMargin': 53}";
"interface.width-adjustments" = (
-16
);
};
}
{
color = 1;
glyphname = u.sups;
kernLeft = u.sups;
kernRight = u.sups;
layers = (
{
layerId = "5C20EF92-B63D-42A8-8878-93C2863E0093";
shapes = (
{
closed = 1;
nodes = (
(740,1368,o),
(648,1320,o),
(580,1320,cs),
(504,1320,o),
(452,1376,o),
(452,1476,cs),
(452,2048,l),
(88,2048,l),
(88,1412,ls),
(88,1152,o),
(228,1012,o),
(428,1012,cs),
(592,1012,o),
(696,1100,o),
(740,1216,c),
(752,1216,l),
(752,1024,l),
(1100,1024,l),
(1100,2048,l),
(740,2048,l),
(740,1500,ls)
);
}
);
userData = {
RMXScaler = {
height = 66.6;
verticalShift = 1024;
weight = -300;
width = 66.6;
};
};
width = 1188;
},
{
layerId = "B1F27B51-9973-4381-9301-4FE46FE1CA59";
shapes = (
{
closed = 1;
nodes = (
(804,1192,o),
(668,1072,o),
(500,1072,cs),
(328,1072,o),
(204,1192,o),
(204,1368,cs),
(204,2048,l),
(144,2048,l),
(144,1364,ls),
(144,1152,o),
(288,1012,o),
(488,1012,cs),
(636,1012,o),
(748,1084,o),
(796,1188,c),
(804,1188,l),
(804,1024,l),
(864,1024,l),
(864,2048,l),
(804,2048,l),
(804,1372,ls)
);
}
);
userData = {
RMXScaler = {
height = 66.6;
verticalShift = 1024;
width = 66.6;
};
};
width = 1008;
},
{
associatedMasterId = "CD0E3B44-F66A-4791-B84C-A1128DC61275";
layerId = "D527957B-E1F1-414B-83DB-B15D707B8B3C";
shapes = (
{
closed = 1;
nodes = (
(756,1282,o),
(644,1196,o),
(528,1196,cs),
(402,1196,o),
(314,1286,o),
(314,1422,cs),
(314,2048,l),
(100,2048,l),
(100,1388,ls),
(100,1156,o),
(240,1012,o),
(444,1012,cs),
(596,1012,o),
(708,1088,o),
(756,1204,c),
(764,1204,l),
(764,1024,l),
(970,1024,l),
(970,2048,l),
(756,2048,l),
(756,1434,ls)
);
}
);
userData = {
RMXScaler = {
height = 66.6;
verticalShift = 1024;
weight = -50;
width = 66.6;
};
};
width = 1069.76604;
},
{
layerId = "CD0E3B44-F66A-4791-B84C-A1128DC61275";
shapes = (
{
closed = 1;
nodes = (
(766,1282,o),
(654,1196,o),
(538,1196,cs),
(412,1196,o),
(324,1286,o),
(324,1422,cs),
(324,2048,l),
(110,2048,l),
(110,1388,ls),
(110,1156,o),
(250,1012,o),
(454,1012,cs),
(606,1012,o),
(718,1088,o),
(766,1204,c),
(774,1204,l),
(774,1024,l),
(980,1024,l),
(980,2048,l),
(766,2048,l),
(766,1434,ls)
);
}
);
userData = {
RMXScaler = {
height = 66.6;
verticalShift = 1024;
weight = -50;
width = 66.6;
};
};
width = 1090;
}
);
metricLeft = m.sups;
unicode = 7512;
userData = {
RMXScaler = {
source = u;
};
};
}
{
color = 1;
glyphname = v.sups;
kernLeft = v.sups;
kernRight = v.sups;
layers = (
{
layerId = "5C20EF92-B63D-42A8-8878-93C2863E0093";
shapes = (
{
closed = 1;
nodes = (
(744,2048,l),
(576,1404,l),
(564,1404,l),
(396,2048,l),
(12,2048,l),
(372,1024,l),
(772,1024,l),
(1132,2048,l)
);
}
);
userData = {
RMXScaler = {
height = 66.6;
verticalShift = 1024;
weight = -300;
width = 66.6;
};
};
width = 1144;
},
{
layerId = "B1F27B51-9973-4381-9301-4FE46FE1CA59";
shapes = (
{
closed = 1;
nodes = (
(804,2048,l),
(468,1104,l),
(460,1104,l),
(128,2048,l),
(60,2048,l),
(428,1024,l),
(504,1024,l),
(868,2048,l)
);
}
);
userData = {
RMXScaler = {
height = 66.6;
verticalShift = 1024;
width = 66.6;
};
};
width = 928;
},
{
associatedMasterId = "CD0E3B44-F66A-4791-B84C-A1128DC61275";
layerId = "528634D4-2154-4A18-82C3-AE49F1132E92";
shapes = (
{
closed = 1;
nodes = (
(756,2048,l),
(510,1252,l),
(498,1252,l),
(248,2048,l),
(20,2048,l),
(380,1024,l),
(628,1024,l),
(988,2048,l)
);
}
);
userData = {
RMXScaler = {
height = 66.6;
verticalShift = 1024;
weight = -50;
width = 66.6;
};
};
width = 1006.2566;
},
{
layerId = "CD0E3B44-F66A-4791-B84C-A1128DC61275";
shapes = (
{
closed = 1;
nodes = (
(766,2048,l),
(520,1252,l),
(508,1252,l),
(258,2048,l),
(30,2048,l),
(390,1024,l),
(638,1024,l),
(998,2048,l)
);
}
);
userData = {
RMXScaler = {
height = 66.6;
verticalShift = 1024;
weight = -50;
width = 66.6;
};
};
width = 1028;
}
);
unicode = 7515;
userData = {
RMXScaler = {
source = v;
};
};
}
{
color = 1;
glyphname = c.sups;
kernLeft = c.sups;
kernRight = c.sups;
layers = (
{
layerId = "5C20EF92-B63D-42A8-8878-93C2863E0093";
shapes = (
{
closed = 1;
nodes = (
(880,1004,o),
(1060,1172,o),
(1068,1416,c),
(724,1416,l),
(712,1340,o),
(668,1292,o),
(588,1292,cs),
(484,1292,o),
(424,1372,o),
(424,1536,cs),
(424,1696,o),
(484,1776,o),
(588,1776,cs),
(672,1776,o),
(712,1728,o),
(728,1648,c),
(1068,1648,l),
(1064,1888,o),
(884,2060,o),
(580,2060,cs),
(252,2060,o),
(56,1848,o),
(56,1532,cs),
(56,1216,o),
(248,1004,o),
(584,1004,cs)
);
}
);
userData = {
RMXScaler = {
height = 66.6;
verticalShift = 1024;
weight = -300;
width = 66.6;
};
};
width = 1116;
},
{
layerId = "B1F27B51-9973-4381-9301-4FE46FE1CA59";
shapes = (
{
closed = 1;
nodes = (
(708,1004,o),
(864,1132,o),
(892,1324,c),
(828,1324,l),
(804,1164,o),
(672,1060,o),
(520,1060,cs),
(296,1060,o),
(144,1272,o),
(144,1532,cs),
(144,1804,o),
(304,2004,o),
(520,2004,cs),
(672,2004,o),
(800,1896,o),
(824,1748,c),
(888,1748,l),
(860,1936,o),
(704,2064,o),
(520,2064,cs),
(264,2064,o),
(84,1832,o),
(84,1532,cs),
(84,1232,o),
(264,1004,o),
(520,1004,cs)
);
}
);
userData = {
RMXScaler = {
height = 66.6;
verticalShift = 1024;
width = 66.6;
};
};
width = 976;
},
{
associatedMasterId = "CD0E3B44-F66A-4791-B84C-A1128DC61275";
layerId = "F304B2AB-C757-462A-960F-9F9B80869836";
shapes = (
{
closed = 1;
nodes = (
(782,1004,o),
(946,1152,o),
(966,1374,c),
(758,1374,l),
(738,1242,o),
(640,1178,o),
(536,1178,cs),
(378,1178,o),
(272,1318,o),
(272,1536,cs),
(272,1750,o),
(382,1890,o),
(536,1890,cs),
(664,1890,o),
(742,1798,o),
(758,1694,c),
(966,1694,l),
(946,1916,o),
(774,2060,o),
(532,2060,cs),
(240,2060,o),
(52,1840,o),
(52,1532,cs),
(52,1224,o),
(240,1004,o),
(532,1004,cs)
);
}
);
userData = {
RMXScaler = {
height = 66.6;
verticalShift = 1024;
weight = -50;
width = 66.6;
};
};
width = 1017.27547;
},
{
layerId = "CD0E3B44-F66A-4791-B84C-A1128DC61275";
shapes = (
{
closed = 1;
nodes = (
(792,1004,o),
(956,1152,o),
(976,1374,c),
(768,1374,l),
(748,1242,o),
(650,1178,o),
(546,1178,cs),
(388,1178,o),
(282,1318,o),
(282,1536,cs),
(282,1750,o),
(392,1890,o),
(546,1890,cs),
(674,1890,o),
(752,1798,o),
(768,1694,c),
(976,1694,l),
(956,1916,o),
(784,2060,o),
(542,2060,cs),
(250,2060,o),
(62,1840,o),
(62,1532,cs),
(62,1224,o),
(250,1004,o),
(542,1004,cs)
);
}
);
userData = {
RMXScaler = {
height = 66.6;
verticalShift = 1024;
weight = -50;
width = 66.6;
};
};
width = 1038;
}
);
metricLeft = o.sups;
unicode = 7580;
userData = {
RMXScaler = {
source = c;
};
};
}
{
color = (250,227,227,1);
glyphname = uni1DC2;
layers = (
{
layerId = "5C20EF92-B63D-42A8-8878-93C2863E0093";
shapes = (
{
closed = 1;
nodes = (
(-1116,-296,l),
(-1062,-268,o),
(-1002,-248,o),
(-940,-248,cs),
(-930,-248,o),
(-898,-248,o),
(-896,-272,cs),
(-898,-292,o),
(-1130,-316,o),
(-1128,-376,cs),
(-1130,-468,o),
(-938,-448,o),
(-936,-476,cs),
(-938,-488,o),
(-1130,-496,o),
(-1128,-576,cs),
(-1130,-656,o),
(-998,-740,o),
(-764,-764,c),
(-728,-608,l),
(-830,-596,o),
(-862,-572,o),
(-860,-560,cs),
(-862,-536,o),
(-666,-532,o),
(-664,-472,cs),
(-666,-372,o),
(-862,-388,o),
(-860,-360,cs),
(-862,-332,o),
(-674,-328,o),
(-672,-236,cs),
(-674,-140,o),
(-778,-84,o),
(-904,-84,cs),
(-994,-84,o),
(-1122,-108,o),
(-1204,-156,c)
);
}
);
width = 0;
},
{
layerId = "B1F27B51-9973-4381-9301-4FE46FE1CA59";
shapes = (
{
closed = 1;
nodes = (
(-948,-272,l),
(-862,-230,o),
(-799,-212,o),
(-744,-212,cs),
(-680,-212,o),
(-652,-225,o),
(-652,-256,cs),
(-652,-352,o),
(-884,-338,o),
(-884,-422,cs),
(-884,-506,o),
(-632,-512,o),
(-632,-550,cs),
(-632,-607,o),
(-884,-557,o),
(-884,-660,cs),
(-884,-739,o),
(-739,-759,o),
(-592,-764,c),
(-578,-702,l),
(-702,-697,o),
(-825,-693,o),
(-824,-668,cs),
(-822,-627,o),
(-567,-666,o),
(-568,-550,cs),
(-567,-455,o),
(-820,-458,o),
(-820,-424,cs),
(-820,-384,o),
(-588,-395,o),
(-588,-258,cs),
(-588,-203,o),
(-630,-148,o),
(-732,-148,cs),
(-814,-148,o),
(-891,-172,o),
(-980,-220,c)
);
}
);
width = 0;
},
{
associatedMasterId = "CD0E3B44-F66A-4791-B84C-A1128DC61275";
layerId = "452EC0C7-D5EA-4780-8E01-1BEFB22FDAB4";
shapes = (
{
closed = 1;
nodes = (
(-1016,-296,l),
(-960,-268,o),
(-896,-244,o),
(-832,-244,cs),
(-800,-244,o),
(-780,-252,o),
(-780,-276,cs),
(-780,-308,o),
(-992,-328,o),
(-992,-412,cs),
(-992,-492,o),
(-780,-488,o),
(-780,-516,cs),
(-780,-554,o),
(-992,-528,o),
(-992,-626,cs),
(-992,-706,o),
(-852,-752,o),
(-670,-764,c),
(-646,-658,l),
(-762,-650,o),
(-830,-638,o),
(-830,-626,cs),
(-830,-590,o),
(-618,-614,o),
(-618,-512,cs),
(-618,-422,o),
(-830,-430,o),
(-830,-400,cs),
(-830,-364,o),
(-634,-370,o),
(-634,-256,cs),
(-634,-186,o),
(-686,-124,o),
(-810,-124,cs),
(-902,-124,o),
(-1000,-148,o),
(-1080,-196,c)
);
}
);
width = 0.49057;
},
{
layerId = "CD0E3B44-F66A-4791-B84C-A1128DC61275";
shapes = (
{
closed = 1;
nodes = (
(-1012,-296,l),
(-956,-268,o),
(-892,-244,o),
(-828,-244,cs),
(-796,-244,o),
(-776,-252,o),
(-776,-276,cs),
(-776,-308,o),
(-988,-328,o),
(-988,-412,cs),
(-988,-492,o),
(-776,-488,o),
(-776,-516,cs),
(-776,-554,o),
(-988,-528,o),
(-988,-626,cs),
(-988,-706,o),
(-848,-752,o),
(-666,-764,c),
(-642,-658,l),
(-758,-650,o),
(-826,-638,o),
(-826,-626,cs),
(-826,-590,o),
(-614,-614,o),
(-614,-512,cs),
(-614,-422,o),
(-826,-430,o),
(-826,-400,cs),
(-826,-364,o),
(-630,-370,o),
(-630,-256,cs),
(-630,-186,o),
(-682,-124,o),
(-806,-124,cs),
(-898,-124,o),
(-996,-148,o),
(-1076,-196,c)
);
}
);
width = 2;
}
);
unicode = 7618;
}
{
color = (250,227,227,1);
glyphname = uni1DC3;
layers = (
{
layerId = "5C20EF92-B63D-42A8-8878-93C2863E0093";
shapes = (
{
closed = 1;
nodes = (
(-1120,1856,l),
(-964,1600,l),
(-288,1976,l),
(-444,2232,l)
);
},
{
closed = 1;
nodes = (
(-964,1600,l),
(-804,1856,l),
(-1192,2068,l),
(-1348,1812,l)
);
}
);
width = 0;
},
{
layerId = "B1F27B51-9973-4381-9301-4FE46FE1CA59";
shapes = (
{
closed = 1;
nodes = (
(-704,1752,l),
(-672,1696,l),
(-220,1964,l),
(-252,2020,l)
);
},
{
closed = 1;
nodes = (
(-672,1696,l),
(-648,1754,l),
(-976,1954,l),
(-1008,1896,l)
);
}
);
width = 0;
},
{
associatedMasterId = "CD0E3B44-F66A-4791-B84C-A1128DC61275";
layerId = "11B669E8-5735-4753-9A19-4A7C14962DEA";
shapes = (
{
closed = 1;
nodes = (
(-902,1836,l),
(-796,1658,l),
(-258,1968,l),
(-362,2146,l)
);
},
{
closed = 1;
nodes = (
(-796,1658,l),
(-696,1836,l),
(-1048,2040,l),
(-1154,1862,l)
);
}
);
width = 0;
},
{
layerId = "CD0E3B44-F66A-4791-B84C-A1128DC61275";
shapes = (
{
closed = 1;
nodes = (
(-896,1836,l),
(-790,1658,l),
(-252,1968,l),
(-356,2146,l)
);
},
{
closed = 1;
nodes = (
(-790,1658,l),
(-690,1836,l),
(-1042,2040,l),
(-1148,1862,l)
);
}
);
width = 4;
}
);
unicode = 7619;
}
{
color = (250,227,227,1);
glyphname = uni1DD2;
layers = (
{
layerId = "5C20EF92-B63D-42A8-8878-93C2863E0093";
shapes = (
{
closed = 1;
nodes = (
(-920,1960,o),
(-860,1984,o),
(-816,2012,c),
(-852,2160,l),
(-892,2140,o),
(-940,2132,o),
(-992,2132,cs),
(-1064,2132,o),
(-1152,2156,o),
(-1152,2288,cs),
(-1152,2404,o),
(-1056,2456,o),
(-952,2456,cs),
(-844,2456,o),
(-748,2388,o),
(-748,2192,cs),
(-748,1916,o),
(-1000,1828,o),
(-1196,1764,c),
(-1096,1580,l),
(-848,1644,o),
(-496,1760,o),
(-496,2180,cs),
(-496,2472,o),
(-696,2632,o),
(-980,2632,cs),
(-1224,2632,o),
(-1400,2488,o),
(-1400,2280,cs),
(-1400,2048,o),
(-1216,1960,o),
(-1020,1960,cs)
);
}
);
width = 0;
},
{
layerId = "B1F27B51-9973-4381-9301-4FE46FE1CA59";
shapes = (
{
closed = 1;
nodes = (
(-704,1960,o),
(-616,1976,o),
(-550,2006,c),
(-560,2066,l),
(-631,2035,o),
(-699,2024,o),
(-752,2024,cs),
(-912,2024,o),
(-1028,2126,o),
(-1028,2278,cs),
(-1028,2433,o),
(-904,2568,o),
(-736,2568,cs),
(-576,2568,o),
(-460,2444,o),
(-460,2214,cs),
(-460,1972,o),
(-585,1784,o),
(-876,1638,c),
(-852,1580,l),
(-536,1731,o),
(-396,1946,o),
(-396,2220,cs),
(-396,2486,o),
(-544,2632,o),
(-734,2632,cs),
(-934,2632,o),
(-1092,2470,o),
(-1092,2276,cs),
(-1092,2095,o),
(-955,1960,o),
(-770,1960,cs)
);
}
);
width = 0;
},
{
associatedMasterId = "CD0E3B44-F66A-4791-B84C-A1128DC61275";
layerId = "5F4E40A7-0515-47D6-B1C4-EF9AFD23E6D8";
shapes = (
{
closed = 1;
nodes = (
(-800,1960,o),
(-740,1980,o),
(-692,2012,c),
(-728,2120,l),
(-764,2104,o),
(-804,2096,o),
(-860,2096,cs),
(-978,2096,o),
(-1044,2156,o),
(-1044,2288,cs),
(-1044,2404,o),
(-962,2484,o),
(-844,2484,cs),
(-720,2484,o),
(-632,2388,o),
(-632,2212,cs),
(-632,1870,o),
(-844,1782,o),
(-1014,1728,c),
(-960,1580,l),
(-720,1644,o),
(-446,1800,o),
(-446,2216,cs),
(-446,2472,o),
(-618,2632,o),
(-848,2632,cs),
(-1052,2632,o),
(-1224,2488,o),
(-1226,2278,cs),
(-1224,2052,o),
(-1056,1960,o),
(-888,1960,cs)
);
}
);
width = 0;
},
{
layerId = "CD0E3B44-F66A-4791-B84C-A1128DC61275";
shapes = (
{
closed = 1;
nodes = (
(-794,1960,o),
(-734,1980,o),
(-686,2012,c),
(-722,2120,l),
(-758,2104,o),
(-798,2096,o),
(-854,2096,cs),
(-972,2096,o),
(-1038,2156,o),
(-1038,2288,cs),
(-1038,2404,o),
(-956,2484,o),
(-838,2484,cs),
(-714,2484,o),
(-626,2388,o),
(-626,2212,cs),
(-626,1870,o),
(-838,1782,o),
(-1008,1728,c),
(-954,1580,l),
(-714,1644,o),
(-440,1800,o),
(-440,2216,cs),
(-440,2472,o),
(-612,2632,o),
(-842,2632,cs),
(-1046,2632,o),
(-1218,2488,o),
(-1220,2278,cs),
(-1218,2052,o),
(-1050,1960,o),
(-882,1960,cs)
);
}
);
width = 4;
}
);
unicode = 7634;
}
{
color = (250,227,227,1);
glyphname = uni1DD5;
layers = (
{
layerId = "5C20EF92-B63D-42A8-8878-93C2863E0093";
shapes = (
{
closed = 1;
nodes = (
(-848,2060,l),
(-848,2156,ls),
(-848,2336,o),
(-992,2428,o),
(-1180,2428,cs),
(-1392,2428,o),
(-1532,2316,o),
(-1532,2172,c),
(-1276,2180,l),
(-1276,2228,o),
(-1252,2248,o),
(-1200,2248,cs),
(-1132,2248,o),
(-1096,2216,o),
(-1096,2160,cs),
(-1096,2072,l)
);
},
{
closed = 1;
nodes = (
(-1160,2124,ls),
(-1420,2124,o),
(-1540,2024,o),
(-1540,1868,cs),
(-1540,1728,o),
(-1436,1636,o),
(-1288,1636,cs),
(-1132,1636,o),
(-1064,1732,o),
(-1028,1796,c),
(-1076,1912,l),
(-1096,1868,o),
(-1128,1816,o),
(-1212,1816,cs),
(-1252,1816,o),
(-1292,1844,o),
(-1292,1880,cs),
(-1292,1940,o),
(-1256,1996,o),
(-1160,1996,cs),
(-1064,1996,l),
(-1068,2124,l)
);
},
{
closed = 1;
nodes = (
(-464,1632,o),
(-332,1800,o),
(-332,2016,cs),
(-332,2032,ls),
(-332,2244,o),
(-460,2420,o),
(-716,2420,cs),
(-968,2420,o),
(-1096,2248,o),
(-1096,2032,cs),
(-1096,2016,ls),
(-1096,1800,o),
(-964,1632,o),
(-712,1632,cs)
);
},
{
closed = 1;
nodes = (
(-820,1828,o),
(-848,1920,o),
(-848,2016,cs),
(-848,2032,ls),
(-848,2128,o),
(-816,2224,o),
(-716,2224,cs),
(-612,2224,o),
(-580,2132,o),
(-580,2032,cs),
(-580,2016,ls),
(-580,1916,o),
(-612,1828,o),
(-712,1828,cs)
);
}
);
width = 0;
},
{
layerId = "B1F27B51-9973-4381-9301-4FE46FE1CA59";
shapes = (
{
closed = 1;
nodes = (
(-722,2016,l),
(-722,2156,ls),
(-722,2340,o),
(-824,2416,o),
(-970,2416,cs),
(-1130,2416,o),
(-1244,2322,o),
(-1246,2196,c),
(-1184,2184,l),
(-1182,2288,o),
(-1104,2352,o),
(-970,2352,cs),
(-844,2352,o),
(-786,2292,o),
(-786,2140,cs),
(-786,2014,l,{
name = hr00;
})
);
},
{
closed = 1;
nodes = (
(-1016,2076,ls),
(-1178,2076,o),
(-1278,2002,o),
(-1278,1856,cs),
(-1278,1732,o),
(-1190,1644,o),
(-1048,1644,cs),
(-926,1644,o),
(-814,1708,o),
(-736,1818,c),
(-754,1860,l),
(-812,1778,o),
(-918,1708,o),
(-1040,1708,cs),
(-1154,1708,o),
(-1214,1768,o),
(-1214,1854,cs),
(-1214,1964,o),
(-1142,2012,o),
(-1016,2012,cs),
(-774,2012,l),
(-774,2076,l)
);
},
{
closed = 1;
nodes = (
(-282,1632,o),
(-134,1774,o),
(-134,2016,cs),
(-134,2032,ls),
(-134,2282,o),
(-284,2420,o),
(-454,2420,cs),
(-624,2420,o),
(-786,2280,o),
(-786,2032,cs),
(-786,2016,ls),
(-786,1774,o),
(-626,1632,o),
(-454,1632,cs)
);
},
{
closed = 1;
nodes = (
(-610,1696,o),
(-722,1834,o),
(-722,2014,cs),
(-722,2034,ls),
(-722,2218,o),
(-610,2356,o),
(-450,2356,cs),
(-302,2356,o),
(-198,2232,o),
(-198,2034,cs),
(-198,2014,ls),
(-198,1824,o),
(-302,1696,o),
(-454,1696,cs)
);
}
);
width = 0;
},
{
associatedMasterId = "CD0E3B44-F66A-4791-B84C-A1128DC61275";
layerId = "DFDDB025-16F7-46F9-B8E4-73F88E765276";
shapes = (
{
closed = 1;
nodes = (
(-766,2032,l),
(-766,2144,ls),
(-766,2324,o),
(-892,2420,o),
(-1068,2420,cs),
(-1252,2420,o),
(-1376,2320,o),
(-1376,2188,c),
(-1202,2176,l),
(-1202,2236,o),
(-1152,2272,o),
(-1068,2272,cs),
(-988,2272,o),
(-952,2228,o),
(-952,2146,cs),
(-952,2010,l)
);
},
{
closed = 1;
nodes = (
(-1086,2096,ls),
(-1300,2096,o),
(-1424,2012,o),
(-1424,1868,cs),
(-1424,1728,o),
(-1324,1640,o),
(-1168,1640,cs),
(-1036,1640,o),
(-940,1716,o),
(-900,1812,c),
(-928,1912,l),
(-948,1836,o),
(-1046,1784,o),
(-1122,1784,cs),
(-1202,1784,o),
(-1242,1816,o),
(-1242,1872,cs),
(-1242,1928,o),
(-1182,1980,o),
(-1086,1980,cs),
(-932,1980,l),
(-932,2096,l)
);
},
{
closed = 1;
nodes = (
(-370,1632,o),
(-228,1788,o),
(-228,2016,cs),
(-228,2032,ls),
(-228,2264,o),
(-370,2420,o),
(-588,2420,cs),
(-800,2420,o),
(-948,2268,o),
(-948,2032,cs),
(-948,2016,ls),
(-948,1784,o),
(-800,1632,o),
(-588,1632,cs)
);
},
{
closed = 1;
nodes = (
(-712,1782,o),
(-766,1874,o),
(-766,2018,cs),
(-766,2032,ls),
(-766,2178,o),
(-712,2270,o),
(-588,2270,cs),
(-464,2270,o),
(-408,2178,o),
(-408,2032,cs),
(-408,2016,ls),
(-408,1874,o),
(-464,1782,o),
(-588,1782,cs)
);
}
);
width = 0;
},
{
layerId = "CD0E3B44-F66A-4791-B84C-A1128DC61275";
shapes = (
{
closed = 1;
nodes = (
(-762,2032,l),
(-762,2144,ls),
(-762,2324,o),
(-888,2420,o),
(-1064,2420,cs),
(-1248,2420,o),
(-1372,2320,o),
(-1372,2188,c),
(-1198,2176,l),
(-1198,2236,o),
(-1148,2272,o),
(-1064,2272,cs),
(-984,2272,o),
(-948,2228,o),
(-948,2146,cs),
(-948,2010,l)
);
},
{
closed = 1;
nodes = (
(-1082,2096,ls),
(-1296,2096,o),
(-1420,2012,o),
(-1420,1868,cs),
(-1420,1728,o),
(-1320,1640,o),
(-1164,1640,cs),
(-1032,1640,o),
(-936,1716,o),
(-896,1812,c),
(-924,1912,l),
(-944,1836,o),
(-1042,1784,o),
(-1118,1784,cs),
(-1198,1784,o),
(-1238,1816,o),
(-1238,1872,cs),
(-1238,1928,o),
(-1178,1980,o),
(-1082,1980,cs),
(-928,1980,l),
(-928,2096,l)
);
},
{
closed = 1;
nodes = (
(-366,1632,o),
(-224,1788,o),
(-224,2016,cs),
(-224,2032,ls),
(-224,2264,o),
(-366,2420,o),
(-584,2420,cs),
(-796,2420,o),
(-944,2268,o),
(-944,2032,cs),
(-944,2016,ls),
(-944,1784,o),
(-796,1632,o),
(-584,1632,cs)
);
},
{
closed = 1;
nodes = (
(-708,1782,o),
(-762,1874,o),
(-762,2018,cs),
(-762,2032,ls),
(-762,2178,o),
(-708,2270,o),
(-584,2270,cs),
(-460,2270,o),
(-404,2178,o),
(-404,2032,cs),
(-404,2016,ls),
(-404,1874,o),
(-460,1782,o),
(-584,1782,cs)
);
}
);
width = 0;
}
);
unicode = 7637;
}
{
color = (250,227,227,1);
glyphname = uni1DE8;
layers = (
{
layerId = "5C20EF92-B63D-42A8-8878-93C2863E0093";
shapes = (
{
closed = 1;
nodes = (
(-684,1640,o),
(-580,1804,o),
(-580,2024,cs),
(-580,2036,ls),
(-580,2268,o),
(-684,2420,o),
(-888,2420,cs),
(-1058,2420,o),
(-1142,2242,o),
(-1178,2034,c),
(-1178,2018,l),
(-1142,1826,o),
(-1054,1640,o),
(-884,1640,cs)
);
},
{
closed = 1;
nodes = (
(-1096,1652,l),
(-1060,1840,l),
(-1060,2736,l),
(-1312,2736,l),
(-1312,1652,l)
);
},
{
closed = 1;
nodes = (
(-1048,1836,o),
(-1092,1908,o),
(-1084,2020,cs),
(-1084,2032,ls),
(-1088,2152,o),
(-1060,2232,o),
(-956,2232,cs),
(-860,2232,o),
(-832,2140,o),
(-832,2036,cs),
(-832,2024,ls),
(-832,1928,o),
(-856,1836,o),
(-952,1836,cs)
);
}
);
width = 0;
},
{
layerId = "B1F27B51-9973-4381-9301-4FE46FE1CA59";
shapes = (
{
closed = 1;
nodes = (
(-550,1628,o),
(-420,1778,o),
(-420,2012,cs),
(-420,2032,ls),
(-420,2274,o),
(-550,2420,o),
(-724,2420,cs),
(-890,2420,o),
(-1030,2284,o),
(-1052,2112,c),
(-1052,1936,l),
(-1030,1766,o),
(-890,1628,o),
(-724,1628,cs)
);
},
{
closed = 1;
nodes = (
(-1018,1652,l),
(-1002,1800,l),
(-1002,2744,l),
(-1064,2744,l),
(-1064,1652,l)
);
},
{
closed = 1;
nodes = (
(-846,1692,o),
(-962,1786,o),
(-1004,1902,c),
(-1004,2148,l),
(-958,2264,o),
(-846,2356,o),
(-724,2356,cs),
(-586,2356,o),
(-484,2240,o),
(-484,2032,cs),
(-484,2012,ls),
(-484,1808,o),
(-580,1692,o),
(-718,1692,cs)
);
}
);
width = 0;
},
{
associatedMasterId = "CD0E3B44-F66A-4791-B84C-A1128DC61275";
layerId = "FF3B7C6F-9F23-4B2F-B3A9-9C812A53E073";
shapes = (
{
closed = 1;
nodes = (
(-614,1632,o),
(-494,1796,o),
(-494,2016,cs),
(-494,2032,ls),
(-494,2264,o),
(-614,2420,o),
(-806,2420,cs),
(-998,2420,o),
(-1094,2306,o),
(-1114,2074,c),
(-1114,1978,l),
(-1094,1746,o),
(-998,1632,o),
(-806,1632,cs)
);
},
{
closed = 1;
nodes = (
(-1038,1652,l),
(-1014,1794,l),
(-1014,2740,l),
(-1196,2740,l),
(-1196,1652,l)
);
},
{
closed = 1;
nodes = (
(-944,1782,o),
(-1006,1846,o),
(-1034,1946,c),
(-1034,2102,l),
(-1010,2210,o),
(-940,2272,o),
(-844,2272,cs),
(-732,2272,o),
(-676,2180,o),
(-676,2032,cs),
(-676,2016,ls),
(-676,1874,o),
(-732,1782,o),
(-844,1782,cs)
);
}
);
width = 0.29434;
},
{
layerId = "CD0E3B44-F66A-4791-B84C-A1128DC61275";
shapes = (
{
closed = 1;
nodes = (
(-610,1632,o),
(-490,1796,o),
(-490,2016,cs),
(-490,2032,ls),
(-490,2264,o),
(-610,2420,o),
(-802,2420,cs),
(-994,2420,o),
(-1090,2306,o),
(-1110,2074,c),
(-1110,1978,l),
(-1090,1746,o),
(-994,1632,o),
(-802,1632,cs)
);
},
{
closed = 1;
nodes = (
(-1034,1652,l),
(-1010,1794,l),
(-1010,2740,l),
(-1192,2740,l),
(-1192,1652,l)
);
},
{
closed = 1;
nodes = (
(-940,1782,o),
(-1002,1846,o),
(-1030,1946,c),
(-1030,2102,l),
(-1006,2210,o),
(-936,2272,o),
(-840,2272,cs),
(-728,2272,o),
(-672,2180,o),
(-672,2032,cs),
(-672,2016,ls),
(-672,1874,o),
(-728,1782,o),
(-840,1782,cs)
);
}
);
width = 2;
}
);
unicode = 7656;
}
{
color = (250,227,227,1);
glyphname = uni1DF2;
layers = (
{
layerId = "5C20EF92-B63D-42A8-8878-93C2863E0093";
shapes = (
{
closed = 1;
nodes = (
(-1324,2540,o),
(-1264,2488,o),
(-1188,2488,cs),
(-1104,2488,o),
(-1048,2540,o),
(-1048,2612,cs),
(-1048,2680,o),
(-1104,2732,o),
(-1188,2732,cs),
(-1264,2732,o),
(-1324,2684,o),
(-1324,2612,cs)
);
},
{
closed = 1;
nodes = (
(-904,2540,o),
(-844,2488,o),
(-764,2488,cs),
(-684,2488,o),
(-624,2540,o),
(-624,2612,cs),
(-624,2684,o),
(-684,2732,o),
(-764,2732,cs),
(-844,2732,o),
(-904,2680,o),
(-904,2612,cs)
);
},
{
closed = 1;
nodes = (
(-880,1772,o),
(-868,1696,o),
(-844,1652,c),
(-596,1652,l),
(-620,1708,o),
(-628,1760,o),
(-628,1848,cs),
(-628,2156,ls),
(-628,2336,o),
(-776,2428,o),
(-964,2428,cs),
(-1172,2428,o),
(-1312,2316,o),
(-1312,2172,c),
(-1060,2180,l),
(-1060,2228,o),
(-1036,2248,o),
(-980,2248,cs),
(-916,2248,o),
(-880,2216,o),
(-880,2160,c),
(-880,1856,l,{
name = hr00;
})
);
},
{
closed = 1;
nodes = (
(-944,2124,ls),
(-1204,2124,o),
(-1320,2024,o),
(-1320,1868,cs),
(-1320,1728,o),
(-1216,1636,o),
(-1072,1636,cs),
(-916,1636,o),
(-840,1732,o),
(-804,1808,c),
(-872,1900,l),
(-872,1864,o),
(-908,1816,o),
(-996,1816,cs),
(-1032,1816,o),
(-1072,1844,o),
(-1072,1880,cs),
(-1072,1936,o),
(-1040,1996,o),
(-944,1996,c),
(-844,1996,l),
(-848,2124,l)
);
}
);
width = 0;
},
{
layerId = "B1F27B51-9973-4381-9301-4FE46FE1CA59";
shapes = (
{
closed = 1;
nodes = (
(-884,2552,o),
(-856,2522,o),
(-820,2522,cs),
(-786,2522,o),
(-756,2552,o),
(-756,2586,cs),
(-756,2622,o),
(-786,2650,o),
(-820,2650,cs),
(-856,2650,o),
(-884,2622,o),
(-884,2586,cs)
);
},
{
closed = 1;
nodes = (
(-608,2552,o),
(-580,2522,o),
(-544,2522,cs),
(-510,2522,o),
(-480,2552,o),
(-480,2586,cs),
(-480,2622,o),
(-510,2650,o),
(-544,2650,cs),
(-580,2650,o),
(-608,2622,o),
(-608,2586,cs)
);
},
{
closed = 1;
nodes = (
(-494,1728,o),
(-490,1698,o),
(-480,1652,c),
(-412,1652,l),
(-424,1700,o),
(-432,1766,o),
(-432,1824,cs),
(-432,2156,ls),
(-432,2340,o),
(-534,2416,o),
(-670,2416,cs),
(-820,2416,o),
(-934,2322,o),
(-936,2196,c),
(-874,2184,l),
(-872,2288,o),
(-794,2352,o),
(-670,2352,cs),
(-554,2352,o),
(-496,2292,o),
(-496,2140,cs),
(-496,1780,l,{
name = hr00;
})
);
},
{
closed = 1;
nodes = (
(-716,2056,ls),
(-868,2056,o),
(-968,1982,o),
(-968,1856,cs),
(-968,1732,o),
(-880,1644,o),
(-744,1644,cs),
(-636,1644,o),
(-524,1708,o),
(-480,1788,c),
(-488,1840,l),
(-522,1778,o),
(-628,1708,o),
(-740,1708,cs),
(-844,1708,o),
(-904,1768,o),
(-904,1854,cs),
(-904,1944,o),
(-832,1992,o),
(-716,1992,cs),
(-484,1992,l),
(-484,2056,l)
);
}
);
width = 0;
},
{
associatedMasterId = "CD0E3B44-F66A-4791-B84C-A1128DC61275";
layerId = "35192598-490B-419E-B3B4-5B00E0F8BD07";
shapes = (
{
closed = 1;
nodes = (
(-1082,2540,o),
(-1046,2496,o),
(-978,2496,cs),
(-910,2496,o),
(-874,2540,o),
(-874,2592,cs),
(-874,2648,o),
(-910,2692,o),
(-978,2692,cs),
(-1042,2692,o),
(-1082,2648,o),
(-1082,2592,cs)
);
},
{
closed = 1;
nodes = (
(-748,2536,o),
(-712,2496,o),
(-644,2496,cs),
(-576,2496,o),
(-538,2536,o),
(-538,2592,cs),
(-538,2648,o),
(-576,2692,o),
(-644,2692,cs),
(-712,2692,o),
(-748,2648,o),
(-748,2592,cs)
);
},
{
closed = 1;
nodes = (
(-682,1748,o),
(-670,1700,o),
(-658,1652,c),
(-472,1652,l),
(-492,1716,o),
(-496,1780,o),
(-496,1832,cs),
(-496,2144,ls),
(-496,2324,o),
(-620,2420,o),
(-796,2420,cs),
(-982,2420,o),
(-1106,2320,o),
(-1106,2188,c),
(-932,2176,l),
(-932,2236,o),
(-880,2272,o),
(-798,2272,cs),
(-718,2272,o),
(-682,2228,o),
(-682,2148,cs),
(-682,1810,l)
);
},
{
closed = 1;
nodes = (
(-816,2096,ls),
(-1030,2096,o),
(-1152,2012,o),
(-1152,1868,cs),
(-1152,1728,o),
(-1052,1640,o),
(-898,1640,cs),
(-764,1640,o),
(-684,1716,o),
(-656,1780,c),
(-674,1896,l),
(-674,1848,o),
(-772,1784,o),
(-852,1784,cs),
(-932,1784,o),
(-972,1816,o),
(-972,1872,cs),
(-972,1928,o),
(-912,1980,o),
(-816,1980,cs),
(-662,1980,l),
(-662,2096,l)
);
}
);
width = 0.29434;
},
{
layerId = "CD0E3B44-F66A-4791-B84C-A1128DC61275";
shapes = (
{
closed = 1;
nodes = (
(-1078,2540,o),
(-1042,2496,o),
(-974,2496,cs),
(-906,2496,o),
(-870,2540,o),
(-870,2592,cs),
(-870,2648,o),
(-906,2692,o),
(-974,2692,cs),
(-1038,2692,o),
(-1078,2648,o),
(-1078,2592,cs)
);
},
{
closed = 1;
nodes = (
(-744,2536,o),
(-708,2496,o),
(-640,2496,cs),
(-572,2496,o),
(-534,2536,o),
(-534,2592,cs),
(-534,2648,o),
(-572,2692,o),
(-640,2692,cs),
(-708,2692,o),
(-744,2648,o),
(-744,2592,cs)
);
},
{
closed = 1;
nodes = (
(-678,1748,o),
(-666,1700,o),
(-654,1652,c),
(-468,1652,l),
(-488,1716,o),
(-492,1780,o),
(-492,1832,cs),
(-492,2144,ls),
(-492,2324,o),
(-616,2420,o),
(-792,2420,cs),
(-978,2420,o),
(-1102,2320,o),
(-1102,2188,c),
(-928,2176,l),
(-928,2236,o),
(-876,2272,o),
(-794,2272,cs),
(-714,2272,o),
(-678,2228,o),
(-678,2148,cs),
(-678,1810,l)
);
},
{
closed = 1;
nodes = (
(-812,2096,ls),
(-1026,2096,o),
(-1148,2012,o),
(-1148,1868,cs),
(-1148,1728,o),
(-1048,1640,o),
(-894,1640,cs),
(-760,1640,o),
(-680,1716,o),
(-652,1780,c),
(-670,1896,l),
(-670,1848,o),
(-768,1784,o),
(-848,1784,cs),
(-928,1784,o),
(-968,1816,o),
(-968,1872,cs),
(-968,1928,o),
(-908,1980,o),
(-812,1980,cs),
(-658,1980,l),
(-658,2096,l)
);
}
);
width = 0;
}
);
unicode = 7666;
}
{
glyphname = uni1FBE;
layers = (
{
anchors = (
{
name = _bottom;
pos = (368,0);
}
);
layerId = "5C20EF92-B63D-42A8-8878-93C2863E0093";
shapes = (
{
closed = 1;
nodes = (
(569,-680,o),
(613,-672,o),
(660,-660,c),
(660,-480,l),
(645,-480,o),
(629,-484,o),
(596,-484,cs),
(529,-484,o),
(516,-460,o),
(516,-420,cs),
(516,-140,l),
(232,-140,l),
(232,-420,ls),
(232,-604,o),
(361,-680,o),
(512,-680,cs)
);
}
);
width = 892;
},
{
anchors = (
{
name = _bottom;
pos = (256,0);
}
);
layerId = "B1F27B51-9973-4381-9301-4FE46FE1CA59";
shapes = (
{
closed = 1;
nodes = (
(374,-600,o),
(406,-596,o),
(420,-592,c),
(402,-530,l),
(393,-533,o),
(369,-536,o),
(356,-536,cs),
(318,-536,o),
(288,-499,o),
(288,-444,cs),
(288,-120,l),
(224,-120,l),
(224,-444,ls),
(224,-535,o),
(282,-600,o),
(356,-600,cs)
);
}
);
width = 604;
},
{
anchors = (
{
name = _bottom;
pos = (282,0);
}
);
associatedMasterId = "CD0E3B44-F66A-4791-B84C-A1128DC61275";
layerId = "AE011AAE-79A5-4BED-8E0F-16D66EDA8CC5";
shapes = (
{
closed = 1;
nodes = (
(462,-680,o),
(494,-672,o),
(516,-664,c),
(516,-522,l),
(502,-522,o),
(476,-526,o),
(454,-526,cs),
(414,-526,o),
(386,-500,o),
(386,-420,cs),
(386,-120,l),
(176,-120,l),
(176,-424,ls),
(176,-604,o),
(274,-680,o),
(410,-680,cs)
);
}
);
width = 691.82642;
},
{
anchors = (
{
name = _bottom;
pos = (292,0);
}
);
layerId = "CD0E3B44-F66A-4791-B84C-A1128DC61275";
shapes = (
{
closed = 1;
nodes = (
(472,-680,o),
(504,-672,o),
(526,-664,c),
(526,-522,l),
(512,-522,o),
(486,-526,o),
(464,-526,cs),
(424,-526,o),
(396,-500,o),
(396,-420,cs),
(396,-120,l),
(186,-120,l),
(186,-424,ls),
(186,-604,o),
(284,-680,o),
(420,-680,cs)
);
}
);
width = 712;
}
);
note = "similar or identical to iotasubnosp";
unicode = 8126;
userData = {
interface.gridadjust.original = "{'width': 613, 'leftMargin': 169, 'rightMargin': 108}";
"interface.width-adjustments" = (
-16
);
};
}
{
color = (204,240,242,1);
glyphname = uni1FC1;
layers = (
{
anchors = (
{
name = _top;
pos = (704,1624);
}
);
layerId = "5C20EF92-B63D-42A8-8878-93C2863E0093";
shapes = (
{
closed = 1;
nodes = (
(128,1716,o),
(232,1632,o),
(372,1632,cs),
(512,1632,o),
(616,1716,o),
(616,1832,cs),
(616,1940,o),
(512,2028,o),
(372,2028,cs),
(228,2028,o),
(128,1940,o),
(128,1832,cs)
);
},
{
closed = 1;
nodes = (
(804,1720,o),
(904,1636,o),
(1048,1636,cs),
(1188,1636,o),
(1292,1720,o),
(1292,1832,cs),
(1292,1944,o),
(1188,2028,o),
(1048,2028,cs),
(904,2028,o),
(804,1944,o),
(804,1832,cs)
);
},
{
closed = 1;
nodes = (
(940,2396,o),
(900,2348,o),
(860,2348,cs),
(744,2348,o),
(628,2428,o),
(508,2428,cs),
(372,2428,o),
(276,2308,o),
(276,2184,c),
(488,2124,l),
(488,2180,o),
(520,2236,o),
(568,2236,cs),
(688,2236,o),
(772,2156,o),
(920,2156,cs),
(1052,2156,o),
(1156,2272,o),
(1156,2404,c),
(940,2460,l)
);
}
);
width = 1416;
},
{
anchors = (
{
name = _top;
pos = (480,1624);
}
);
layerId = "B1F27B51-9973-4381-9301-4FE46FE1CA59";
shapes = (
{
closed = 1;
nodes = (
(128,1845,o),
(157,1816,o),
(192,1816,cs),
(227,1816,o),
(256,1845,o),
(256,1880,cs),
(256,1915,o),
(227,1944,o),
(192,1944,cs),
(157,1944,o),
(128,1915,o),
(128,1880,cs)
);
},
{
closed = 1;
nodes = (
(692,1845,o),
(721,1816,o),
(756,1816,cs),
(791,1816,o),
(820,1845,o),
(820,1880,cs),
(820,1915,o),
(791,1944,o),
(756,1944,cs),
(721,1944,o),
(692,1915,o),
(692,1880,cs)
);
},
{
closed = 1;
nodes = (
(755,2160,o),
(712,2095,o),
(632,2094,cs),
(523,2093,o),
(483,2258,o),
(340,2258,cs),
(222,2258,o),
(153,2171,o),
(140,2046,c),
(198,2038,l),
(211,2129,o),
(254,2194,o),
(336,2194,cs),
(448,2194,o),
(499,2029,o),
(634,2030,cs),
(744,2031,o),
(813,2118,o),
(826,2242,c),
(768,2250,l)
);
}
);
width = 954;
},
{
anchors = (
{
name = _top;
pos = (598,1624);
}
);
associatedMasterId = "CD0E3B44-F66A-4791-B84C-A1128DC61275";
layerId = "65D8FA67-FCE9-4E0B-943A-C463BCF3261E";
shapes = (
{
closed = 1;
nodes = (
(120,1766,o),
(172,1698,o),
(282,1698,cs),
(386,1698,o),
(440,1766,o),
(440,1848,cs),
(440,1936,o),
(386,2004,o),
(282,2004,cs),
(172,2004,o),
(120,1936,o),
(120,1848,cs)
);
},
{
closed = 1;
nodes = (
(764,1762,o),
(822,1694,o),
(926,1694,cs),
(1032,1694,o),
(1088,1762,o),
(1088,1848,cs),
(1088,1932,o),
(1032,2000,o),
(926,2000,cs),
(822,2000,o),
(764,1932,o),
(764,1848,cs)
);
},
{
closed = 1;
nodes = (
(854,2294,o),
(802,2242,o),
(742,2242,cs),
(626,2242,o),
(558,2346,o),
(438,2346,cs),
(302,2346,o),
(206,2222,o),
(206,2090,c),
(332,2058,l),
(332,2126,o),
(378,2178,o),
(438,2178,cs),
(558,2178,o),
(596,2078,o),
(744,2078,cs),
(880,2078,o),
(972,2194,o),
(972,2326,c),
(854,2362,l)
);
}
);
width = 1204.12075;
},
{
anchors = (
{
name = _top;
pos = (608,1624);
}
);
layerId = "CD0E3B44-F66A-4791-B84C-A1128DC61275";
shapes = (
{
closed = 1;
nodes = (
(130,1766,o),
(182,1698,o),
(292,1698,cs),
(396,1698,o),
(450,1766,o),
(450,1848,cs),
(450,1936,o),
(396,2004,o),
(292,2004,cs),
(182,2004,o),
(130,1936,o),
(130,1848,cs)
);
},
{
closed = 1;
nodes = (
(774,1762,o),
(832,1694,o),
(936,1694,cs),
(1042,1694,o),
(1098,1762,o),
(1098,1848,cs),
(1098,1932,o),
(1042,2000,o),
(936,2000,cs),
(832,2000,o),
(774,1932,o),
(774,1848,cs)
);
},
{
closed = 1;
nodes = (
(864,2294,o),
(812,2242,o),
(752,2242,cs),
(636,2242,o),
(568,2346,o),
(448,2346,cs),
(312,2346,o),
(216,2222,o),
(216,2090,c),
(342,2058,l),
(342,2126,o),
(388,2178,o),
(448,2178,cs),
(568,2178,o),
(606,2078,o),
(754,2078,cs),
(890,2078,o),
(982,2194,o),
(982,2326,c),
(864,2362,l)
);
}
);
width = 1224;
}
);
unicode = 8129;
userData = {
interface.gridadjust.original = "{'width': 1269, 'leftMargin': 155, 'rightMargin': 151}";
"interface.width-adjustments" = (
-16
);
};
}
{
color = (204,240,242,1);
glyphname = uni1FDD;
layers = (
{
anchors = (
{
name = _top;
pos = (604,1620);
}
);
layerId = "5C20EF92-B63D-42A8-8878-93C2863E0093";
shapes = (
{
closed = 1;
nodes = (
(792,2048,l),
(484,2048,l),
(484,2020,l),
(816,1580,l),
(952,1580,l),
(952,1620,l)
);
},
{
closed = 1;
nodes = (
(114,1724,o),
(218,1600,o),
(344,1552,c),
(468,1704,l),
(366,1748,o),
(358,1840,o),
(360,1912,cs),
(360,2048,l),
(116,2048,l),
(116,1904,l)
);
}
);
width = 1068;
},
{
anchors = (
{
name = _top;
pos = (452,1616);
}
);
layerId = "B1F27B51-9973-4381-9301-4FE46FE1CA59";
shapes = (
{
closed = 1;
nodes = (
(420,2056,l),
(352,2056,l),
(352,2038,l),
(636,1592,l),
(684,1592,l),
(684,1610,l)
);
},
{
closed = 1;
nodes = (
(218,1823,o),
(256,1714,o),
(398,1570,c),
(444,1592,l),
(314,1745,o),
(282,1840,o),
(282,2012,cs),
(282,2056,l),
(218,2056,l),
(218,2004,ls)
);
}
);
width = 902;
},
{
anchors = (
{
name = _top;
pos = (650,1616);
}
);
associatedMasterId = "CD0E3B44-F66A-4791-B84C-A1128DC61275";
layerId = "ED71DE0A-A524-426C-84C6-AFBF0B145904";
shapes = (
{
closed = 1;
nodes = (
(838,2048,l),
(546,2048,l),
(546,2020,l),
(862,1584,l),
(990,1584,l),
(990,1604,l)
);
},
{
closed = 1;
nodes = (
(206,1774,o),
(298,1640,o),
(456,1552,c),
(564,1638,l),
(488,1720,o),
(454,1812,o),
(454,1944,cs),
(454,2048,l),
(206,2048,l),
(206,1936,l)
);
}
);
width = 1195.58491;
},
{
anchors = (
{
name = _top;
pos = (662,1616);
}
);
layerId = "CD0E3B44-F66A-4791-B84C-A1128DC61275";
shapes = (
{
closed = 1;
nodes = (
(850,2048,l),
(558,2048,l),
(558,2020,l),
(874,1584,l),
(1002,1584,l),
(1002,1604,l)
);
},
{
closed = 1;
nodes = (
(218,1774,o),
(310,1640,o),
(468,1552,c),
(576,1638,l),
(500,1720,o),
(466,1812,o),
(466,1944,cs),
(466,2048,l),
(218,2048,l),
(218,1936,l)
);
}
);
width = 1220;
}
);
unicode = 8157;
userData = {
interface.gridadjust.original = "{'width': 1064, 'leftMargin': 158, 'rightMargin': 121}";
"interface.width-adjustments" = (
-16
);
};
}
{
color = (204,240,242,1);
glyphname = uni1FED;
layers = (
{
anchors = (
{
name = _top;
pos = (720,1624);
}
);
layerId = "5C20EF92-B63D-42A8-8878-93C2863E0093";
shapes = (
{
closed = 1;
nodes = (
(856,2064,l),
(748,2292,l),
(416,2292,l),
(600,2064,l)
);
},
{
closed = 1;
nodes = (
(512,1632,o),
(616,1716,o),
(616,1832,cs),
(616,1940,o),
(512,2028,o),
(372,2028,cs),
(228,2028,o),
(128,1940,o),
(128,1832,cs),
(128,1716,o),
(232,1632,o),
(372,1632,cs)
);
},
{
closed = 1;
nodes = (
(1188,1636,o),
(1292,1720,o),
(1292,1832,cs),
(1292,1944,o),
(1188,2028,o),
(1048,2028,cs),
(904,2028,o),
(804,1944,o),
(804,1832,cs),
(804,1720,o),
(904,1636,o),
(1048,1636,cs)
);
}
);
width = 1416;
},
{
anchors = (
{
name = _top;
pos = (382,1624);
}
);
layerId = "B1F27B51-9973-4381-9301-4FE46FE1CA59";
shapes = (
{
closed = 1;
nodes = (
(426,1920,l),
(248,2192,l),
(168,2192,l),
(362,1920,l)
);
},
{
closed = 1;
nodes = (
(227,1816,o),
(256,1845,o),
(256,1880,cs),
(256,1915,o),
(227,1944,o),
(192,1944,cs),
(157,1944,o),
(128,1915,o),
(128,1880,cs),
(128,1845,o),
(157,1816,o),
(192,1816,cs)
);
},
{
closed = 1;
nodes = (
(611,1816,o),
(640,1845,o),
(640,1880,cs),
(640,1915,o),
(611,1944,o),
(576,1944,cs),
(541,1944,o),
(512,1915,o),
(512,1880,cs),
(512,1845,o),
(541,1816,o),
(576,1816,cs)
);
}
);
width = 768;
},
{
anchors = (
{
name = _top;
pos = (598,1624);
}
);
associatedMasterId = "CD0E3B44-F66A-4791-B84C-A1128DC61275";
layerId = "E842CF29-2AB8-48A6-87A0-6B07D929DC3B";
shapes = (
{
closed = 1;
nodes = (
(708,1932,l),
(532,2242,l),
(278,2242,l),
(530,1932,l)
);
},
{
closed = 1;
nodes = (
(386,1698,o),
(440,1766,o),
(440,1848,cs),
(440,1936,o),
(386,2004,o),
(282,2004,cs),
(172,2004,o),
(120,1936,o),
(120,1848,cs),
(120,1766,o),
(172,1698,o),
(282,1698,cs)
);
},
{
closed = 1;
nodes = (
(1032,1694,o),
(1088,1762,o),
(1088,1848,cs),
(1088,1932,o),
(1032,2000,o),
(926,2000,cs),
(822,2000,o),
(764,1932,o),
(764,1848,cs),
(764,1762,o),
(822,1694,o),
(926,1694,cs)
);
}
);
width = 1204.12075;
},
{
anchors = (
{
name = _top;
pos = (608,1624);
}
);
layerId = "CD0E3B44-F66A-4791-B84C-A1128DC61275";
shapes = (
{
closed = 1;
nodes = (
(718,1932,l),
(542,2242,l),
(288,2242,l),
(540,1932,l)
);
},
{
closed = 1;
nodes = (
(396,1698,o),
(450,1766,o),
(450,1848,cs),
(450,1936,o),
(396,2004,o),
(292,2004,cs),
(182,2004,o),
(130,1936,o),
(130,1848,cs),
(130,1766,o),
(182,1698,o),
(292,1698,cs)
);
},
{
closed = 1;
nodes = (
(1042,1694,o),
(1098,1762,o),
(1098,1848,cs),
(1098,1932,o),
(1042,2000,o),
(936,2000,cs),
(832,2000,o),
(774,1932,o),
(774,1848,cs),
(774,1762,o),
(832,1694,o),
(936,1694,cs)
);
}
);
width = 1224;
}
);
unicode = 8173;
userData = {
interface.gridadjust.original = "{'width': 1269, 'leftMargin': 155, 'rightMargin': 151}";
"interface.width-adjustments" = (
-16
);
};
}
{
glyphname = referencemark;
layers = (
{
layerId = "5C20EF92-B63D-42A8-8878-93C2863E0093";
shapes = (
{
closed = 1;
nodes = (
(1340,684,l),
(2024,0,l),
(2364,340,l),
(1680,1024,l),
(2364,1708,l),
(2024,2048,l),
(1340,1364,l),
(656,2048,l),
(316,1708,l),
(1000,1024,l),
(316,340,l),
(656,0,l)
);
},
{
pos = (900,-96);
ref = period;
},
{
pos = (28,128);
ref = periodcentered;
},
{
pos = (900,2144);
ref = period;
scale = (1,-1);
},
{
pos = (1772,128);
ref = periodcentered;
}
);
width = 2680;
},
{
layerId = "B1F27B51-9973-4381-9301-4FE46FE1CA59";
shapes = (
{
closed = 1;
nodes = (
(1312,978,l),
(2290,0,l),
(2336,46,l),
(1358,1024,l),
(2338,2004,l),
(2292,2050,l),
(1312,1070,l),
(336,2048,l),
(290,2002,l),
(1266,1024,l),
(290,46,l),
(336,0,l)
);
},
{
pos = (990,0);
ref = period;
},
{
pos = (26,128);
ref = periodcentered;
},
{
pos = (990,2048);
ref = period;
scale = (1,-1);
},
{
pos = (1954,128);
ref = periodcentered;
}
);
width = 2626;
},
{
layerId = "CD0E3B44-F66A-4791-B84C-A1128DC61275";
shapes = (
{
closed = 1;
nodes = (
(1362,866,l),
(2226,0,l),
(2386,160,l),
(1520,1024,l),
(2386,1888,l),
(2226,2048,l),
(1362,1182,l),
(498,2048,l),
(338,1888,l),
(1204,1024,l),
(338,160,l),
(498,0,l)
);
},
{
pos = (994,-20);
ref = period;
},
{
pos = (80,128);
ref = periodcentered;
},
{
pos = (994,2096);
ref = period;
scale = (1,-1);
},
{
pos = (1912,128);
ref = periodcentered;
}
);
width = 2724;
},
{
associatedMasterId = "B1F27B51-9973-4381-9301-4FE46FE1CA59";
layerId = "77FEB282-CCE8-4100-9459-D80B396DD870";
name = "Aug 2, 22 21:52";
shapes = (
{
closed = 1;
nodes = (
(1148,1466,l),
(1106,1514,l),
(64,422,l),
(108,376,l)
);
},
{
closed = 1;
nodes = (
(1148,422,l),
(106,1514,l),
(64,1466,l),
(1104,376,l)
);
},
{
closed = 1;
nodes = (
(7,926,o),
(25,880,o),
(90,880,cs),
(156,880,o),
(176,926,o),
(174,972,cs),
(172,1015,o),
(156,1059,o),
(90,1060,cs),
(27,1061,o),
(5,1015,o),
(6,972,cs)
);
},
{
closed = 1;
nodes = (
(503,376,o),
(521,330,o),
(586,330,cs),
(652,330,o),
(672,376,o),
(670,422,cs),
(668,465,o),
(652,509,o),
(586,510,cs),
(523,511,o),
(501,465,o),
(502,422,cs)
);
},
{
closed = 1;
nodes = (
(503,1428,o),
(521,1382,o),
(586,1382,cs),
(652,1382,o),
(672,1428,o),
(670,1474,cs),
(668,1517,o),
(652,1561,o),
(586,1562,cs),
(523,1563,o),
(501,1517,o),
(502,1474,cs)
);
},
{
closed = 1;
nodes = (
(997,926,o),
(1015,880,o),
(1080,880,cs),
(1146,880,o),
(1166,926,o),
(1164,972,cs),
(1162,1015,o),
(1146,1059,o),
(1080,1060,cs),
(1017,1061,o),
(995,1015,o),
(996,972,cs)
);
}
);
width = 1168;
},
{
associatedMasterId = "CD0E3B44-F66A-4791-B84C-A1128DC61275";
layerId = "148CD3A3-8D8B-464A-9440-2C957075C972";
name = "Aug 2, 22 21:52";
shapes = (
{
closed = 1;
nodes = (
(1512,1398,l),
(1332,1582,l),
(258,490,l),
(438,306,l)
);
},
{
closed = 1;
nodes = (
(1512,490,l),
(438,1582,l),
(258,1398,l),
(1332,306,l)
);
},
{
closed = 1;
nodes = (
(122,866,o),
(176,802,o),
(282,802,cs),
(392,802,o),
(444,866,o),
(444,952,cs),
(444,1040,o),
(390,1110,o),
(282,1110,cs),
(176,1110,o),
(122,1040,o),
(122,952,cs)
);
},
{
closed = 1;
nodes = (
(714,260,o),
(768,192,o),
(874,192,cs),
(978,192,o),
(1036,260,o),
(1036,344,cs),
(1036,430,o),
(978,498,o),
(874,498,cs),
(768,498,o),
(714,430,o),
(714,344,cs)
);
},
{
closed = 1;
nodes = (
(714,1458,o),
(768,1390,o),
(874,1390,cs),
(978,1390,o),
(1036,1458,o),
(1036,1542,cs),
(1036,1628,o),
(978,1696,o),
(874,1696,cs),
(768,1696,o),
(714,1628,o),
(714,1542,cs)
);
},
{
closed = 1;
nodes = (
(1302,866,o),
(1360,802,o),
(1466,802,cs),
(1570,802,o),
(1628,866,o),
(1628,952,cs),
(1628,1040,o),
(1570,1110,o),
(1466,1110,cs),
(1360,1110,o),
(1302,1040,o),
(1302,952,cs)
);
}
);
width = 1746;
},
{
associatedMasterId = "5C20EF92-B63D-42A8-8878-93C2863E0093";
layerId = "1C74478B-354A-4FEF-A5F3-A9893F3F341F";
name = "Aug 2, 22 21:52";
shapes = (
{
closed = 1;
nodes = (
(2048,1348,l),
(1756,1632,l),
(628,540,l),
(924,256,l)
);
},
{
closed = 1;
nodes = (
(2048,540,l),
(924,1632,l),
(628,1348,l),
(1756,256,l)
);
},
{
closed = 1;
nodes = (
(317,808,o),
(437,708,o),
(604,708,cs),
(769,708,o),
(889,808,o),
(888,940,cs),
(889,1068,o),
(765,1164,o),
(604,1164,cs),
(437,1164,o),
(317,1068,o),
(316,940,cs)
);
},
{
closed = 1;
nodes = (
(1061,96,o),
(1177,0,o),
(1344,0,cs),
(1509,0,o),
(1629,96,o),
(1628,224,cs),
(1629,360,o),
(1509,456,o),
(1344,456,cs),
(1177,456,o),
(1061,360,o),
(1060,224,cs)
);
},
{
closed = 1;
nodes = (
(1061,1528,o),
(1177,1432,o),
(1344,1432,cs),
(1509,1432,o),
(1629,1528,o),
(1628,1656,cs),
(1629,1792,o),
(1509,1888,o),
(1344,1888,cs),
(1177,1888,o),
(1061,1792,o),
(1060,1656,cs)
);
},
{
closed = 1;
nodes = (
(1797,808,o),
(1917,708,o),
(2084,708,cs),
(2249,708,o),
(2369,808,o),
(2368,940,cs),
(2369,1068,o),
(2249,1164,o),
(2084,1164,cs),
(1917,1164,o),
(1797,1068,o),
(1796,940,cs)
);
}
);
width = 2684;
},
{
associatedMasterId = "5C20EF92-B63D-42A8-8878-93C2863E0093";
layerId = "E72158CC-6BC4-4ECF-A49C-CC40C5A2D529";
name = "Aug 2, 22 21:53";
shapes = (
{
attr = {
strokeHeight = 480;
strokeWidth = 480;
};
closed = 1;
nodes = (
(2194,170,l),
(486,1878,l)
);
},
{
attr = {
strokeHeight = 480;
strokeWidth = 480;
};
closed = 1;
nodes = (
(486,170,l),
(2194,1878,l)
);
}
);
width = 2680;
},
{
associatedMasterId = "CD0E3B44-F66A-4791-B84C-A1128DC61275";
layerId = "2FCF30A3-C67D-488D-BEB8-1057E5E14957";
name = "Aug 2, 22 21:53";
shapes = (
{
attr = {
strokeHeight = 224;
strokeWidth = 224;
};
closed = 1;
nodes = (
(2306,80,l),
(418,1968,l)
);
},
{
attr = {
strokeHeight = 224;
strokeWidth = 224;
};
closed = 1;
nodes = (
(418,80,l),
(2306,1968,l)
);
}
);
width = 2724;
},
{
associatedMasterId = "B1F27B51-9973-4381-9301-4FE46FE1CA59";
layerId = "D62CAE10-4C1B-4498-BBDC-AFFAC125F9F9";
name = "Aug 2, 22 21:53";
shapes = (
{
attr = {
strokeHeight = 64;
strokeWidth = 64;
};
closed = 1;
nodes = (
(2314,24,l),
(314,2024,l)
);
},
{
attr = {
strokeHeight = 64;
strokeWidth = 64;
};
closed = 1;
nodes = (
(314,24,l),
(2314,2024,l)
);
}
);
width = 2626;
}
);
metricLeft = multiply;
metricRight = multiply;
unicode = 8251;
userData = {
interface.gridadjust.original = "{'width': 1738.0, 'leftMargin': 96, 'rightMargin': 151.0}";
"interface.width-adjustments" = (
-16
);
};
}
{
glyphname = uni2054;
layers = (
{
layerId = "5C20EF92-B63D-42A8-8878-93C2863E0093";
shapes = (
{
closed = 1;
nodes = (
(653,-160,o),
(265,-312,o),
(52,-516,c),
(228,-684,l),
(421,-588,o),
(777,-500,o),
(1236,-500,cs),
(1701,-500,o),
(2077,-600,o),
(2268,-680,c),
(2424,-516,l),
(2249,-316,o),
(1801,-160,o),
(1236,-160,cs)
);
}
);
width = 2472;
},
{
layerId = "B1F27B51-9973-4381-9301-4FE46FE1CA59";
shapes = (
{
closed = 1;
nodes = (
(662,-159,o),
(370,-276,o),
(108,-580,c),
(158,-604,l),
(392,-352,o),
(672,-222,o),
(1056,-224,cs),
(1440,-226,o),
(1721,-353,o),
(1954,-604,c),
(2004,-580,l),
(1742,-277,o),
(1450,-161,o),
(1056,-160,cs)
);
}
);
width = 2114;
},
{
associatedMasterId = "CD0E3B44-F66A-4791-B84C-A1128DC61275";
layerId = "27A6EDA6-0CCE-409D-8CE0-0A3A13D16487";
shapes = (
{
closed = 1;
nodes = (
(570,-160,o),
(280,-328,o),
(70,-556,c),
(224,-660,l),
(408,-534,o),
(674,-434,o),
(1114,-434,cs),
(1556,-434,o),
(1846,-546,o),
(2034,-664,c),
(2162,-556,l),
(1994,-344,o),
(1658,-160,o),
(1114,-160,cs)
);
}
);
width = 2228.90566;
},
{
layerId = "CD0E3B44-F66A-4791-B84C-A1128DC61275";
shapes = (
{
closed = 1;
nodes = (
(582,-160,o),
(292,-328,o),
(82,-556,c),
(236,-660,l),
(420,-534,o),
(686,-434,o),
(1126,-434,cs),
(1568,-434,o),
(1858,-546,o),
(2046,-664,c),
(2174,-556,l),
(2006,-344,o),
(1670,-160,o),
(1126,-160,cs)
);
}
);
width = 2252;
}
);
unicode = 8276;
userData = {
interface.gridadjust.original = "{'width': 2138, 'leftMargin': 28, 'rightMargin': 27}";
"interface.width-adjustments" = (
-16
);
};
}
{
glyphname = uni2094;
layers = (
{
layerId = "5C20EF92-B63D-42A8-8878-93C2863E0093";
shapes = (
{
closed = 1;
nodes = (
(432,544,o),
(272,444,o),
(200,356,c),
(360,156,l),
(432,240,o),
(548,260,o),
(632,260,cs),
(792,260,o),
(916,156,o),
(916,8,cs),
(916,-32,ls),
(916,-184,o),
(856,-316,o),
(700,-316,cs),
(596,-316,o),
(512,-268,o),
(512,-168,cs),
(512,-136,l),
(1124,-136,l),
(1124,80,l),
(172,80,l),
(172,-60,ls),
(172,-400,o),
(372,-600,o),
(696,-600,cs),
(1080,-600,o),
(1252,-336,o),
(1252,-32,cs),
(1252,8,ls),
(1252,284,o),
(1044,544,o),
(652,544,cs,{
name = hr00;
})
);
}
);
width = 1428;
},
{
layerId = "B1F27B51-9973-4381-9301-4FE46FE1CA59";
shapes = (
{
closed = 1;
nodes = (
(365,544,o),
(220,462,o),
(148,332,c),
(194,300,l),
(277,422,o),
(394,488,o),
(548,488,cs),
(818,488,o),
(976,299,o),
(976,-24,cs),
(976,-44,ls),
(976,-339,o),
(814,-536,o),
(572,-536,cs),
(332,-536,o),
(172,-352,o),
(172,-78,c),
(172,-76,l),
(1004,-76,l),
(1004,-20,l),
(108,-20,l),
(108,-64,ls),
(108,-384,o),
(293,-596,o),
(572,-596,cs),
(851,-596,o),
(1040,-377,o),
(1040,-40,cs),
(1040,-24,ls),
(1040,328,o),
(853,544,o),
(548,544,cs)
);
}
);
width = 1086;
},
{
associatedMasterId = "CD0E3B44-F66A-4791-B84C-A1128DC61275";
layerId = "2F02635E-6E3F-45D9-B80F-AAAF20EF8E5E";
shapes = (
{
closed = 1;
nodes = (
(362,540,o),
(220,440,o),
(148,332,c),
(308,188,l),
(372,260,o),
(446,330,o),
(572,330,cs),
(744,330,o),
(864,210,o),
(864,12,cs),
(864,-32,ls),
(864,-266,o),
(774,-386,o),
(610,-386,cs),
(448,-386,o),
(374,-284,o),
(374,-144,cs),
(374,-132,l),
(972,-132,l),
(972,80,l),
(120,80,l),
(120,-56,ls),
(120,-364,o),
(286,-600,o),
(610,-600,cs),
(858,-600,o),
(1118,-394,o),
(1118,-32,cs),
(1118,12,ls),
(1118,320,o),
(896,540,o),
(586,540,cs)
);
}
);
width = 1204.41509;
},
{
layerId = "CD0E3B44-F66A-4791-B84C-A1128DC61275";
shapes = (
{
closed = 1;
nodes = (
(372,540,o),
(230,440,o),
(158,332,c),
(318,188,l),
(382,260,o),
(456,330,o),
(582,330,cs),
(754,330,o),
(874,210,o),
(874,12,cs),
(874,-32,ls),
(874,-266,o),
(784,-386,o),
(620,-386,cs),
(458,-386,o),
(384,-284,o),
(384,-144,cs),
(384,-132,l),
(982,-132,l),
(982,80,l),
(130,80,l),
(130,-56,ls),
(130,-364,o),
(296,-600,o),
(620,-600,cs),
(868,-600,o),
(1128,-394,o),
(1128,-32,cs),
(1128,12,ls),
(1128,320,o),
(906,540,o),
(596,540,cs)
);
}
);
width = 1222;
}
);
unicode = 8340;
userData = {
interface.gridadjust.original = "{'width': 1161, 'leftMargin': 21, 'rightMargin': 144}";
"interface.width-adjustments" = (
-16
);
};
}
{
glyphname = bitcoin;
kernLeft = B;
kernRight = B;
layers = (
{
background = {
shapes = (
{
closed = 1;
nodes = (
(708,1944,l),
(708,2304,l),
(544,2304,l),
(544,1944,l)
);
},
{
closed = 1;
nodes = (
(1092,1944,l),
(1092,2304,l),
(928,2304,l),
(928,1944,l)
);
},
{
closed = 1;
nodes = (
(708,-256,l),
(708,104,l),
(544,104,l),
(544,-256,l)
);
},
{
closed = 1;
nodes = (
(1092,-256,l),
(1092,104,l),
(928,104,l),
(928,-256,l)
);
},
{
closed = 1;
nodes = (
(988,0,ls),
(1472,0,o),
(1672,236,o),
(1672,544,cs),
(1672,868,o),
(1448,1044,o),
(1260,1056,c),
(1260,1076,l),
(1436,1124,o),
(1592,1240,o),
(1592,1504,cs),
(1592,1804,o),
(1392,2048,o),
(964,2048,cs),
(248,2048,l),
(248,0,l)
);
},
{
closed = 1;
nodes = (
(496,932,l),
(1000,932,ls),
(1268,932,o),
(1436,752,o),
(1436,544,cs),
(1436,364,o),
(1312,220,o),
(988,220,cs),
(496,220,l)
);
},
{
closed = 1;
nodes = (
(496,1828,l),
(964,1828,ls),
(1236,1828,o),
(1356,1684,o),
(1356,1504,cs),
(1356,1288,o),
(1180,1148,o),
(956,1148,cs),
(496,1148,l)
);
}
);
};
layerId = "B1F27B51-9973-4381-9301-4FE46FE1CA59";
shapes = (
{
closed = 1;
nodes = (
(642,2016,l),
(642,2304,l),
(578,2304,l),
(578,2016,l)
);
},
{
closed = 1;
nodes = (
(986,2016,l),
(986,2304,l),
(922,2304,l),
(922,2016,l)
);
},
{
closed = 1;
nodes = (
(642,-256,l),
(642,32,l),
(578,32,l),
(578,-256,l)
);
},
{
closed = 1;
nodes = (
(986,-256,l),
(986,32,l),
(922,32,l),
(922,-256,l)
);
},
{
ref = B;
}
);
width = 1740;
},
{
layerId = "5C20EF92-B63D-42A8-8878-93C2863E0093";
shapes = (
{
closed = 1;
nodes = (
(768,1944,l),
(768,2304,l),
(604,2304,l),
(604,1944,l)
);
},
{
closed = 1;
nodes = (
(1132,1944,l),
(1132,2304,l),
(968,2304,l),
(968,1944,l)
);
},
{
closed = 1;
nodes = (
(768,-256,l),
(768,104,l),
(604,104,l),
(604,-256,l)
);
},
{
closed = 1;
nodes = (
(1132,-256,l),
(1132,104,l),
(968,104,l),
(968,-256,l)
);
},
{
ref = B;
}
);
width = 1880;
},
{
associatedMasterId = "CD0E3B44-F66A-4791-B84C-A1128DC61275";
layerId = "788D2E1C-18BC-4012-855C-469A7406A8A9";
shapes = (
{
closed = 1;
nodes = (
(678,1944,l),
(678,2304,l),
(514,2304,l),
(514,1944,l)
);
},
{
closed = 1;
nodes = (
(1062,1944,l),
(1062,2304,l),
(898,2304,l),
(898,1944,l)
);
},
{
closed = 1;
nodes = (
(678,-256,l),
(678,104,l),
(514,104,l),
(514,-256,l)
);
},
{
closed = 1;
nodes = (
(1062,-256,l),
(1062,104,l),
(898,104,l),
(898,-256,l)
);
},
{
alignment = -1;
ref = B;
}
);
width = 1769.56981;
},
{
layerId = "CD0E3B44-F66A-4791-B84C-A1128DC61275";
shapes = (
{
closed = 1;
nodes = (
(688,1944,l),
(688,2304,l),
(524,2304,l),
(524,1944,l)
);
},
{
closed = 1;
nodes = (
(1072,1944,l),
(1072,2304,l),
(908,2304,l),
(908,1944,l)
);
},
{
closed = 1;
nodes = (
(688,-256,l),
(688,104,l),
(524,104,l),
(524,-256,l)
);
},
{
closed = 1;
nodes = (
(1072,-256,l),
(1072,104,l),
(908,104,l),
(908,-256,l)
);
},
{
alignment = -1;
ref = B;
}
);
width = 1794;
}
);
metricLeft = B;
metricRight = B;
unicode = 8383;
}
{
glyphname = enclosingcirclecomb;
kernLeft = C;
kernRight = D;
layers = (
{
guides = (
{
angle = 90;
pos = (688,1670);
}
);
layerId = "B1F27B51-9973-4381-9301-4FE46FE1CA59";
shapes = (
{
alignment = 1;
ref = whiteCircle;
}
);
width = 2468;
},
{
guides = (
{
angle = 90;
pos = (948,1468);
}
);
layerId = "5C20EF92-B63D-42A8-8878-93C2863E0093";
shapes = (
{
alignment = 1;
ref = whiteCircle;
}
);
width = 2644;
},
{
layerId = "CD0E3B44-F66A-4791-B84C-A1128DC61275";
shapes = (
{
alignment = 1;
ref = whiteCircle;
}
);
width = 2524;
},
{
associatedMasterId = "5C20EF92-B63D-42A8-8878-93C2863E0093";
guides = (
{
angle = 90;
pos = (948,1468);
}
);
layerId = "1530E480-CECD-4B6F-9A59-11F0D39E3065";
name = "Oct 4, 21 23:13";
shapes = (
{
closed = 1;
nodes = (
(2136,-900,o),
(2996,-40,o),
(2996,1024,cs),
(2996,2088,o),
(2136,2948,o),
(1072,2948,cs),
(10,2948,o),
(-852,2088,o),
(-852,1024,cs),
(-852,-40,o),
(10,-900,o),
(1072,-900,cs)
);
},
{
closed = 1;
nodes = (
(186,-580,o),
(-532,138,o),
(-532,1024,cs),
(-532,1910,o),
(186,2628,o),
(1072,2628,cs),
(1958,2628,o),
(2676,1910,o),
(2676,1024,cs),
(2676,138,o),
(1958,-580,o),
(1072,-580,cs)
);
}
);
width = 2764;
},
{
associatedMasterId = "CD0E3B44-F66A-4791-B84C-A1128DC61275";
layerId = "4FCFD1BA-056A-47CF-8BEF-EB54E95DB43D";
name = "Oct 4, 21 23:13";
shapes = (
{
closed = 1;
nodes = (
(1936,-900,o),
(2796,-40,o),
(2796,1024,cs),
(2796,2088,o),
(1936,2948,o),
(872,2948,cs),
(-190,2948,o),
(-1052,2088,o),
(-1052,1024,cs),
(-1052,-40,o),
(-190,-900,o),
(872,-900,cs)
);
},
{
closed = 1;
nodes = (
(-62,-666,o),
(-818,92,o),
(-818,1024,cs),
(-818,1958,o),
(-62,2714,o),
(872,2714,cs),
(1808,2714,o),
(2562,1958,o),
(2562,1024,cs),
(2562,92,o),
(1808,-666,o),
(872,-666,cs)
);
}
);
width = 0;
},
{
associatedMasterId = "B1F27B51-9973-4381-9301-4FE46FE1CA59";
guides = (
{
angle = 90;
pos = (688,1670);
}
);
layerId = "30B4C13F-6587-4E9D-B6C2-0D2CD5D653FB";
name = "Oct 4, 21 23:13";
shapes = (
{
closed = 1;
nodes = (
(1855,-900,o),
(2716,-39,o),
(2716,1024,cs),
(2716,2087,o),
(1855,2948,o),
(792,2948,cs),
(-271,2948,o),
(-1132,2087,o),
(-1132,1024,cs),
(-1132,-39,o),
(-271,-900,o),
(792,-900,cs)
);
},
{
closed = 1;
nodes = (
(-236,-836,o),
(-1068,-4,o),
(-1068,1024,cs),
(-1068,2052,o),
(-236,2884,o),
(792,2884,cs),
(1820,2884,o),
(2652,2052,o),
(2652,1024,cs),
(2652,-4,o),
(1820,-836,o),
(792,-836,cs)
);
}
);
width = 0;
}
);
note = "Origin aligned to /X (blue guide should align with center of /X when following this glyph.)";
unicode = 8413;
}
{
glyphname = numero;
kernLeft = B;
layers = (
{
layerId = "5C20EF92-B63D-42A8-8878-93C2863E0093";
shapes = (
{
closed = 1;
nodes = (
(564,0,l),
(564,1300,l),
(580,1300,l),
(1344,0,l),
(1764,0,l),
(1764,2048,l),
(1332,2048,l),
(1332,748,l),
(1316,748,l),
(560,2048,l),
(132,2048,l),
(132,0,l)
);
},
{
closed = 1;
nodes = (
(2944,584,l),
(2944,832,l),
(2052,832,l),
(2052,584,l)
);
},
{
pos = (1912,0);
ref = o.sups;
}
);
width = 3128;
},
{
layerId = "B1F27B51-9973-4381-9301-4FE46FE1CA59";
shapes = (
{
closed = 1;
nodes = (
(352,0,l),
(352,1984,l),
(362,1984,l),
(1472,0,l),
(1584,0,l),
(1584,2048,l),
(1520,2048,l),
(1520,64,l),
(1510,64,l),
(400,2048,l),
(288,2048,l),
(288,0,l)
);
},
{
closed = 1;
nodes = (
(2676,700,l),
(2676,764,l),
(1816,764,l),
(1816,700,l)
);
},
{
pos = (1732,0);
ref = o.sups;
}
);
width = 2962;
},
{
layerId = "CD0E3B44-F66A-4791-B84C-A1128DC61275";
shapes = (
{
closed = 1;
nodes = (
(476,0,l),
(476,1554,l),
(496,1554,l),
(1408,0,l),
(1652,0,l),
(1652,2048,l),
(1404,2048,l),
(1404,482,l),
(1384,482,l),
(468,2048,l),
(224,2048,l),
(224,0,l)
);
},
{
closed = 1;
nodes = (
(2778,620,l),
(2778,824,l),
(1906,824,l),
(1906,620,l)
);
},
{
alignment = -1;
pos = (1798,0);
ref = o.sups;
}
);
width = 3026;
},
{
associatedMasterId = "B1F27B51-9973-4381-9301-4FE46FE1CA59";
layerId = "074FA8C7-6F7B-41AC-AD77-7E9C31417004";
name = "Jul 10, 21 13:26";
shapes = (
{
closed = 1;
nodes = (
(352,0,l),
(352,1984,l),
(362,1984,l),
(1472,0,l),
(1584,0,l),
(1584,2048,l),
(1520,2048,l),
(1520,64,l),
(1510,64,l),
(400,2048,l),
(288,2048,l),
(288,0,l)
);
},
{
closed = 1;
nodes = (
(2676,700,l),
(2676,764,l),
(1816,764,l),
(1816,700,l)
);
},
{
closed = 1;
nodes = (
(2516,1002,o),
(2704,1188,o),
(2704,1512,cs),
(2704,1576,ls),
(2704,1899,o),
(2516,2082,o),
(2242,2084,cs),
(1968,2086,o),
(1780,1897,o),
(1780,1576,cs),
(1780,1512,ls),
(1780,1186,o),
(1968,1002,o),
(2240,1002,cs)
);
},
{
closed = 1;
nodes = (
(2016,1066,o),
(1844,1222,o),
(1844,1490,cs),
(1844,1598,ls),
(1844,1866,o),
(2014,2019,o),
(2244,2020,cs),
(2470,2021,o),
(2640,1864,o),
(2640,1598,cs),
(2640,1490,ls),
(2640,1220,o),
(2470,1066,o),
(2242,1066,cs)
);
}
);
width = 2962;
},
{
associatedMasterId = "CD0E3B44-F66A-4791-B84C-A1128DC61275";
layerId = "7E163771-624E-4821-A545-F566EA7CDE6E";
name = "Jul 10, 21 13:26";
shapes = (
{
closed = 1;
nodes = (
(478,0,l),
(478,1554,l),
(498,1554,l),
(1410,0,l),
(1654,0,l),
(1654,2048,l),
(1406,2048,l),
(1406,482,l),
(1386,482,l),
(470,2048,l),
(226,2048,l),
(226,0,l)
);
},
{
closed = 1;
nodes = (
(2780,620,l),
(2780,824,l),
(1908,824,l),
(1908,620,l)
);
},
{
closed = 1;
nodes = (
(2636,1000,o),
(2816,1188,o),
(2816,1472,c),
(2816,1606,l),
(2816,1890,o),
(2636,2080,o),
(2340,2080,cs),
(2048,2080,o),
(1864,1890,o),
(1864,1606,c),
(1864,1472,l),
(1864,1188,o),
(2048,1000,o),
(2344,1000,cs)
);
},
{
closed = 1;
nodes = (
(2180,1202,o),
(2106,1310,o),
(2106,1472,c),
(2106,1606,l),
(2106,1766,o),
(2180,1874,o),
(2340,1874,cs),
(2498,1874,o),
(2574,1766,o),
(2574,1606,c),
(2574,1472,l),
(2574,1310,o),
(2498,1202,o),
(2344,1202,cs)
);
}
);
width = 3026;
},
{
associatedMasterId = "5C20EF92-B63D-42A8-8878-93C2863E0093";
layerId = "43DDC6A0-4635-43EC-8E0A-EB5DBF3AA43A";
name = "Jul 10, 21 13:26";
shapes = (
{
closed = 1;
nodes = (
(564,0,l),
(564,1300,l),
(580,1300,l),
(1344,0,l),
(1764,0,l),
(1764,2048,l),
(1332,2048,l),
(1332,748,l),
(1316,748,l),
(560,2048,l),
(132,2048,l),
(132,0,l)
);
},
{
closed = 1;
nodes = (
(2944,584,l),
(2944,832,l),
(2052,832,l),
(2052,584,l)
);
},
{
closed = 1;
nodes = (
(2808,992,o),
(2996,1224,o),
(2996,1504,cs),
(2996,1560,ls),
(2996,1840,o),
(2804,2072,o),
(2496,2072,cs),
(2192,2072,o),
(1996,1840,o),
(1996,1560,cs),
(1996,1504,ls),
(1996,1220,o),
(2192,992,o),
(2496,992,cs)
);
},
{
closed = 1;
nodes = (
(2388,1272,o),
(2320,1362,o),
(2320,1504,cs),
(2320,1560,ls),
(2320,1702,o),
(2386,1788,o),
(2496,1788,cs),
(2606,1788,o),
(2676,1702,o),
(2676,1560,cs),
(2676,1504,ls),
(2676,1362,o),
(2604,1272,o),
(2496,1272,cs)
);
}
);
width = 3128;
}
);
unicode = 8470;
userData = {
interface.gridadjust.original = "{'width': 2901, 'leftMargin': 219, 'rightMargin': 154}";
"interface.width-adjustments" = (
-16
);
};
}
{
glyphname = leftRightArrow;
layers = (
{
layerId = "5C20EF92-B63D-42A8-8878-93C2863E0093";
shapes = (
{
closed = 1;
nodes = (
(1522,220,l),
(1052,688,l),
(2724,688,l),
(2254,220,l),
(2538,-64,l),
(3498,896,l),
(2538,1856,l),
(2254,1574,l),
(2724,1104,l),
(1052,1104,l),
(1522,1574,l),
(1238,1856,l),
(278,896,l),
(1238,-64,l)
);
}
);
width = 3776;
},
{
layerId = "B1F27B51-9973-4381-9301-4FE46FE1CA59";
shapes = (
{
closed = 1;
nodes = (
(1188,46,l),
(368,864,l),
(3344,864,l),
(2524,46,l),
(2570,0,l),
(3466,896,l),
(2570,1792,l),
(2524,1748,l),
(3344,928,l),
(368,928,l),
(1188,1748,l),
(1142,1792,l),
(246,896,l),
(1142,0,l)
);
}
);
width = 3712;
},
{
associatedMasterId = "CD0E3B44-F66A-4791-B84C-A1128DC61275";
layerId = "83241880-E310-4F5C-89B4-4C17216F3B1F";
shapes = (
{
closed = 1;
nodes = (
(1300,156,l),
(670,784,l),
(3042,784,l),
(2412,156,l),
(2568,-2,l),
(3466,896,l),
(2568,1794,l),
(2412,1638,l),
(3042,1008,l),
(670,1008,l),
(1300,1638,l),
(1144,1794,l),
(246,896,l),
(1144,-2,l)
);
}
);
width = 3712.39245;
},
{
layerId = "CD0E3B44-F66A-4791-B84C-A1128DC61275";
shapes = (
{
closed = 1;
nodes = (
(1310,156,l),
(680,784,l),
(3052,784,l),
(2422,156,l),
(2578,-2,l),
(3476,896,l),
(2578,1794,l),
(2422,1638,l),
(3052,1008,l),
(680,1008,l),
(1310,1638,l),
(1154,1794,l),
(256,896,l),
(1154,-2,l)
);
}
);
width = 3732;
}
);
metricWidth = leftLongArrow;
unicode = 8596;
}
{
glyphname = pagedown;
layers = (
{
layerId = "B1F27B51-9973-4381-9301-4FE46FE1CA59";
shapes = (
{
closed = 1;
nodes = (
(1212,512,l),
(224,512,l),
(718,-22,l)
);
},
{
closed = 1;
nodes = (
(1134,960,l),
(1134,1024,l),
(302,1024,l),
(302,960,l)
);
},
{
closed = 1;
nodes = (
(750,330,l),
(750,2048,l),
(686,2048,l),
(686,330,l)
);
},
{
closed = 1;
nodes = (
(1134,1408,l),
(1134,1472,l),
(302,1472,l),
(302,1408,l)
);
}
);
width = 1436;
},
{
layerId = "5C20EF92-B63D-42A8-8878-93C2863E0093";
shapes = (
{
closed = 1;
nodes = (
(1660,692,l),
(192,692,l),
(926,-62,l)
);
},
{
closed = 1;
nodes = (
(1416,846,l),
(1416,1226,l),
(436,1226,l),
(436,846,l)
);
},
{
closed = 1;
nodes = (
(1134,378,l),
(1134,2068,l),
(718,2068,l),
(718,378,l)
);
},
{
closed = 1;
nodes = (
(1416,1380,l),
(1416,1760,l),
(436,1760,l),
(436,1380,l)
);
}
);
width = 1852;
},
{
associatedMasterId = "CD0E3B44-F66A-4791-B84C-A1128DC61275";
layerId = "B9E2C0FC-75F5-466A-9114-F8E4B4C76935";
shapes = (
{
closed = 1;
nodes = (
(1418,536,l),
(222,536,l),
(820,-62,l)
);
},
{
closed = 1;
nodes = (
(1272,914,l),
(1272,1118,l),
(368,1118,l),
(368,914,l)
);
},
{
closed = 1;
nodes = (
(930,350,l),
(930,2068,l),
(710,2068,l),
(710,350,l)
);
},
{
closed = 1;
nodes = (
(1272,1358,l),
(1272,1562,l),
(368,1562,l),
(368,1358,l)
);
}
);
width = 1640.12075;
},
{
layerId = "CD0E3B44-F66A-4791-B84C-A1128DC61275";
shapes = (
{
closed = 1;
nodes = (
(1430,536,l),
(234,536,l),
(832,-62,l)
);
},
{
closed = 1;
nodes = (
(1284,914,l),
(1284,1118,l),
(380,1118,l),
(380,914,l)
);
},
{
closed = 1;
nodes = (
(942,350,l),
(942,2068,l),
(722,2068,l),
(722,350,l)
);
},
{
closed = 1;
nodes = (
(1284,1358,l),
(1284,1562,l),
(380,1562,l),
(380,1358,l)
);
}
);
width = 1664;
}
);
metricWidth = pageup;
unicode = 8671;
}
{
color = (204,240,242,1);
glyphname = infinity;
layers = (
{
guides = (
{
pos = (-140,2860);
}
);
layerId = "5C20EF92-B63D-42A8-8878-93C2863E0093";
shapes = (
{
closed = 1;
nodes = (
(404,1544,o),
(92,1236,o),
(92,872,cs),
(92,504,o),
(404,204,o),
(784,204,cs),
(1060,204,o),
(1260,340,o),
(1384,448,cs),
(1404,468,o),
(1412,472,o),
(1432,492,c),
(1448,476,o),
(1456,472,o),
(1484,448,cs),
(1616,332,o),
(1812,204,o),
(2080,204,cs),
(2464,204,o),
(2776,504,o),
(2776,872,cs),
(2776,1236,o),
(2464,1544,o),
(2080,1544,cs),
(1820,1544,o),
(1612,1412,o),
(1476,1288,cs),
(1464,1276,o),
(1448,1264,o),
(1432,1248,c),
(1416,1264,o),
(1408,1268,o),
(1388,1288,cs),
(1256,1408,o),
(1060,1544,o),
(784,1544,c)
);
},
{
closed = 1;
nodes = (
(564,980,o),
(664,1076,o),
(784,1076,cs),
(888,1076,o),
(984,1020,o),
(1060,952,cs),
(1064,948,o),
(1124,892,o),
(1140,872,c),
(1128,856,o),
(1104,824,o),
(1060,788,cs),
(972,712,o),
(888,672,o),
(784,672,cs),
(664,672,o),
(564,760,o),
(564,872,c)
);
},
{
closed = 1;
nodes = (
(2300,760,o),
(2204,672,o),
(2080,672,cs),
(1976,672,o),
(1888,716,o),
(1808,788,cs),
(1772,820,o),
(1748,844,o),
(1728,872,c),
(1748,896,o),
(1796,940,o),
(1808,952,cs),
(1876,1016,o),
(1976,1076,o),
(2080,1076,cs),
(2204,1076,o),
(2300,980,o),
(2300,872,c)
);
}
);
width = 2868;
},
{
layerId = "B1F27B51-9973-4381-9301-4FE46FE1CA59";
shapes = (
{
closed = 1;
nodes = (
(346,1348,o),
(144,1140,o),
(144,872,cs),
(144,600,o),
(338,392,o),
(604,392,cs),
(844,392,o),
(1003,554,o),
(1148,740,cs),
(1166,766,o),
(1186,790,o),
(1204,816,c),
(1219,796,o),
(1234,776,o),
(1248,756,cs),
(1396,564,o),
(1558,392,o),
(1804,392,cs),
(2062,392,o),
(2264,600,o),
(2264,872,cs),
(2264,1140,o),
(2062,1348,o),
(1804,1348,cs),
(1565,1348,o),
(1410,1194,o),
(1270,1012,cs),
(1248,984,o),
(1226,954,o),
(1204,924,c),
(1178,960,o),
(1151,996,o),
(1124,1030,cs),
(988,1204,o),
(834,1348,o),
(602,1348,cs)
);
},
{
closed = 1;
nodes = (
(208,1090,o),
(396,1284,o),
(602,1284,cs),
(800,1284,o),
(940,1156,o),
(1068,996,cs),
(1100,956,o),
(1132,914,o),
(1164,870,c),
(1140,837,o),
(1116,804,o),
(1092,772,cs),
(960,600,o),
(816,456,o),
(604,456,cs),
(388,456,o),
(206,652,o),
(208,872,cs)
);
},
{
closed = 1;
nodes = (
(2200,652,o),
(2012,456,o),
(1804,456,cs),
(1582,456,o),
(1436,612,o),
(1300,794,cs),
(1280,820,o),
(1262,844,o),
(1244,870,c),
(1271,906,o),
(1297,942,o),
(1324,978,cs),
(1456,1146,o),
(1598,1284,o),
(1804,1284,cs),
(2012,1284,o),
(2200,1090,o),
(2200,872,cs)
);
}
);
width = 2408;
},
{
associatedMasterId = "CD0E3B44-F66A-4791-B84C-A1128DC61275";
layerId = "C9DF5F22-B306-4C79-9746-2C6BE5A918DF";
shapes = (
{
closed = 1;
nodes = (
(356,1424,o),
(110,1178,o),
(110,872,cs),
(110,562,o),
(356,318,o),
(666,318,cs),
(884,318,o),
(1048,426,o),
(1162,534,cs),
(1208,582,o),
(1248,628,o),
(1284,672,c),
(1314,628,o),
(1354,582,o),
(1402,534,cs),
(1514,426,o),
(1678,318,o),
(1900,318,cs),
(2206,318,o),
(2452,562,o),
(2452,872,cs),
(2452,1178,o),
(2206,1424,o),
(1900,1424,cs),
(1678,1424,o),
(1514,1314,o),
(1402,1202,cs),
(1346,1152,o),
(1314,1112,o),
(1284,1068,c),
(1248,1112,o),
(1208,1158,o),
(1162,1202,cs),
(1048,1314,o),
(884,1424,o),
(666,1424,c)
);
},
{
closed = 1;
nodes = (
(344,1046,o),
(488,1190,o),
(666,1190,cs),
(798,1190,o),
(910,1122,o),
(996,1034,cs),
(1060,976,o),
(1100,920,o),
(1136,872,c),
(1100,820,o),
(1056,766,o),
(996,706,cs),
(906,618,o),
(798,552,o),
(666,552,cs),
(488,552,o),
(344,694,o),
(344,872,c)
);
},
{
closed = 1;
nodes = (
(2218,694,o),
(2074,552,o),
(1900,552,cs),
(1764,552,o),
(1658,618,o),
(1566,706,cs),
(1506,766,o),
(1462,820,o),
(1426,872,c),
(1446,896,o),
(1494,968,o),
(1566,1034,cs),
(1654,1122,o),
(1764,1190,o),
(1900,1190,cs),
(2074,1190,o),
(2218,1046,o),
(2218,872,c)
);
}
);
width = 2562.47547;
},
{
layerId = "CD0E3B44-F66A-4791-B84C-A1128DC61275";
shapes = (
{
closed = 1;
nodes = (
(368,1424,o),
(122,1178,o),
(122,872,cs),
(122,562,o),
(368,318,o),
(678,318,cs),
(896,318,o),
(1060,426,o),
(1174,534,cs),
(1220,582,o),
(1260,628,o),
(1296,672,c),
(1326,628,o),
(1366,582,o),
(1414,534,cs),
(1526,426,o),
(1690,318,o),
(1912,318,cs),
(2218,318,o),
(2464,562,o),
(2464,872,cs),
(2464,1178,o),
(2218,1424,o),
(1912,1424,cs),
(1690,1424,o),
(1526,1314,o),
(1414,1202,cs),
(1358,1152,o),
(1326,1112,o),
(1296,1068,c),
(1260,1112,o),
(1220,1158,o),
(1174,1202,cs),
(1060,1314,o),
(896,1424,o),
(678,1424,c)
);
},
{
closed = 1;
nodes = (
(356,1046,o),
(500,1190,o),
(678,1190,cs),
(810,1190,o),
(922,1122,o),
(1008,1034,cs),
(1072,976,o),
(1112,920,o),
(1148,872,c),
(1112,820,o),
(1068,766,o),
(1008,706,cs),
(918,618,o),
(810,552,o),
(678,552,cs),
(500,552,o),
(356,694,o),
(356,872,c)
);
},
{
closed = 1;
nodes = (
(2230,694,o),
(2086,552,o),
(1912,552,cs),
(1776,552,o),
(1670,618,o),
(1578,706,cs),
(1518,766,o),
(1474,820,o),
(1438,872,c),
(1458,896,o),
(1506,968,o),
(1578,1034,cs),
(1666,1122,o),
(1776,1190,o),
(1912,1190,cs),
(2086,1190,o),
(2230,1046,o),
(2230,872,c)
);
}
);
width = 2586;
}
);
unicode = 8734;
userData = {
"interface.width-adjustments" = (
-16
);
};
}
{
color = (204,240,242,1);
glyphname = greaterequal;
kernLeft = approxequal;
kernRight = approxequal;
layers = (
{
layerId = "5C20EF92-B63D-42A8-8878-93C2863E0093";
shapes = (
{
closed = 1;
nodes = (
(1720,64,l),
(1720,480,l),
(232,480,l),
(232,64,l)
);
},
{
closed = 1;
nodes = (
(1720,1344,l),
(232,1668,l),
(232,1284,l),
(1180,1108,l),
(1164,1132,l),
(1164,1076,l),
(1180,1100,l),
(232,924,l),
(232,540,l),
(1720,864,l)
);
}
);
width = 1952;
},
{
guides = (
{
pos = (132,1384);
}
);
layerId = "B1F27B51-9973-4381-9301-4FE46FE1CA59";
shapes = (
{
closed = 1;
nodes = (
(1424,128,l),
(1424,192,l),
(304,192,l),
(304,128,l)
);
},
{
closed = 1;
nodes = (
(1424,996,l),
(304,1540,l),
(304,1468,l),
(1360,956,l),
(1344,976,l),
(1344,944,l),
(1360,964,l),
(304,452,l),
(304,380,l),
(1424,924,l)
);
}
);
width = 1728;
},
{
associatedMasterId = "CD0E3B44-F66A-4791-B84C-A1128DC61275";
layerId = "1B513B74-3AFF-4700-BDA0-00687426B85F";
shapes = (
{
closed = 1;
nodes = (
(1544,96,l),
(1544,324,l),
(250,324,l),
(250,96,l)
);
},
{
closed = 1;
nodes = (
(1544,1110,l),
(250,1570,l),
(250,1324,l),
(1152,1030,l),
(1144,1046,l),
(1144,1006,l),
(1152,1022,l),
(250,728,l),
(250,482,l),
(1544,942,l)
);
}
);
width = 1794.74717;
},
{
layerId = "CD0E3B44-F66A-4791-B84C-A1128DC61275";
shapes = (
{
closed = 1;
nodes = (
(1556,96,l),
(1556,324,l),
(262,324,l),
(262,96,l)
);
},
{
closed = 1;
nodes = (
(1556,1110,l),
(262,1570,l),
(262,1324,l),
(1164,1030,l),
(1156,1046,l),
(1156,1006,l),
(1164,1022,l),
(262,728,l),
(262,482,l),
(1556,942,l)
);
}
);
width = 1816;
}
);
metricWidth = plus;
unicode = 8805;
userData = {
interface.gridadjust.original = "{'width': 1475, 'leftMargin': 209, 'rightMargin': 195}";
"interface.width-adjustments" = (
-16
);
};
}
{
glyphname = muchgreater;
layers = (
{
layerId = "B1F27B51-9973-4381-9301-4FE46FE1CA59";
shapes = (
{
closed = 1;
nodes = (
(1180,832,l),
(316,1544,l),
(316,1462,l),
(1124,796,l),
(1112,816,l),
(1112,784,l),
(1124,804,l),
(316,138,l),
(316,56,l),
(1180,768,l)
);
},
{
closed = 1;
nodes = (
(1802,832,l),
(938,1544,l),
(938,1462,l),
(1746,796,l),
(1734,816,l),
(1734,784,l),
(1746,804,l),
(938,138,l),
(938,56,l),
(1802,768,l)
);
}
);
width = 2118;
},
{
layerId = "5C20EF92-B63D-42A8-8878-93C2863E0093";
shapes = (
{
closed = 1;
nodes = (
(1220,982,l),
(232,1668,l),
(232,1156,l),
(734,836,l),
(724,860,l),
(724,804,l),
(734,828,l),
(232,508,l),
(232,-4,l),
(1220,682,l)
);
},
{
closed = 1;
nodes = (
(2224,982,l),
(1236,1668,l),
(1236,1156,l),
(1738,836,l),
(1728,860,l),
(1728,804,l),
(1738,828,l),
(1236,508,l),
(1236,-4,l),
(2224,682,l)
);
}
);
width = 2456;
},
{
layerId = "CD0E3B44-F66A-4791-B84C-A1128DC61275";
shapes = (
{
closed = 1;
nodes = (
(1254,882,l),
(262,1540,l),
(262,1264,l),
(980,804,l),
(970,826,l),
(970,774,l),
(980,796,l),
(262,338,l),
(262,62,l),
(1254,720,l)
);
},
{
closed = 1;
nodes = (
(2106,882,l),
(1116,1540,l),
(1116,1264,l),
(1834,804,l),
(1824,826,l),
(1824,774,l),
(1834,796,l),
(1116,338,l),
(1116,62,l),
(2106,720,l)
);
}
);
width = 2366;
}
);
metricLeft = greater;
metricRight = greater;
unicode = 8811;
}
{
glyphname = whiteSquare;
kernLeft = B;
kernRight = H;
layers = (
{
layerId = "B1F27B51-9973-4381-9301-4FE46FE1CA59";
shapes = (
{
alignment = -1;
pos = (28,0);
ref = u100092.small;
}
);
width = 2468;
},
{
layerId = "5C20EF92-B63D-42A8-8878-93C2863E0093";
shapes = (
{
alignment = -1;
pos = (116,0);
ref = u100092.small;
}
);
width = 2644;
},
{
associatedMasterId = "CD0E3B44-F66A-4791-B84C-A1128DC61275";
layerId = "272569D2-05C2-4AA1-AD08-14DD614102EE";
shapes = (
{
closed = 1;
nodes = (
(2280,0,l),
(2280,2048,l),
(232,2048,l),
(232,0,l)
);
},
{
closed = 1;
nodes = (
(456,1824,l),
(2056,1824,l),
(2056,224,l),
(456,224,l)
);
}
);
width = 2512.39245;
},
{
layerId = "CD0E3B44-F66A-4791-B84C-A1128DC61275";
shapes = (
{
alignment = -1;
pos = (56,0);
ref = u100092.small;
}
);
width = 2524;
}
);
metricLeft = whiteRoundedCornersSquare;
metricRight = whiteRoundedCornersSquare;
unicode = 9633;
}
{
glyphname = rightWhiteTriangle;
layers = (
{
layerId = "B1F27B51-9973-4381-9301-4FE46FE1CA59";
shapes = (
{
closed = 1;
nodes = (
(2312,1024,l),
(200,2304,l),
(200,-256,l)
);
},
{
closed = 1;
nodes = (
(264,2190,l),
(2190,1024,l),
(264,-142,l)
);
}
);
width = 2398;
},
{
layerId = "5C20EF92-B63D-42A8-8878-93C2863E0093";
shapes = (
{
closed = 1;
nodes = (
(2600,1024,l),
(316,2304,l),
(316,-256,l)
);
},
{
closed = 1;
nodes = (
(716,1622,l),
(1782,1024,l),
(716,428,l)
);
}
);
width = 2768;
},
{
associatedMasterId = "CD0E3B44-F66A-4791-B84C-A1128DC61275";
layerId = "4DC93A76-6B34-4693-8A1E-1A471B42A888";
shapes = (
{
closed = 1;
nodes = (
(2412,1024,l),
(234,2304,l),
(234,-256,l)
);
},
{
closed = 1;
nodes = (
(458,1912,l),
(1968,1024,l),
(458,138,l)
);
}
);
width = 2517.10189;
},
{
layerId = "CD0E3B44-F66A-4791-B84C-A1128DC61275";
shapes = (
{
closed = 1;
nodes = (
(2420,1024,l),
(242,2304,l),
(242,-256,l)
);
},
{
closed = 1;
nodes = (
(466,1912,l),
(1976,1024,l),
(466,138,l)
);
}
);
width = 2534;
}
);
metricWidth = triagrt;
unicode = (9655,9659);
}
{
glyphname = leftWhiteTriangle;
layers = (
{
layerId = "B1F27B51-9973-4381-9301-4FE46FE1CA59";
shapes = (
{
closed = 1;
nodes = (
(2196,2304,l),
(84,1024,l),
(2196,-256,l)
);
},
{
closed = 1;
nodes = (
(208,1024,l),
(2132,2190,l),
(2132,-142,l)
);
}
);
width = 2398;
},
{
layerId = "5C20EF92-B63D-42A8-8878-93C2863E0093";
shapes = (
{
closed = 1;
nodes = (
(2452,2304,l),
(168,1024,l),
(2452,-256,l)
);
},
{
closed = 1;
nodes = (
(986,1024,l),
(2052,1622,l),
(2052,428,l)
);
}
);
width = 2768;
},
{
associatedMasterId = "CD0E3B44-F66A-4791-B84C-A1128DC61275";
layerId = "4B18B9FF-6B1C-449C-957F-8E279CCEC9C2";
shapes = (
{
closed = 1;
nodes = (
(2284,2304,l),
(104,1024,l),
(2284,-256,l)
);
},
{
closed = 1;
nodes = (
(548,1024,l),
(2060,1912,l),
(2060,138,l)
);
}
);
width = 2517.10189;
},
{
layerId = "CD0E3B44-F66A-4791-B84C-A1128DC61275";
shapes = (
{
closed = 1;
nodes = (
(2294,2304,l),
(114,1024,l),
(2294,-256,l)
);
},
{
closed = 1;
nodes = (
(558,1024,l),
(2070,1912,l),
(2070,138,l)
);
}
);
width = 2536;
}
);
metricWidth = blackleftpointingtriangle;
unicode = (9665,9669);
}
{
glyphname = uni27EF;
layers = (
{
layerId = "5C20EF92-B63D-42A8-8878-93C2863E0093";
shapes = (
{
closed = 1;
nodes = (
(572,-656,l),
(968,-280,l),
(968,2152,l),
(572,2532,l),
(280,2244,l),
(532,1996,l),
(532,-124,l),
(280,-372,l)
);
}
);
width = 1248;
},
{
layerId = "B1F27B51-9973-4381-9301-4FE46FE1CA59";
shapes = (
{
closed = 1;
nodes = (
(68,-412,l),
(432,-36,l),
(432,1908,l),
(68,2284,l),
(24,2238,l),
(368,1882,l),
(368,-10,l),
(22,-368,l)
);
}
);
width = 390;
},
{
associatedMasterId = "CD0E3B44-F66A-4791-B84C-A1128DC61275";
layerId = "A5FB1E30-7137-47DE-834E-745811C598BE";
shapes = (
{
closed = 1;
nodes = (
(252,-508,l),
(628,-132,l),
(628,2004,l),
(252,2380,l),
(72,2204,l),
(376,1902,l),
(376,-30,l),
(72,-332,l)
);
}
);
width = 700.55849;
},
{
layerId = "CD0E3B44-F66A-4791-B84C-A1128DC61275";
shapes = (
{
closed = 1;
nodes = (
(258,-508,l),
(634,-132,l),
(634,2004,l),
(258,2380,l),
(78,2204,l),
(382,1902,l),
(382,-30,l),
(78,-332,l)
);
}
);
width = 712;
}
);
unicode = 10223;
userData = {
interface.gridadjust.original = "{'width': 895, 'leftMargin': 110, 'rightMargin': 234}";
"interface.width-adjustments" = (
-16
);
};
}
{
glyphname = rightLongDoubleArrow;
kernLeft = approxequal;
layers = (
{
layerId = "B1F27B51-9973-4381-9301-4FE46FE1CA59";
shapes = (
{
closed = 1;
nodes = (
(3466,896,l),
(2570,1792,l),
(2524,1748,l),
(3376,896,l),
(2524,46,l),
(2570,0,l)
);
},
{
closed = 1;
nodes = (
(3184,664,l),
(3244,728,l),
(320,728,l),
(320,664,l)
);
},
{
closed = 1;
nodes = (
(3244,1064,l),
(3184,1128,l),
(320,1128,l),
(320,1064,l)
);
}
);
width = 3712;
},
{
layerId = "5C20EF92-B63D-42A8-8878-93C2863E0093";
shapes = (
{
closed = 1;
nodes = (
(3498,896,l),
(2416,1978,l),
(2132,1696,l),
(2932,896,l),
(2132,96,l),
(2416,-186,l)
);
},
{
closed = 1;
nodes = (
(2744,408,l),
(3144,804,l),
(352,804,l),
(352,408,l)
);
},
{
closed = 1;
nodes = (
(3144,988,l),
(2744,1384,l),
(352,1384,l),
(352,988,l)
);
}
);
width = 3776;
},
{
associatedMasterId = "CD0E3B44-F66A-4791-B84C-A1128DC61275";
layerId = "1299F198-FCCE-46F7-B3AA-0D67F827C9E3";
shapes = (
{
closed = 1;
nodes = (
(3466,896,l),
(2566,1796,l),
(2408,1640,l),
(3154,896,l),
(2408,150,l),
(2566,-4,l)
);
},
{
closed = 1;
nodes = (
(2964,544,l),
(3188,768,l),
(320,768,l),
(320,544,l)
);
},
{
closed = 1;
nodes = (
(3188,1024,l),
(2964,1248,l),
(320,1248,l),
(320,1024,l)
);
}
);
width = 3712.39245;
},
{
layerId = "CD0E3B44-F66A-4791-B84C-A1128DC61275";
shapes = (
{
closed = 1;
nodes = (
(3476,896,l),
(2576,1796,l),
(2418,1640,l),
(3164,896,l),
(2418,150,l),
(2576,-4,l)
);
},
{
closed = 1;
nodes = (
(2974,544,l),
(3198,768,l),
(330,768,l),
(330,544,l)
);
},
{
closed = 1;
nodes = (
(3198,1024,l),
(2974,1248,l),
(330,1248,l),
(330,1024,l)
);
}
);
width = 3732;
}
);
metricRight = rightLongArrow;
metricWidth = rightLongArrow;
unicode = 10233;
}
{
glyphname = uni2E92;
layers = (
{
layerId = "CD0E3B44-F66A-4791-B84C-A1128DC61275";
shapes = (
{
closed = 1;
nodes = (
(444,1247,l),
(444,1055,l),
(1995,1055,l),
(1995,1247,l)
);
},
{
closed = 1;
nodes = (
(445,2065,l),
(445,1873,l),
(1897,1873,l),
(1897,903,l),
(2097,903,l),
(2097,2065,l)
);
},
{
closed = 1;
nodes = (
(329,2065,l),
(329,400,ls),
(329,52,o),
(455,-31,o),
(870,-30,cs),
(966,-31,o),
(1734,-31,o),
(1839,-30,cs),
(2235,-31,o),
(2321,104,o),
(2366,510,c),
(2309,523,o),
(2223,557,o),
(2172,591,c),
(2134,242,o),
(2093,160,o),
(1834,161,cs),
(1672,160,o),
(990,160,o),
(855,161,cs),
(577,160,o),
(528,205,o),
(529,398,cs),
(529,2065,l)
);
}
);
width = 2504;
},
{
layerId = "5C20EF92-B63D-42A8-8878-93C2863E0093";
shapes = (
{
closed = 1;
nodes = (
(526,1344,l),
(526,953,l),
(1955,953,l),
(1955,1344,l)
);
},
{
closed = 1;
nodes = (
(517,2107,l),
(517,1719,l),
(1750,1719,l),
(1750,836,l),
(2160,836,l),
(2160,2107,l)
);
},
{
closed = 1;
nodes = (
(280,2107,l),
(280,539,ls),
(279.996,52,o),
(437,-62,o),
(989,-62,cs),
(1124,-62,o),
(1626,-62,o),
(1774,-62,cs),
(2241,-62,o),
(2387,81,o),
(2448,517,c),
(2334,537,o),
(2159,604,o),
(2058,665,c),
(2016,370,o),
(1972,321,o),
(1724,322,cs),
(1619,321,o),
(1117,321,o),
(986,322,cs),
(708,321,o),
(686,341,o),
(685,540,cs),
(685,2107,l)
);
}
);
width = 2504;
},
{
layerId = "B1F27B51-9973-4381-9301-4FE46FE1CA59";
shapes = (
{
closed = 1;
nodes = (
(390,1184,l),
(390,1121,l),
(2019,1121,l),
(2019,1184,l)
);
},
{
closed = 1;
nodes = (
(400,2035,l),
(400,1974,l),
(1994,1974,l),
(1994,950,l),
(2058,950,l),
(2058,2035,l)
);
},
{
closed = 1;
nodes = (
(361,2035,l),
(361,308,ls),
(360,52,o),
(467,-11,o),
(793,-11,cs),
(863,-11,o),
(1805,-11,o),
(1884,-11,cs),
(2233,-11,o),
(2277,119,o),
(2312,508,c),
(2292,515,o),
(2266,526,o),
(2245,542,c),
(2211,159,o),
(2175,54,o),
(1905,54,cs),
(1707,54,o),
(907,54,o),
(769,54,cs),
(491,54,o),
(425,116,o),
(426,304,cs),
(426,2035,l)
);
}
);
width = 2504;
}
);
note = cid16663;
unicode = (11922,24051);
}
{
glyphname = uni2E94;
layers = (
{
layerId = "CD0E3B44-F66A-4791-B84C-A1128DC61275";
shapes = (
{
closed = 1;
nodes = (
(127,226,l),
(127,34,l),
(2379,34,l),
(2379,226,l)
);
},
{
closed = 1;
nodes = (
(764,1756,l),
(764,1566,l),
(1825,1566,l),
(1825,1756,l)
);
},
{
closed = 1;
nodes = (
(625,929,l),
(625,739,l),
(1746,739,l),
(1746,929,l)
);
},
{
closed = 1;
nodes = (
(1760,1756,l),
(1718,1248,o),
(1630,546,o),
(1558,137,c),
(1771,137,l),
(1836,536,o),
(1917,1235,o),
(1968,1756,c)
);
},
{
closed = 1;
nodes = (
(748,2211,l),
(674,1705,o),
(543,996,o),
(444,589,c),
(656,579,l),
(746,975,o),
(874,1675,o),
(953,2192,c)
);
}
);
width = 2504;
},
{
layerId = "5C20EF92-B63D-42A8-8878-93C2863E0093";
shapes = (
{
closed = 1;
nodes = (
(92,363,l),
(92,-23,l),
(2414,-23,l),
(2414,363,l)
);
},
{
closed = 1;
nodes = (
(789,1843,l),
(789,1461,l),
(1758,1461,l),
(1758,1843,l)
);
},
{
closed = 1;
nodes = (
(695,1076,l),
(695,697,l),
(1696,697,l),
(1696,1076,l)
);
},
{
closed = 1;
nodes = (
(1627,1843,l),
(1586,1287,o),
(1509,620,o),
(1423,177,c),
(1864,177,l),
(1927,605,o),
(2003,1274,o),
(2050,1843,c)
);
},
{
closed = 1;
nodes = (
(661,2260,l),
(591,1724,o),
(472,1061,o),
(362,638,c),
(795,614,l),
(884,1024,o),
(994,1669,o),
(1080,2222,c)
);
}
);
width = 2504;
},
{
layerId = "B1F27B51-9973-4381-9301-4FE46FE1CA59";
shapes = (
{
closed = 1;
nodes = (
(149,134,l),
(149,71,l),
(2357,71,l),
(2357,134,l)
);
},
{
closed = 1;
nodes = (
(747,1698,l),
(747,1635,l),
(1868,1635,l),
(1868,1698,l)
);
},
{
closed = 1;
nodes = (
(580,832,l),
(580,769,l),
(1783,769,l),
(1783,832,l)
);
},
{
closed = 1;
nodes = (
(1849,1698,l),
(1804,1223,o),
(1711,497,o),
(1647,111,c),
(1710,111,l),
(1775,490,o),
(1861,1210,o),
(1914,1698,c)
);
},
{
closed = 1;
nodes = (
(806,2181,l),
(727,1693,o),
(589,953,o),
(494,559,c),
(564,557,l),
(655,944,o),
(792,1678,o),
(869,2171,c)
);
}
);
width = 2504;
}
);
note = cid17291;
unicode = (11924,24401);
}
{
glyphname = uni2E99;
layers = (
{
layerId = "CD0E3B44-F66A-4791-B84C-A1128DC61275";
shapes = (
{
closed = 1;
nodes = (
(697,1754,l),
(697,1559,l),
(2346,1559,l),
(2346,1754,l)
);
},
{
closed = 1;
nodes = (
(855,2225,l),
(684,1759,o),
(398,1322,o),
(60,1047,c),
(111,1015,o),
(201,946,o),
(236,911,c),
(565,1209,o),
(863,1668,o),
(1058,2169,c)
);
},
{
closed = 1;
nodes = (
(1790,1676,l),
(1539,780,o),
(1027,315,o),
(92,77,c),
(136,33,o),
(207,-55,o),
(231,-103,c),
(1172,169,o),
(1716,665,o),
(2001,1624,c)
);
},
{
closed = 1;
nodes = (
(536,1491,l),
(842,673,o),
(1396,124,o),
(2288,-97,c),
(2319,-42,o),
(2375,46,o),
(2422,88,c),
(1551,283,o),
(990,810,o),
(722,1552,c)
);
}
);
width = 2504;
},
{
layerId = "5C20EF92-B63D-42A8-8878-93C2863E0093";
shapes = (
{
closed = 1;
nodes = (
(712,1859,l),
(712,1464,l),
(2376,1464,l),
(2376,1859,l)
);
},
{
closed = 1;
nodes = (
(756,2270,l),
(610,1815,o),
(331,1393,o),
(-2,1140,c),
(103,1075,o),
(279,937,o),
(355,864,c),
(679,1158,o),
(984,1643,o),
(1174,2156,c)
);
},
{
closed = 1;
nodes = (
(1648,1701,l),
(1451,840,o),
(965,420,o),
(42,236,c),
(129,147,o),
(277,-36,o),
(328,-138,c),
(1271,106,o),
(1827,616,o),
(2094,1603,c)
);
},
{
closed = 1;
nodes = (
(454,1426,l),
(782,621,o),
(1282,98,o),
(2199,-132,c),
(2263,-20,o),
(2381,166,o),
(2475,259,c),
(1614,435,o),
(1081,901,o),
(841,1552,c)
);
}
);
width = 2504;
},
{
layerId = "B1F27B51-9973-4381-9301-4FE46FE1CA59";
shapes = (
{
closed = 1;
nodes = (
(686,1685,l),
(686,1622,l),
(2329,1622,l),
(2329,1685,l)
);
},
{
closed = 1;
nodes = (
(921,2195,l),
(733,1722,o),
(441,1276,o),
(100,986,c),
(118,977,o),
(149,952,o),
(159,941,c),
(490,1245,o),
(782,1685,o),
(981,2180,c)
);
},
{
closed = 1;
nodes = (
(1882,1659,l),
(1597,742,o),
(1067,246,o),
(129,-26,c),
(144,-41,o),
(162,-67,o),
(168,-81,c),
(1107,208,o),
(1643,697,o),
(1940,1637,c)
);
},
{
closed = 1;
nodes = (
(590,1536,l),
(880,710,o),
(1470,142,o),
(2346,-73,c),
(2357,-56,o),
(2372,-36,o),
(2387,-24,c),
(1512,183,o),
(929,748,o),
(645,1552,c)
);
}
);
width = 2504;
}
);
note = cid19907;
unicode = (11929,25909);
}
